<svg version="1.1" xmlns="http://www.w3.org/2000/svg" xmlns:xlink="http://www.w3.org/1999/xlink" width="39" height="48"><defs/><g><path fill="rgb(252,69,71)" stroke="none" paint-order="stroke fill markers" fill-rule="evenodd" d=" M 36.93588352203369 28.430845260620117 C 36.861616134643555 28.311004638671875 36.7308554649353 28.238811492919922 36.58983087539673 28.238811492919922 C 36.58983087539673 28.238811492919922 34.41513156890869 28.238811492919922 34.41513156890869 28.238811492919922 C 34.25950384140015 28.238811492919922 34.11764478683472 28.326887130737305 34.0490517616272 28.466761350631714 C 34.0490517616272 28.466761350631714 31.198185443878174 34.270548820495605 31.198185443878174 34.270548820495605 C 31.198185443878174 34.270548820495605 23.33001470565796 34.270548820495605 23.33001470565796 34.270548820495605 C 23.168211936950684 34.270548820495605 23.02193021774292 34.365843772888184 22.95692539215088 34.51402020454407 C 22.95692539215088 34.51402020454407 21.18493890762329 38.123677492141724 21.18493890762329 38.123677492141724 C 21.18493890762329 38.123677492141724 6.331711769104004 38.123677492141724 6.331711769104004 38.123677492141724 C 6.105905532836914 38.123677492141724 5.923408031463623 38.305965185165405 5.923408031463623 38.53174924850464 C 5.923408031463623 38.53174924850464 5.923408031463623 40.492695569992065 5.923408031463623 40.492695569992065 C 5.923408031463623 40.71793818473816 6.105905532836914 40.90094780921936 6.331711769104004 40.90094780921936 C 6.331711769104004 40.90094780921936 9.622007369995117 40.90094780921936 9.622007369995117 40.90094780921936 C 9.622007369995117 40.90094780921936 7.258718967437744 45.837334632873535 7.258718967437744 45.837334632873535 C 7.194965839385986 45.96403360366821 7.201224327087402 46.114917278289795 7.275908946990967 46.23493838310242 C 7.350092887878418 46.3553204536438 7.481020450592041 46.42877697944641 7.622796058654785 46.42877697944641 C 7.622796058654785 46.42877697944641 9.797996044158936 46.42877697944641 9.797996044158936 46.42877697944641 C 9.951787948608398 46.42877697944641 10.092895984649658 46.34160375595093 10.162657260894775 46.20389533042908 C 10.162657260894775 46.20389533042908 12.709527969360352 40.90094780921936 12.709527969360352 40.90094780921936 C 12.709527969360352 40.90094780921936 28.24067449569702 40.90094780921936 28.24067449569702 40.90094780921936 C 28.24067449569702 40.90094780921936 30.78846311569214 46.20389533042908 30.78846311569214 46.20389533042908 C 30.8573899269104 46.34160375595093 30.99833106994629 46.42877697944641 31.15312433242798 46.42877697944641 C 31.15312433242798 46.42877697944641 33.32740640640259 46.42877697944641 33.32740640640259 46.42877697944641 C 33.46884822845459 46.42877697944641 33.60052680969238 46.3553204536438 33.67479419708252 46.23493838310242 C 33.74897813796997 46.114917278289795 33.755653858184814 45.96403360366821 33.69198417663574 45.837334632873535 C 33.69198417663574 45.837334632873535 31.124835968017578 40.894269943237305 31.124835968017578 40.894269943237305 C 31.124835968017578 40.894269943237305 36.95574378967285 28.8275465965271 36.95574378967285 28.8275465965271 C 37.01766109466553 28.700486660003662 37.010568141937256 28.55086636543274 36.93588352203369 28.430845260620117 C 36.93588352203369 28.430845260620117 36.93588352203369 28.430845260620117 36.93588352203369 28.430845260620117 Z M 30.162614345550537 36.39302730560303 C 30.162614345550537 36.39302730560303 29.313963413238525 38.123677492141724 29.313963413238525 38.123677492141724 C 29.313963413238525 38.123677492141724 23.56383180618286 38.123677492141724 23.56383180618286 38.123677492141724 C 23.56383180618286 38.123677492141724 24.404555320739746 36.39212489128113 24.404555320739746 36.39212489128113 C 24.404555320739746 36.39212489128113 30.162614345550537 36.39302730560303 30.162614345550537 36.39302730560303 Z M 30.162614345550537 36.39302730560303 C 30.162614345550537 36.39302730560303 30.162614345550537 36.39302730560303 30.162614345550537 36.39302730560303 M 17.331963539123535 6.164132833480835 C 17.32495403289795 6.164132833480835 17.318278312683105 6.164674282073975 17.310851573944092 6.164674282073975 C 17.303675174713135 6.164674282073975 17.29666566848755 6.164132833480835 17.289572715759277 6.164132833480835 C 8.683651447296143 6.164132833480835 1.689833164215088 11.782022953033447 1.684492588043213 18.687297344207764 C 1.684492588043213 18.851175785064697 1.8122491836547852 18.98617696762085 1.9753036499023438 18.995020627975464 C 2.065092086791992 19.00025463104248 2.1618900299072266 18.966323852539062 2.2233901023864746 18.902432918548584 C 3.365438938140869 17.72351884841919 4.895680904388428 17.07450246810913 6.532901287078857 17.07450246810913 C 8.16519832611084 17.07540488243103 9.687512874603271 17.718284845352173 10.826557636260986 18.883482217788696 C 10.939711093902588 18.99935221672058 11.12312650680542 19.007473945617676 11.24604320526123 18.901530504226685 C 12.937086582183838 17.44413137435913 15.085750579833984 16.63033413887024 17.310851573944092 16.59766674041748 C 19.535869121551514 16.63033413887024 21.684866905212402 17.44413137435913 23.375493049621582 18.901530504226685 C 23.49790906906128 19.007473945617676 23.681825160980225 18.99935221672058 23.795395851135254 18.883482217788696 C 24.934106826782227 17.717743396759033 26.456838607788086 17.07540488243103 28.08913564682007 17.07450246810913 C 29.72535467147827 17.07450246810913 31.256097316741943 17.72351884841919 32.39873027801514 18.902432918548584 C 32.460063457489014 18.966323852539062 32.55644416809082 18.99989366531372 32.64623260498047 18.995020627975464 C 32.80928707122803 18.98617696762085 32.9370436668396 18.851175785064697 32.9370436668396 18.687297344207764 C 32.93136930465698 11.782022953033447 25.938302040100098 6.164132833480835 17.331963539123535 6.164132833480835 C 17.331963539123535 6.164132833480835 17.331963539123535 6.164132833480835 17.331963539123535 6.164132833480835 Z M 17.331963539123535 6.164132833480835 C 17.331963539123535 6.164132833480835 17.331963539123535 6.164132833480835 17.331963539123535 6.164132833480835 M 17.310851573944092 46.42877697944641 C 17.98793649673462 46.42877697944641 18.538182735443115 45.87722134590149 18.538182735443115 45.19896674156189 C 18.538182735443115 45.19896674156189 18.538182735443115 42.43884229660034 18.538182735443115 42.43884229660034 C 18.538182735443115 42.39678978919983 18.520992755889893 42.356722593307495 18.49086856842041 42.327845335006714 C 18.46049404144287 42.29860711097717 18.421107292175293 42.28543186187744 18.37729787826538 42.28543186187744 C 17.310851573944092 42.28543186187744 17.526477336883545 42.2848904132843 16.24423837661743 42.2848904132843 C 16.24148464202881 42.2848904132843 16.23939847946167 42.2848904132843 16.236310958862305 42.2848904132843 C 16.196924209594727 42.2848904132843 16.15937328338623 42.29950952529907 16.130584239959717 42.326942920684814 C 16.10054349899292 42.356181144714355 16.082852840423584 42.39588737487793 16.082852840423584 42.43848133087158 C 16.082852840423584 42.43848133087158 16.082852840423584 45.19896674156189 16.082852840423584 45.19896674156189 C 16.082852840423584 45.87722134590149 16.633599758148193 46.42877697944641 17.310851573944092 46.42877697944641 C 17.310851573944092 46.42877697944641 17.310851573944092 46.42877697944641 17.310851573944092 46.42877697944641 Z M 17.310851573944092 46.42877697944641 C 17.310851573944092 46.42877697944641 17.310851573944092 46.42877697944641 17.310851573944092 46.42877697944641 M 18.38347291946411 18.074016571044922 C 17.856257915496826 17.94100069999695 16.762691497802734 17.94009828567505 16.234975814819336 18.07888960838318 C 16.161209106445312 18.098381757736206 16.082852840423584 18.144585371017456 16.082852840423584 18.234285354614258 C 16.082852840423584 18.234285354614258 16.082852840423584 36.58650493621826 16.082852840423584 36.58650493621826 C 16.082852840423584 36.67151236534119 16.151779651641846 36.74009585380554 16.236310958862305 36.74009585380554 C 16.236310958862305 36.74009585380554 18.385308742523193 36.74009585380554 18.385308742523193 36.74009585380554 C 18.470173835754395 36.74009585380554 18.538182735443115 36.67097091674805 18.538182735443115 36.58650493621826 C 18.538182735443115 36.58650493621826 18.538182735443115 18.234285354614258 18.538182735443115 18.234285354614258 C 18.53868341445923 18.141878128051758 18.456989288330078 18.09260630607605 18.38347291946411 18.074016571044922 C 18.38347291946411 18.074016571044922 18.38347291946411 18.074016571044922 18.38347291946411 18.074016571044922 Z M 18.38347291946411 18.074016571044922 C 18.38347291946411 18.074016571044922 18.38347291946411 18.074016571044922 18.38347291946411 18.074016571044922 M 17.310851573944092 1.9998517036437988 C 17.310851573944092 1.9998517036437988 17.31035089492798 1.9998517036437988 17.31035089492798 1.9998517036437988 C 16.63309907913208 1.9998517036437988 16.082435607910156 2.5515878200531006 16.082435607910156 3.2298424243927 C 16.082435607910156 3.2298424243927 16.082435607910156 4.966268062591553 16.082435607910156 4.966268062591553 C 16.082435607910156 5.008681535720825 16.100042819976807 5.048568248748779 16.13016700744629 5.07780647277832 C 16.15937328338623 5.1052398681640625 16.196924209594727 5.119858980178833 16.236310958862305 5.119858980178833 C 16.238897800445557 5.119858980178833 16.24148464202881 5.119858980178833 16.24423837661743 5.119858980178833 C 16.66063642501831 5.098201036453247 16.99158525466919 5.087913513183594 17.310851573944092 5.087913513183594 C 17.62945032119751 5.087913513183594 17.960983276367188 5.098201036453247 18.37729787826538 5.119858980178833 C 18.37996816635132 5.119858980178833 18.382638454437256 5.119858980178833 18.385308742523193 5.119858980178833 C 18.424612045288086 5.119858980178833 18.46258020401001 5.1052398681640625 18.49086856842041 5.07780647277832 C 18.52140998840332 5.048568248748779 18.53868341445923 5.008681535720825 18.53868341445923 4.966268062591553 C 18.53868341445923 4.966268062591553 18.53868341445923 3.2298424243927 18.53868341445923 3.2298424243927 C 18.539100646972656 2.5515878200531006 17.988353729248047 1.9998517036437988 17.310851573944092 1.9998517036437988 C 17.310851573944092 1.9998517036437988 17.310851573944092 1.9998517036437988 17.310851573944092 1.9998517036437988 Z M 17.310851573944092 1.9998517036437988 C 17.310851573944092 1.9998517036437988 17.310851573944092 1.9998517036437988 17.310851573944092 1.9998517036437988"/></g></svg>