<svg version="1.1" xmlns="http://www.w3.org/2000/svg" xmlns:xlink="http://www.w3.org/1999/xlink" width="44" height="36"><defs/><g><path fill="rgb(252,69,71)" stroke="none" paint-order="stroke fill markers" fill-rule="evenodd" d=" M 41.384636878967285 1.5421195030212402 C 41.384636878967285 1.5421195030212402 2.6143903732299805 1.5421195030212402 2.6143903732299805 1.5421195030212402 C 1.866793155670166 1.5421195030212402 1.2599701881408691 2.146376132965088 1.2599701881408691 2.8908679485321045 C 1.2599701881408691 2.8908679485321045 1.2599701881408691 33.107850551605225 1.2599701881408691 33.107850551605225 C 1.2599701881408691 33.852703332901 1.866793155670166 34.45677947998047 2.6143903732299805 34.45677947998047 C 3.3620710372924805 34.45677947998047 3.9688940048217773 33.852703332901 3.9688940048217773 33.107850551605225 C 3.9688940048217773 33.107850551605225 3.9688940048217773 6.4886133670806885 3.9688940048217773 6.4886133670806885 C 3.9688940048217773 6.4886133670806885 6.106543064117432 8.928200244903564 6.106543064117432 8.928200244903564 C 6.106543064117432 8.928200244903564 6.106543064117432 29.870348930358887 6.106543064117432 29.870348930358887 C 6.106543064117432 30.615743160247803 6.713115692138672 31.21909737586975 7.460963249206543 31.21909737586975 C 8.208643913269043 31.21909737586975 8.81546688079834 30.615743160247803 8.81546688079834 29.870348930358887 C 8.81546688079834 29.870348930358887 8.81546688079834 25.854785680770874 8.81546688079834 25.854785680770874 C 8.81546688079834 25.854785680770874 13.827764511108398 25.854785680770874 13.827764511108398 25.854785680770874 C 13.827764511108398 25.854785680770874 13.827764511108398 29.870348930358887 13.827764511108398 29.870348930358887 C 13.827764511108398 30.367398738861084 14.23156213760376 30.769514560699463 14.730739116668701 30.769514560699463 C 15.228914737701416 30.769514560699463 15.633713722229004 30.367398738861084 15.633713722229004 29.870348930358887 C 15.633713722229004 29.870348930358887 15.633713722229004 25.854785680770874 15.633713722229004 25.854785680770874 C 15.633713722229004 25.854785680770874 21.09745693206787 25.854785680770874 21.09745693206787 25.854785680770874 C 21.09745693206787 25.854785680770874 21.09745693206787 29.870348930358887 21.09745693206787 29.870348930358887 C 21.09745693206787 30.367398738861084 21.501338005065918 30.769514560699463 22.000431537628174 30.769514560699463 C 22.498690605163574 30.769514560699463 22.903406143188477 30.367398738861084 22.903406143188477 29.870348930358887 C 22.903406143188477 29.870348930358887 22.903406143188477 25.854785680770874 22.903406143188477 25.854785680770874 C 22.903406143188477 25.854785680770874 28.366231441497803 25.854785680770874 28.366231441497803 25.854785680770874 C 28.366231441497803 25.854785680770874 28.366231441497803 29.870348930358887 28.366231441497803 29.870348930358887 C 28.366231441497803 30.367398738861084 28.77011251449585 30.769514560699463 29.26928949356079 30.769514560699463 C 29.767465114593506 30.769514560699463 30.172264099121094 30.367398738861084 30.172264099121094 29.870348930358887 C 30.172264099121094 29.870348930358887 30.172264099121094 25.854785680770874 30.172264099121094 25.854785680770874 C 30.172264099121094 25.854785680770874 35.18447828292847 25.854785680770874 35.18447828292847 25.854785680770874 C 35.18447828292847 25.854785680770874 35.18447828292847 29.870348930358887 35.18447828292847 29.870348930358887 C 35.18447828292847 30.615743160247803 35.79038333892822 31.21909737586975 36.538981914520264 31.21909737586975 C 37.28691291809082 31.21909737586975 37.89348554611206 30.615743160247803 37.89348554611206 29.870348930358887 C 37.89348554611206 29.870348930358887 37.89348554611206 8.928200244903564 37.89348554611206 8.928200244903564 C 37.89348554611206 8.928200244903564 40.03013324737549 6.4886133670806885 40.03013324737549 6.4886133670806885 C 40.03013324737549 6.4886133670806885 40.03013324737549 33.107850551605225 40.03013324737549 33.107850551605225 C 40.03013324737549 33.852703332901 40.636956214904785 34.45677947998047 41.384636878967285 34.45677947998047 C 42.1334023475647 34.45677947998047 42.73914051055908 33.852703332901 42.73914051055908 33.107850551605225 C 42.73914051055908 33.107850551605225 42.73914051055908 2.8908679485321045 42.73914051055908 2.8908679485321045 C 42.73914051055908 2.146376132965088 42.1334023475647 1.5421195030212402 41.384636878967285 1.5421195030212402 C 41.384636878967285 1.5421195030212402 41.384636878967285 1.5421195030212402 41.384636878967285 1.5421195030212402 Z M 35.18447828292847 13.331982135772705 C 35.18447828292847 13.331982135772705 30.172264099121094 13.331982135772705 30.172264099121094 13.331982135772705 C 30.172264099121094 13.331982135772705 30.172264099121094 9.771055221557617 30.172264099121094 9.771055221557617 C 30.172264099121094 9.771055221557617 35.18447828292847 9.771055221557617 35.18447828292847 9.771055221557617 C 35.18447828292847 9.771055221557617 35.18447828292847 13.331982135772705 35.18447828292847 13.331982135772705 Z M 28.366231441497803 13.331982135772705 C 28.366231441497803 13.331982135772705 22.903406143188477 13.331982135772705 22.903406143188477 13.331982135772705 C 22.903406143188477 13.331982135772705 22.903406143188477 9.771055221557617 22.903406143188477 9.771055221557617 C 22.903406143188477 9.771055221557617 28.366231441497803 9.771055221557617 28.366231441497803 9.771055221557617 C 28.366231441497803 9.771055221557617 28.366231441497803 13.331982135772705 28.366231441497803 13.331982135772705 Z M 21.09745693206787 13.331982135772705 C 21.09745693206787 13.331982135772705 15.633713722229004 13.331982135772705 15.633713722229004 13.331982135772705 C 15.633713722229004 13.331982135772705 15.633713722229004 9.771055221557617 15.633713722229004 9.771055221557617 C 15.633713722229004 9.771055221557617 21.09745693206787 9.771055221557617 21.09745693206787 9.771055221557617 C 21.09745693206787 9.771055221557617 21.09745693206787 13.331982135772705 21.09745693206787 13.331982135772705 Z M 13.827764511108398 13.331982135772705 C 13.827764511108398 13.331982135772705 8.81546688079834 13.331982135772705 8.81546688079834 13.331982135772705 C 8.81546688079834 13.331982135772705 8.81546688079834 9.771055221557617 8.81546688079834 9.771055221557617 C 8.81546688079834 9.771055221557617 13.827764511108398 9.771055221557617 13.827764511108398 9.771055221557617 C 13.827764511108398 9.771055221557617 13.827764511108398 13.331982135772705 13.827764511108398 13.331982135772705 Z M 8.81546688079834 15.130313396453857 C 8.81546688079834 15.130313396453857 13.827764511108398 15.130313396453857 13.827764511108398 15.130313396453857 C 13.827764511108398 15.130313396453857 13.827764511108398 18.693586587905884 13.827764511108398 18.693586587905884 C 13.827764511108398 18.693586587905884 8.81546688079834 18.693586587905884 8.81546688079834 18.693586587905884 C 8.81546688079834 18.693586587905884 8.81546688079834 15.130313396453857 8.81546688079834 15.130313396453857 Z M 15.633713722229004 15.130313396453857 C 15.633713722229004 15.130313396453857 21.09745693206787 15.130313396453857 21.09745693206787 15.130313396453857 C 21.09745693206787 15.130313396453857 21.09745693206787 18.693586587905884 21.09745693206787 18.693586587905884 C 21.09745693206787 18.693586587905884 15.633713722229004 18.693586587905884 15.633713722229004 18.693586587905884 C 15.633713722229004 18.693586587905884 15.633713722229004 15.130313396453857 15.633713722229004 15.130313396453857 Z M 22.903406143188477 15.130313396453857 C 22.903406143188477 15.130313396453857 28.366231441497803 15.130313396453857 28.366231441497803 15.130313396453857 C 28.366231441497803 15.130313396453857 28.366231441497803 18.693586587905884 28.366231441497803 18.693586587905884 C 28.366231441497803 18.693586587905884 22.903406143188477 18.693586587905884 22.903406143188477 18.693586587905884 C 22.903406143188477 18.693586587905884 22.903406143188477 15.130313396453857 22.903406143188477 15.130313396453857 Z M 30.172264099121094 15.130313396453857 C 30.172264099121094 15.130313396453857 35.18447828292847 15.130313396453857 35.18447828292847 15.130313396453857 C 35.18447828292847 15.130313396453857 35.18447828292847 18.693586587905884 35.18447828292847 18.693586587905884 C 35.18447828292847 18.693586587905884 30.172264099121094 18.693586587905884 30.172264099121094 18.693586587905884 C 30.172264099121094 18.693586587905884 30.172264099121094 15.130313396453857 30.172264099121094 15.130313396453857 Z M 35.9227294921875 7.073558330535889 C 35.9227294921875 7.073558330535889 8.076381206512451 7.073558330535889 8.076381206512451 7.073558330535889 C 8.076381206512451 7.073558330535889 5.594098091125488 4.239796876907349 5.594098091125488 4.239796876907349 C 5.594098091125488 4.239796876907349 38.405930519104004 4.239796876907349 38.405930519104004 4.239796876907349 C 38.405930519104004 4.239796876907349 35.9227294921875 7.073558330535889 35.9227294921875 7.073558330535889 Z M 8.81546688079834 24.05645442008972 C 8.81546688079834 24.05645442008972 8.81546688079834 20.491917848587036 8.81546688079834 20.491917848587036 C 8.81546688079834 20.491917848587036 13.827764511108398 20.491917848587036 13.827764511108398 20.491917848587036 C 13.827764511108398 20.491917848587036 13.827764511108398 24.05645442008972 13.827764511108398 24.05645442008972 C 13.827764511108398 24.05645442008972 8.81546688079834 24.05645442008972 8.81546688079834 24.05645442008972 Z M 15.633713722229004 24.05645442008972 C 15.633713722229004 24.05645442008972 15.633713722229004 20.491917848587036 15.633713722229004 20.491917848587036 C 15.633713722229004 20.491917848587036 21.09745693206787 20.491917848587036 21.09745693206787 20.491917848587036 C 21.09745693206787 20.491917848587036 21.09745693206787 24.05645442008972 21.09745693206787 24.05645442008972 C 21.09745693206787 24.05645442008972 15.633713722229004 24.05645442008972 15.633713722229004 24.05645442008972 Z M 22.903406143188477 24.05645442008972 C 22.903406143188477 24.05645442008972 22.903406143188477 20.491917848587036 22.903406143188477 20.491917848587036 C 22.903406143188477 20.491917848587036 28.366231441497803 20.491917848587036 28.366231441497803 20.491917848587036 C 28.366231441497803 20.491917848587036 28.366231441497803 24.05645442008972 28.366231441497803 24.05645442008972 C 28.366231441497803 24.05645442008972 22.903406143188477 24.05645442008972 22.903406143188477 24.05645442008972 Z M 30.172264099121094 24.05645442008972 C 30.172264099121094 24.05645442008972 30.172264099121094 20.491917848587036 30.172264099121094 20.491917848587036 C 30.172264099121094 20.491917848587036 35.18447828292847 20.491917848587036 35.18447828292847 20.491917848587036 C 35.18447828292847 20.491917848587036 35.18447828292847 24.05645442008972 35.18447828292847 24.05645442008972 C 35.18447828292847 24.05645442008972 30.172264099121094 24.05645442008972 30.172264099121094 24.05645442008972 Z M 30.172264099121094 24.05645442008972 C 30.172264099121094 24.05645442008972 30.172264099121094 24.05645442008972 30.172264099121094 24.05645442008972"/></g></svg>