<svg version="1.1" xmlns="http://www.w3.org/2000/svg" xmlns:xlink="http://www.w3.org/1999/xlink" width="39" height="39"><defs/><g><path fill="rgb(252,69,71)" stroke="none" paint-order="stroke fill markers" fill-rule="evenodd" d=" M 28.214966297149658 34.43975853919983 C 28.214966297149658 34.43975853919983 21.032976150512695 34.43975853919983 21.032976150512695 34.43975853919983 C 21.032976150512695 34.43975853919983 21.032976150512695 31.68143892288208 21.032976150512695 31.68143892288208 C 24.003421306610107 31.36035990715027 26.86763906478882 29.92353582382202 29.38705587387085 27.480339288711548 C 34.76568365097046 22.259511470794678 37.97753953933716 13.217861413955688 37.97753953933716 3.290942907333374 C 37.97753953933716 2.5755088329315186 37.400089740753174 1.9948954582214355 36.6897931098938 1.9948954582214355 C 36.6897931098938 1.9948954582214355 30.613051891326904 1.9948954582214355 30.613051891326904 1.9948954582214355 C 29.9035062789917 1.9948954582214355 29.325305461883545 2.5755088329315186 29.325305461883545 3.290942907333374 C 29.325305461883545 3.290942907333374 29.325305461883545 5.0351293087005615 29.325305461883545 5.0351293087005615 C 29.325305461883545 5.0351293087005615 10.161482334136963 5.0351293087005615 10.161482334136963 5.0351293087005615 C 10.161482334136963 5.0351293087005615 10.161482334136963 3.290942907333374 10.161482334136963 3.290942907333374 C 10.161482334136963 2.5755088329315186 9.583364963531494 1.9948954582214355 8.870898723602295 1.9948954582214355 C 8.870898723602295 1.9948954582214355 2.796994686126709 1.9948954582214355 2.796994686126709 1.9948954582214355 C 2.0845284461975098 1.9948954582214355 1.506411075592041 2.5755088329315186 1.506411075592041 3.290942907333374 C 1.506411075592041 13.217861413955688 4.718934535980225 22.259511470794678 10.096811294555664 27.47745156288147 C 12.613474369049072 29.920648097991943 15.480529308319092 31.35747218132019 18.451725482940674 31.68143892288208 C 18.451725482940674 31.68143892288208 18.451725482940674 34.43975853919983 18.451725482940674 34.43975853919983 C 18.451725482940674 34.43975853919983 11.266814708709717 34.43975853919983 11.266814708709717 34.43975853919983 C 10.557185649871826 34.43975853919983 9.979068279266357 35.02037191390991 9.979068279266357 35.73598647117615 C 9.979068279266357 36.45214247703552 10.557185649871826 37.02914619445801 11.266814708709717 37.02914619445801 C 11.266814708709717 37.02914619445801 28.214966297149658 37.02914619445801 28.214966297149658 37.02914619445801 C 28.927432537078857 37.02914619445801 29.504882335662842 36.45214247703552 29.504882335662842 35.73598647117615 C 29.504882335662842 35.02037191390991 28.930269718170166 34.43975853919983 28.214966297149658 34.43975853919983 C 28.214966297149658 34.43975853919983 28.214966297149658 34.43975853919983 28.214966297149658 34.43975853919983 Z M 31.903635501861572 4.584283113479614 C 31.903635501861572 4.584283113479614 35.3797664642334 4.584283113479614 35.3797664642334 4.584283113479614 C 35.11907958984375 12.972585201263428 32.32737684249878 20.754825830459595 27.94493341445923 25.265995025634766 C 27.973639011383057 25.21473789215088 27.995919227600098 25.158427238464355 28.021036624908447 25.110960245132446 C 28.290401935577393 24.592252492904663 28.543161392211914 24.05712080001831 28.78665828704834 23.49076557159424 C 28.831886291503906 23.392041444778442 28.871439933776855 23.28808331489563 28.915916919708252 23.186471462249756 C 29.15148639678955 22.62300395965576 29.376291275024414 22.04239058494568 29.586743354797363 21.436509609222412 C 29.600428581237793 21.39463758468628 29.617618560791016 21.34915590286255 29.631303787231445 21.304576635360718 C 29.850350856781006 20.673428058624268 30.046366691589355 20.019177675247192 30.234538555145264 19.349044799804688 C 30.27117156982422 19.216209411621094 30.307804584503174 19.08355450630188 30.343770027160645 18.951621532440186 C 30.520426273345947 18.289429903030396 30.683480739593506 17.612799644470215 30.832098960876465 16.917399168014526 C 30.857216358184814 16.79051971435547 30.88241720199585 16.66345977783203 30.908202171325684 16.536580324172974 C 31.05406665802002 15.826741218566895 31.188332080841064 15.105531692504883 31.300400733947754 14.366815328598022 C 31.306158542633057 14.33866000175476 31.311832904815674 14.313392400741577 31.314753532409668 14.285417556762695 C 31.429659366607666 13.532984495162964 31.522284984588623 12.761239767074585 31.60631561279297 11.980651378631592 C 31.623589038848877 11.834279775619507 31.63719081878662 11.69007396697998 31.651543617248535 11.543702363967896 C 31.72414207458496 10.78332805633545 31.78297185897827 10.013749122619629 31.82252550125122 9.233160734176636 C 31.834041118621826 9.089676856994629 31.836127281188965 8.943305253982544 31.84480571746826 8.796753168106079 C 31.878518104553223 7.97952675819397 31.903635501861572 7.159412622451782 31.903635501861572 6.328469514846802 C 31.903635501861572 6.328469514846802 31.903635501861572 4.584283113479614 31.903635501861572 4.584283113479614 Z M 4.107021331787109 4.584283113479614 C 4.107021331787109 4.584283113479614 7.580231666564941 4.584283113479614 7.580231666564941 4.584283113479614 C 7.580231666564941 4.584283113479614 7.580231666564941 6.328469514846802 7.580231666564941 6.328469514846802 C 7.580231666564941 7.159412622451782 7.605432510375977 7.982414484024048 7.642065525054932 8.796753168106079 C 7.647739887237549 8.943305253982544 7.653497695922852 9.089676856994629 7.6614251136779785 9.236048460006714 C 7.700895309448242 10.013749122619629 7.759808540344238 10.78332805633545 7.833074569702148 11.543702363967896 C 7.846676349639893 11.69007396697998 7.863949775695801 11.837167501449585 7.8776350021362305 11.980651378631592 C 7.961665630340576 12.761239767074585 8.054291248321533 13.532984495162964 8.169197082519531 14.288305282592773 C 8.174954891204834 14.313392400741577 8.180712699890137 14.33866000175476 8.183549880981445 14.366815328598022 C 8.298455715179443 15.105531692504883 8.43063497543335 15.826741218566895 8.576416015625 16.53946805000305 C 8.60153341293335 16.66345977783203 8.6266508102417 16.79051971435547 8.651851654052734 16.91451144218445 C 8.803390502929688 17.612799644470215 8.96636152267456 18.292317628860474 9.143101215362549 18.954509258270264 C 9.179734230041504 19.086442232131958 9.21277904510498 19.213321685791016 9.24932861328125 19.34326934814453 C 9.437500476837158 20.013402223587036 9.636436939239502 20.675413370132446 9.852646827697754 21.306742429733276 C 9.866999626159668 21.34915590286255 9.883522033691406 21.385974407196045 9.89787483215332 21.42568063735962 C 10.10832691192627 22.036615133285522 10.335301399230957 22.62589168548584 10.573708057403564 23.19513463973999 C 10.613261699676514 23.29024910926819 10.651980876922607 23.389153718948364 10.694371700286865 23.484990119934082 C 10.94145679473877 24.051345348358154 11.19930648803711 24.59514021873474 11.46858835220337 25.116735696792603 C 11.49086856842041 25.16420269012451 11.513899803161621 25.21473789215088 11.53901720046997 25.263107299804688 C 7.153653144836426 20.754825830459595 4.367708206176758 12.972585201263428 4.107021331787109 4.584283113479614 C 4.107021331787109 4.584283113479614 4.107021331787109 4.584283113479614 4.107021331787109 4.584283113479614 Z M 4.107021331787109 4.584283113479614 C 4.107021331787109 4.584283113479614 4.107021331787109 4.584283113479614 4.107021331787109 4.584283113479614"/></g></svg>