<svg version="1.1" xmlns="http://www.w3.org/2000/svg" xmlns:xlink="http://www.w3.org/1999/xlink" width="54" height="35"><defs/><g><path fill="rgb(252,69,71)" stroke="none" paint-order="stroke fill markers" fill-rule="evenodd" d=" M 13.384915351867676 13.039655447006226 C 13.384915351867676 13.039655447006226 16.33641815185547 13.039655447006226 16.33641815185547 13.039655447006226 C 16.33641815185547 13.039655447006226 16.33641815185547 15.99000883102417 16.33641815185547 15.99000883102417 C 16.33641815185547 15.99000883102417 13.384915351867676 15.99000883102417 13.384915351867676 15.99000883102417 C 13.384915351867676 15.99000883102417 13.384915351867676 13.039655447006226 13.384915351867676 13.039655447006226 Z M 40.408063888549805 14.514741897583008 C 40.408063888549805 15.329622030258179 39.7475848197937 15.98982834815979 38.932562828063965 15.98982834815979 C 38.11754083633423 15.98982834815979 37.4566445350647 15.329622030258179 37.4566445350647 14.514741897583008 C 37.4566445350647 13.699861764907837 38.11754083633423 13.039113998413086 38.932562828063965 13.039113998413086 C 39.7475848197937 13.039113998413086 40.408063888549805 13.699861764907837 40.408063888549805 14.514741897583008 C 40.408063888549805 14.514741897583008 40.408063888549805 14.514741897583008 40.408063888549805 14.514741897583008 Z M 40.408063888549805 14.514741897583008 C 40.408063888549805 14.514741897583008 40.408063888549805 14.514741897583008 40.408063888549805 14.514741897583008 M 51.87227821350098 22.404369831085205 C 51.87227821350098 22.404369831085205 47.30049467086792 9.222803831100464 47.30049467086792 9.222803831100464 C 46.54321765899658 6.768236875534058 44.78366470336914 4.722283124923706 42.46835803985596 3.6063575744628906 C 40.144957065582275 2.4864614009857178 37.43603324890137 2.3866543769836426 35.03686285018921 3.3336479663848877 C 34.666276931762695 3.4798390865325928 34.30645561218262 3.649132013320923 33.95940160751343 3.840082883834839 C 33.25102424621582 3.209656238555908 32.46437406539917 2.681924343109131 31.623066425323486 2.26717472076416 C 30.197049140930176 1.563652515411377 28.61448621749878 1.1853604316711426 26.989699363708496 1.1853604316711426 C 25.445688724517822 1.1853604316711426 23.939813137054443 1.5291802883148193 22.569955348968506 2.167367696762085 C 21.65145969390869 2.5945706367492676 20.793713092803955 3.152984619140625 20.028258323669434 3.833405017852783 C 19.68537664413452 3.6449809074401855 19.329143524169922 3.478214740753174 18.963147163391113 3.3336479663848877 C 16.563392639160156 2.3866543769836426 13.854969501495361 2.485919952392578 11.53156852722168 3.6063575744628906 C 9.216345310211182 4.722283124923706 7.456708908081055 6.768236875534058 6.699431896209717 9.222803831100464 C 6.699431896209717 9.222803831100464 2.1277318000793457 22.404369831085205 2.1277318000793457 22.404369831085205 C 1.511479377746582 24.18104314804077 1.5553722381591797 26.12159490585327 2.250314712524414 27.869390964508057 C 2.9452571868896484 29.616645574569702 4.2466888427734375 31.057440280914307 5.915368556976318 31.926284790039062 C 7.063342094421387 32.523683071136475 8.30510950088501 32.81299710273743 9.535027503967285 32.81299710273743 C 11.708725452423096 32.81299710273743 13.847208976745605 31.909319400787354 15.374697208404541 30.20664405822754 C 15.374697208404541 30.20664405822754 23.243285179138184 21.434274435043335 23.243285179138184 21.434274435043335 C 23.859537601470947 20.74771761894226 24.64819049835205 20.250848293304443 25.513697624206543 19.983372688293457 C 25.513697624206543 19.983372688293457 25.513697624206543 16.410894870758057 25.513697624206543 16.410894870758057 C 25.513697624206543 16.410894870758057 28.46511697769165 16.410894870758057 28.46511697769165 16.410894870758057 C 28.46511697769165 16.410894870758057 28.46511697769165 19.9775972366333 28.46511697769165 19.9775972366333 C 27.994645595550537 19.834113359451294 27.501476764678955 19.757949590682983 26.99996328353882 19.757949590682983 C 26.49135684967041 19.757949590682983 25.990928173065186 19.836098670959473 25.513697624206543 19.983372688293457 C 25.513697624206543 19.983372688293457 25.513697624206543 22.95303773880005 25.513697624206543 22.95303773880005 C 25.513697624206543 22.95303773880005 28.46511697769165 22.95303773880005 28.46511697769165 22.95303773880005 C 28.46511697769165 22.95303773880005 28.46511697769165 19.97705578804016 28.46511697769165 19.97705578804016 C 29.339385986328125 20.24272656440735 30.135215282440186 20.741942167282104 30.756641387939453 21.434274435043335 C 30.756641387939453 21.434274435043335 38.625229358673096 30.2061026096344 38.625229358673096 30.2061026096344 C 41.017056465148926 32.87273693084717 44.90716552734375 33.57986879348755 48.08455801010132 31.925743341445923 C 49.7532377243042 31.057440280914307 51.054752826690674 29.616645574569702 51.74969530105591 27.868849515914917 C 52.44463777542114 26.12159490585327 52.48853063583374 24.18104314804077 51.87227821350098 22.404369831085205 C 51.87227821350098 22.404369831085205 51.87227821350098 22.404369831085205 51.87227821350098 22.404369831085205 Z M 19.28833818435669 15.98982834815979 C 19.28833818435669 15.98982834815979 16.336918830871582 15.98982834815979 16.336918830871582 15.98982834815979 C 16.336918830871582 15.98982834815979 16.336918830871582 18.940542697906494 16.336918830871582 18.940542697906494 C 16.336918830871582 18.940542697906494 13.385416030883789 18.940542697906494 13.385416030883789 18.940542697906494 C 13.385416030883789 18.940542697906494 13.385416030883789 15.98982834815979 13.385416030883789 15.98982834815979 C 13.385416030883789 15.98982834815979 10.433996677398682 15.98982834815979 10.433996677398682 15.98982834815979 C 10.433996677398682 15.98982834815979 10.433996677398682 13.039655447006226 10.433996677398682 13.039655447006226 C 10.433996677398682 13.039655447006226 13.384915351867676 13.039655447006226 13.384915351867676 13.039655447006226 C 13.384915351867676 13.039655447006226 13.384915351867676 10.088941097259521 13.384915351867676 10.088941097259521 C 13.384915351867676 10.088941097259521 16.33641815185547 10.088941097259521 16.33641815185547 10.088941097259521 C 16.33641815185547 10.088941097259521 16.33641815185547 13.039655447006226 16.33641815185547 13.039655447006226 C 16.33641815185547 13.039655447006226 19.287837505340576 13.039655447006226 19.287837505340576 13.039655447006226 C 19.287837505340576 13.039655447006226 19.287837505340576 15.98982834815979 19.287837505340576 15.98982834815979 C 19.287837505340576 15.98982834815979 19.28833818435669 15.98982834815979 19.28833818435669 15.98982834815979 Z M 30.450392723083496 11.503746271133423 C 30.450392723083496 11.503746271133423 23.529006004333496 11.503746271133423 23.529006004333496 11.503746271133423 C 23.529006004333496 11.503746271133423 23.529006004333496 8.553031921386719 23.529006004333496 8.553031921386719 C 23.529006004333496 8.553031921386719 30.450392723083496 8.553031921386719 30.450392723083496 8.553031921386719 C 30.450392723083496 8.553031921386719 30.450392723083496 11.503746271133423 30.450392723083496 11.503746271133423 Z M 38.932562828063965 18.940542697906494 C 36.49133539199829 18.940542697906494 34.50505828857422 16.955411672592163 34.50505828857422 14.514741897583008 C 34.50505828857422 12.074072122573853 36.49133539199829 10.088399648666382 38.932562828063965 10.088399648666382 C 41.3734564781189 10.088399648666382 43.3595666885376 12.074072122573853 43.3595666885376 14.514741897583008 C 43.3595666885376 16.955411672592163 41.3734564781189 18.940542697906494 38.932562828063965 18.940542697906494 C 38.932562828063965 18.940542697906494 38.932562828063965 18.940542697906494 38.932562828063965 18.940542697906494 Z M 38.932562828063965 18.940542697906494 C 38.932562828063965 18.940542697906494 38.932562828063965 18.940542697906494 38.932562828063965 18.940542697906494"/></g></svg>