<svg version="1.1" xmlns="http://www.w3.org/2000/svg" xmlns:xlink="http://www.w3.org/1999/xlink" width="38" height="38"><defs/><g><path fill="rgb(252,69,71)" stroke="none" paint-order="stroke fill markers" fill-rule="evenodd" d=" M 23.332579135894775 12.171683311462402 C 23.384315967559814 9.378891468048096 24.709863662719727 7.160757064819336 27.165777683258057 5.756600379943848 C 27.731211185455322 5.433175086975098 28.294975757598877 5.190245151519775 28.8034987449646 5.009220838546753 C 26.301355361938477 3.271712303161621 23.313803672790527 2.1871907711029053 20.08600950241089 1.999849557876587 C 20.08600950241089 1.999849557876587 20.08600950241089 12.246944665908813 20.08600950241089 12.246944665908813 C 21.172149181365967 12.26806116104126 22.256453037261963 12.322025537490845 23.331077098846436 12.40757441520691 C 23.330743312835693 12.32888388633728 23.331077098846436 12.250373840332031 23.332579135894775 12.171683311462402 C 23.332579135894775 12.171683311462402 23.332579135894775 12.171683311462402 23.332579135894775 12.171683311462402 Z M 23.332579135894775 12.171683311462402 C 23.332579135894775 12.171683311462402 23.332579135894775 12.171683311462402 23.332579135894775 12.171683311462402 M 28.107304573059082 7.525151968002319 C 26.30519390106201 8.574840307235718 25.37242889404297 10.150816679000854 25.334126949310303 12.208862781524658 C 25.331707000732422 12.341517686843872 25.33270835876465 12.473270177841187 25.336880683898926 12.60520315170288 C 29.063434600830078 13.042874097824097 32.616920471191406 13.860461473464966 35.67615270614624 14.996240139007568 C 34.87089395523071 11.704052209854126 33.11459541320801 8.78600525856018 30.71542501449585 6.550544500350952 C 30.20481586456299 6.652336835861206 29.14679765701294 6.919451475143433 28.107304573059082 7.525151968002319 C 28.107304573059082 7.525151968002319 28.107304573059082 7.525151968002319 28.107304573059082 7.525151968002319 Z M 28.107304573059082 7.525151968002319 C 28.107304573059082 7.525151968002319 28.107304573059082 7.525151968002319 28.107304573059082 7.525151968002319 M 18.084044456481934 12.246222734451294 C 18.084044456481934 12.246222734451294 18.084044456481934 1.999849557876587 18.084044456481934 1.999849557876587 C 14.855499267578125 2.186288356781006 11.86711311340332 3.2711708545684814 9.364385604858398 5.0083184242248535 C 9.873576164245605 5.189523220062256 10.438008308410645 5.432814121246338 11.004526615142822 5.756600379943848 C 13.460440635681152 7.160757064819336 14.785654544830322 9.378891468048096 14.837391376495361 12.171683311462402 C 14.838809967041016 12.25290060043335 14.839227199554443 12.333395957946777 14.838809967041016 12.414071798324585 C 15.903420448303223 12.323108434677124 16.985721588134766 12.26715874671936 18.084044456481934 12.246222734451294 C 18.084044456481934 12.246222734451294 18.084044456481934 12.246222734451294 18.084044456481934 12.246222734451294 Z M 18.084044456481934 12.246222734451294 C 18.084044456481934 12.246222734451294 18.084044456481934 12.246222734451294 18.084044456481934 12.246222734451294 M 12.832005023956299 12.630470752716064 C 12.837262153625488 12.490235567092896 12.83818006515503 12.349819898605347 12.835843563079834 12.208862781524658 C 12.797291278839111 10.130783081054688 11.847002506256104 8.545060634613037 10.011179447174072 7.495733261108398 C 8.988292217254639 6.910788297653198 7.951970100402832 6.650351524353027 7.4517083168029785 6.550183534622192 C 4.952151775360107 8.87895393371582 3.150041103363037 11.948967456817627 2.39443302154541 15.41080927848816 C 5.626399517059326 14.043651580810547 9.116883277893066 13.11452579498291 12.832005023956299 12.630470752716064 C 12.832005023956299 12.630470752716064 12.832005023956299 12.630470752716064 12.832005023956299 12.630470752716064 Z M 12.832005023956299 12.630470752716064 C 12.832005023956299 12.630470752716064 12.832005023956299 12.630470752716064 12.832005023956299 12.630470752716064 M 30.49712896347046 26.800721883773804 C 29.900736808776855 25.431217908859253 29.002935886383057 24.224689960479736 28.05281400680542 22.947051763534546 C 27.657945156097412 22.41643214225769 27.249557971954346 21.867764234542847 26.866204738616943 21.30754542350769 C 25.485665798187256 19.29191279411316 24.086685180664062 16.96584963798523 23.554964065551758 14.434757947921753 C 22.408742904663086 14.335311889648438 21.24891996383667 14.273045301437378 20.08600950241089 14.250123977661133 C 20.08600950241089 14.250123977661133 20.08600950241089 36.16651916503906 20.08600950241089 36.16651916503906 C 24.564332962036133 35.90662384033203 28.579611778259277 33.91914653778076 31.477959156036377 30.85960102081299 C 31.312150955200195 29.278932094573975 30.9830379486084 27.91664743423462 30.49712896347046 26.800721883773804 C 30.49712896347046 26.800721883773804 30.49712896347046 26.800721883773804 30.49712896347046 26.800721883773804 Z M 30.49712896347046 26.800721883773804 C 30.49712896347046 26.800721883773804 30.49712896347046 26.800721883773804 30.49712896347046 26.800721883773804 M 25.664658546447754 14.661624908447266 C 26.203055381774902 16.59477686882019 27.326996326446533 18.436965465545654 28.517444133758545 20.175737380981445 C 28.878934383392334 20.703469276428223 29.27513837814331 21.236254692077637 29.658408164978027 21.751172304153442 C 30.634398460388184 23.06310224533081 31.64376735687256 24.41997241973877 32.332284450531006 26.000641345977783 C 32.68885135650635 26.81931161880493 32.97181844711304 27.739413261413574 33.17926645278931 28.753365993499756 C 35.06373882293701 26.002265691757202 36.1665678024292 22.671634912490845 36.1665678024292 19.083274602890015 C 36.1665678024292 18.482627630233765 36.13560914993286 17.88938045501709 36.07552766799927 17.30461597442627 C 33.08121681213379 16.0572988986969 29.483671188354492 15.152177333831787 25.664658546447754 14.661624908447266 C 25.664658546447754 14.661624908447266 25.664658546447754 14.661624908447266 25.664658546447754 14.661624908447266 Z M 25.664658546447754 14.661624908447266 C 25.664658546447754 14.661624908447266 25.664658546447754 14.661624908447266 25.664658546447754 14.661624908447266 M 5.837686061859131 26.000641345977783 C 6.526203155517578 24.41997241973877 7.535488605499268 23.06310224533081 8.511478900909424 21.751172304153442 C 8.894832134246826 21.236254692077637 9.291036128997803 20.703108310699463 9.652526378631592 20.175737380981445 C 10.835630893707275 18.448155403137207 11.952645778656006 16.618420124053955 12.495214939117432 14.698262929916382 C 8.748884201049805 15.24043345451355 5.254478454589844 16.262146949768066 2.050633430480957 17.754198789596558 C 2.016921043395996 18.192591667175293 1.9998979568481445 18.636038064956665 1.9998979568481445 19.083274602890015 C 1.9998979568481445 22.673259258270264 3.1037282943725586 26.00533390045166 4.98995304107666 28.757156133651733 C 5.197818279266357 27.741940021514893 5.480701923370361 26.82039451599121 5.837686061859131 26.000641345977783 C 5.837686061859131 26.000641345977783 5.837686061859131 26.000641345977783 5.837686061859131 26.000641345977783 Z M 5.837686061859131 26.000641345977783 C 5.837686061859131 26.000641345977783 5.837686061859131 26.000641345977783 5.837686061859131 26.000641345977783 M 18.084044456481934 14.249041080474854 C 16.906113624572754 14.272323369979858 15.748710632324219 14.337658166885376 14.61292028427124 14.445406436920166 C 14.079446792602539 16.971986055374146 12.682218551635742 19.294620037078857 11.304099559783936 21.30754542350769 C 10.920412540435791 21.867764234542847 10.512025356292725 22.41643214225769 10.117156505584717 22.947051763534546 C 9.166951179504395 24.224689960479736 8.269233703613281 25.431217908859253 7.672841548919678 26.800360918045044 C 7.186598777770996 27.91736936569214 6.857485771179199 29.280917406082153 6.691594123840332 30.862669229507446 C 9.590609073638916 33.92167329788208 13.605971336364746 35.90770673751831 18.084044456481934 36.16651916503906 C 18.084044456481934 36.16651916503906 18.084044456481934 14.249041080474854 18.084044456481934 14.249041080474854 Z M 18.084044456481934 14.249041080474854 C 18.084044456481934 14.249041080474854 18.084044456481934 14.249041080474854 18.084044456481934 14.249041080474854"/></g></svg>