<svg version="1.1" xmlns="http://www.w3.org/2000/svg" xmlns:xlink="http://www.w3.org/1999/xlink" width="38" height="37"><defs/><g><path fill="rgb(252,69,71)" stroke="none" paint-order="stroke fill markers" fill-rule="evenodd" d=" M 19.339786052703857 35.66663718223572 C 28.917108058929443 35.66663718223572 36.67913484573364 27.911108016967773 36.67913484573364 18.342087030410767 C 36.67913484573364 8.769997835159302 28.917108058929443 1.0133857727050781 19.339786052703857 1.0133857727050781 C 9.762464046478271 1.0133857727050781 1.9966821670532227 8.769997835159302 1.9966821670532227 18.342087030410767 C 1.9966821670532227 27.911108016967773 9.762464046478271 35.66663718223572 19.339786052703857 35.66663718223572 C 19.339786052703857 35.66663718223572 19.339786052703857 35.66663718223572 19.339786052703857 35.66663718223572 Z M 24.416921615600586 9.059492349624634 C 29.547963619232178 9.059492349624634 33.70718765258789 13.215290784835815 33.70718765258789 18.342087030410767 C 33.70718765258789 23.46581506729126 29.547963619232178 27.62432074546814 24.416921615600586 27.62432074546814 C 19.284961700439453 27.62432074546814 15.126655578613281 23.46581506729126 15.126655578613281 18.342087030410767 C 15.126655578613281 13.215290784835815 19.284961700439453 9.059492349624634 24.416921615600586 9.059492349624634 C 24.416921615600586 9.059492349624634 24.416921615600586 9.059492349624634 24.416921615600586 9.059492349624634 Z M 24.416921615600586 9.059492349624634 C 24.416921615600586 9.059492349624634 24.416921615600586 9.059492349624634 24.416921615600586 9.059492349624634 M 21.14673662185669 20.36927056312561 C 21.14673662185669 21.69563913345337 22.29412603378296 23.09546422958374 24.77924633026123 23.09546422958374 C 27.055333137512207 23.09546422958374 28.550193786621094 21.891463041305542 28.550193786621094 20.114970207214355 C 28.550193786621094 18.864584922790527 27.704713821411133 18.052412033081055 26.739488124847412 17.68946099281311 C 26.739488124847412 17.68946099281311 26.739488124847412 17.64578413963318 26.739488124847412 17.64578413963318 C 27.719650745391846 17.16389489173889 28.173015594482422 16.33331274986267 28.173015594482422 15.492262601852417 C 28.173015594482422 14.30306100845337 27.221642017364502 12.975609540939331 24.93253755569458 12.975609540939331 C 22.9722957611084 12.975609540939331 21.48119020462036 14.074750185012817 21.48119020462036 15.731582880020142 C 21.48119020462036 16.590320348739624 21.949408531188965 17.388596057891846 22.896109104156494 17.885284900665283 C 22.896109104156494 17.885284900665283 22.896109104156494 17.913981676101685 22.896109104156494 17.913981676101685 C 21.82582426071167 18.38197374343872 21.14673662185669 19.194146633148193 21.14673662185669 20.36927056312561 C 21.14673662185669 20.36927056312561 21.14673662185669 20.36927056312561 21.14673662185669 20.36927056312561 Z M 24.82664394378662 14.527942657470703 C 25.668285369873047 14.527942657470703 26.016674518585205 15.129311561584473 26.016674518585205 15.745660543441772 C 26.016674518585205 16.35172200202942 25.549374103546143 16.82982110977173 25.02265977859497 16.98214864730835 C 24.238512992858887 16.743550300598145 23.65138339996338 16.31833267211914 23.65138339996338 15.655599594116211 C 23.65138339996338 15.053147792816162 24.042497158050537 14.527942657470703 24.82664394378662 14.527942657470703 C 24.82664394378662 14.527942657470703 24.82664394378662 14.527942657470703 24.82664394378662 14.527942657470703 Z M 24.674270629882812 18.682658195495605 C 25.56330966949463 18.925768613815308 26.212690353393555 19.437257051467896 26.212690353393555 20.296896934509277 C 26.212690353393555 20.989409685134888 25.668285369873047 21.514614820480347 24.870286464691162 21.514614820480347 C 24.01003646850586 21.514614820480347 23.469303131103516 20.850979328155518 23.484156608581543 20.144569396972656 C 23.484156608581543 19.437257051467896 23.923585891723633 18.89328169822693 24.674270629882812 18.682658195495605 C 24.674270629882812 18.682658195495605 24.674270629882812 18.682658195495605 24.674270629882812 18.682658195495605 Z M 24.674270629882812 18.682658195495605 C 24.674270629882812 18.682658195495605 24.674270629882812 18.682658195495605 24.674270629882812 18.682658195495605"/></g></svg>