<svg version="1.1" xmlns="http://www.w3.org/2000/svg" xmlns:xlink="http://www.w3.org/1999/xlink" width="42" height="43"><defs/><g><path fill="rgb(252,69,71)" stroke="none" paint-order="stroke fill markers" fill-rule="evenodd" d=" M 28.498366355895996 16.1944797039032 C 28.64030885696411 16.06958556175232 28.72108507156372 15.889283180236816 28.71958303451538 15.700498104095459 C 28.71958303451538 15.700498104095459 28.71958303451538 6.270268440246582 28.71958303451538 6.270268440246582 C 28.718414783477783 6.031670093536377 28.586318969726562 5.812924861907959 28.375616550445557 5.700484037399292 C 28.16533136367798 5.587682247161865 27.909818172454834 5.599413633346558 27.71013069152832 5.7304441928863525 C 22.93699073791504 8.702816486358643 18.163850784301758 1.6527948379516602 13.384368896484375 3.8314034938812256 C 13.614597797393799 4.156994581222534 13.739684104919434 4.545032739639282 13.742354393005371 4.9435389041900635 C 13.742354393005371 4.9435389041900635 13.742354393005371 14.74411940574646 13.742354393005371 14.74411940574646 C 18.658938884735107 12.955534219741821 23.58178186416626 20.467411518096924 28.498366355895996 16.1944797039032 C 28.498366355895996 16.1944797039032 28.498366355895996 16.1944797039032 28.498366355895996 16.1944797039032 Z M 28.498366355895996 16.1944797039032 C 28.498366355895996 16.1944797039032 28.498366355895996 16.1944797039032 28.498366355895996 16.1944797039032 M 37.00273323059082 34.76165437698364 C 35.36159086227417 34.05289816856384 30.757763862609863 32.81081509590149 31.096556663513184 30.59322214126587 C 31.337383270263672 29.012733697891235 34.352055072784424 29.539743661880493 34.40454292297363 27.99156165122986 C 34.436920166015625 26.944761037826538 32.94556427001953 26.74298119544983 32.05994653701782 26.691182613372803 C 26.11471700668335 26.03422498703003 19.60313606262207 25.852117776870728 13.742354393005371 27.068030834197998 C 13.742354393005371 27.068030834197998 13.742354393005371 31.80931568145752 13.742354393005371 31.80931568145752 C 16.184165954589844 33.109875202178955 14.999309062957764 35.92558836936951 11.78903865814209 35.92558836936951 C 8.578434467315674 35.92558836936951 7.406344890594482 33.077388286590576 9.835222244262695 31.80931568145752 C 9.835222244262695 31.80931568145752 9.835222244262695 28.121509313583374 9.835222244262695 28.121509313583374 C 6.911590576171875 29.0973801612854 2.177420139312744 31.11337375640869 2.021124839782715 34.202518463134766 C 1.8453030586242676 37.78582525253296 6.983104228973389 39.26199460029602 10.082641124725342 39.87996792793274 C 10.082641124725342 39.87996792793274 10.291007041931152 39.92508864402771 10.291007041931152 39.92508864402771 C 15.133324146270752 40.97026491165161 20.09522008895874 41.35288858413696 25.040343284606934 41.06339406967163 C 28.91184377670288 40.841400146484375 32.756808280944824 40.288581132888794 36.53368043899536 39.41161489486694 C 38.00559329986572 38.98892402648926 40.545204162597656 38.21483302116394 39.30785942077637 36.38112711906433 C 38.70045232772827 35.64277172088623 37.903621673583984 35.082913875579834 37.00273323059082 34.76165437698364 C 37.00273323059082 34.76165437698364 37.00273323059082 34.76165437698364 37.00273323059082 34.76165437698364 Z M 28.06844997406006 37.87678861618042 C 26.62983226776123 37.87678861618042 25.463667392730713 36.712132692337036 25.463667392730713 35.27530860900879 C 25.463667392730713 33.83902597427368 26.62983226776123 32.67418956756592 28.06844997406006 32.67418956756592 C 29.507151126861572 32.67418956756592 30.67331600189209 33.83902597427368 30.67331600189209 35.27530860900879 C 30.67331600189209 36.712132692337036 29.507151126861572 37.87678861618042 28.06844997406006 37.87678861618042 C 28.06844997406006 37.87678861618042 28.06844997406006 37.87678861618042 28.06844997406006 37.87678861618042 Z M 28.06844997406006 37.87678861618042 C 28.06844997406006 37.87678861618042 28.06844997406006 37.87678861618042 28.06844997406006 37.87678861618042 M 11.13748836517334 4.9435389041900635 C 11.13748836517334 4.9435389041900635 11.13748836517334 33.324649810791016 11.13748836517334 33.324649810791016 C 11.13748836517334 33.6836302280426 11.42905044555664 33.97474908828735 11.78903865814209 33.97474908828735 C 12.148609638214111 33.97474908828735 12.440171718597412 33.6836302280426 12.440171718597412 33.324649810791016 C 12.440171718597412 2.829904079437256 12.5245361328125 4.7940990924835205 12.283792972564697 4.520848035812378 C 12.106802940368652 4.314014673233032 11.819162845611572 4.239114284515381 11.563148975372314 4.33350682258606 C 11.307468891143799 4.427899360656738 11.13748836517334 4.67155122756958 11.13748836517334 4.9435389041900635 C 11.13748836517334 4.9435389041900635 11.13748836517334 4.9435389041900635 11.13748836517334 4.9435389041900635 Z M 11.13748836517334 4.9435389041900635 C 11.13748836517334 4.9435389041900635 11.13748836517334 4.9435389041900635 11.13748836517334 4.9435389041900635"/></g></svg>