<?xml version="1.0" encoding="utf-8"?>
<!-- Generator: Adobe Illustrator 25.0.1, SVG Export Plug-In . SVG Version: 6.00 Build 0)  -->
<svg version="1.1" id="Layer_1" xmlns="http://www.w3.org/2000/svg" xmlns:xlink="http://www.w3.org/1999/xlink" x="0px" y="0px"
	 viewBox="0 0 873.9 416.64" style="enable-background:new 0 0 873.9 416.64;" xml:space="preserve">
<style type="text/css">
	.st0{fill:#FC4547;}
	.st1{fill:#003C69;}
</style>
<g>
	<path class="st0" d="M328.28,205.44c-2.94-4-6.22-7.11-10.33-9.92c-4.04-2.76-8.64-4.72-13.21-6.4
		c-12.17-4.47-25.44-6.05-38.28-7.04c-8.52-0.66-17.07-0.89-25.61-0.89c-3.03,0-6.12,0.58-8.25,2.91c-0.18,0.19-0.34,0.41-0.5,0.61
		c-1.85,2.26-3.69,4.53-5.54,6.8c-3.46,4.26-6.92,8.52-10.37,12.78c-4.78,5.89-9.55,11.78-14.33,17.67
		c-5.76,7.1-11.51,14.2-17.27,21.3c-6.38,7.88-12.76,15.75-19.15,23.63c-6.74,8.32-13.48,16.63-20.22,24.95
		c-6.74,8.32-13.49,16.65-20.23,24.97c-6.4,7.9-12.79,15.79-19.19,23.69c-5.78,7.14-11.56,14.27-17.34,21.41
		c-4.81,5.94-9.62,11.87-14.42,17.81c-3.5,4.32-7,8.64-10.5,12.96c-1.9,2.34-3.79,4.69-5.69,7.03c-0.24,0.3-0.48,0.59-0.72,0.89
		c-1.62,2-2.75,3.97-2.75,6.64c0,2.3,1.02,5.05,2.75,6.64c1.79,1.64,4.14,2.86,6.64,2.75c2.34-0.1,5.1-0.85,6.64-2.75
		c1.56-1.93,3.13-3.86,4.69-5.79c4.25-5.25,8.51-10.51,12.76-15.76c6.29-7.77,12.58-15.54,18.88-23.31
		c7.68-9.48,15.36-18.96,23.04-28.44c8.38-10.35,16.77-20.7,25.15-31.05c8.49-10.49,16.99-20.97,25.48-31.45
		c7.92-9.78,15.85-19.56,23.77-29.34c6.68-8.24,13.36-16.49,20.05-24.73c4.85-5.98,9.69-11.95,14.55-17.93
		c1.65-2.03,3.32-4.06,4.97-6.1c11.38,0.07,22.77,0.59,34.05,2.05c8.05,1.16,16.12,2.85,23.69,5.88c2.63,1.18,5.18,2.56,7.54,4.23
		c1.24,1.03,2.4,2.15,3.44,3.38c0.6,0.88,1.14,1.81,1.61,2.76c0.39,1.1,0.69,2.23,0.91,3.37c0.13,1.68,0.1,3.37-0.05,5.05
		c-0.6,3.53-1.68,6.96-3.01,10.28c-4.27,9.7-10.29,18.61-16.52,27.13c-1.82,2.48-3.67,4.94-5.55,7.38
		c-8.51,10.95-17.44,21.57-25.97,32.51c-2.74,3.52-5.47,7.05-8.1,10.65c-1.35,1.85-1.53,5.13-0.95,7.24
		c0.6,2.18,2.28,4.54,4.32,5.61c2.18,1.15,4.82,1.73,7.24,0.95c2.46-0.8,4.09-2.24,5.61-4.32c1.48-2.02,2.99-4.01,4.51-6
		c5.6-7.21,11.38-14.26,17.1-21.37c6.44-7.98,12.83-16.01,18.84-24.32c5.01-6.93,9.8-14.09,13.67-21.73
		c3.89-7.68,6.84-15.62,7.6-24.23C334.4,219.26,332.61,211.34,328.28,205.44z"/>
	<path class="st0" d="M237.52,104.01c-2.11,2.62-4.22,5.23-6.33,7.85c-5.7,7.07-11.41,14.14-17.11,21.22
		c-8.42,10.45-16.85,20.89-25.27,31.34c-10.27,12.74-20.54,25.47-30.82,38.21c-11.25,13.95-22.5,27.9-33.74,41.84
		c-11.35,14.08-22.71,28.15-34.06,42.23c-10.58,13.13-21.17,26.25-31.76,39.38c-8.95,11.09-17.89,22.18-26.84,33.28
		c-6.43,7.98-12.87,15.96-19.3,23.93c-3.05,3.78-6.1,7.56-9.15,11.35c-0.13,0.16-0.26,0.33-0.39,0.49C1.13,397.13,0,399.08,0,401.76
		c0,2.3,1.02,5.05,2.75,6.64c1.79,1.64,4.14,2.86,6.64,2.75c2.33-0.1,5.11-0.85,6.64-2.75c2.11-2.62,4.22-5.23,6.33-7.85
		c5.7-7.07,11.41-14.14,17.11-21.22c8.42-10.45,16.85-20.89,25.27-31.34c10.27-12.74,20.54-25.47,30.82-38.21
		c11.25-13.95,22.5-27.9,33.75-41.84c11.35-14.08,22.71-28.15,34.06-42.23c10.58-13.13,21.17-26.25,31.76-39.38
		c8.95-11.09,17.89-22.18,26.84-33.28c6.43-7.98,12.87-15.96,19.3-23.93c3.05-3.78,6.1-7.56,9.15-11.35
		c0.13-0.16,0.26-0.33,0.39-0.49c1.62-2.01,2.75-3.96,2.75-6.64c0-2.3-1.02-5.05-2.75-6.64c-1.79-1.64-4.14-2.86-6.64-2.75
		C241.83,101.36,239.05,102.11,237.52,104.01L237.52,104.01z"/>
	<path class="st0" d="M261,229.61c-1.23,1.49-2.46,2.97-3.69,4.46c-3.34,4.05-6.69,8.09-10.03,12.14
		c-4.92,5.96-9.84,11.91-14.77,17.87c-6.03,7.3-12.06,14.6-18.09,21.89c-6.61,8-13.21,15.99-19.82,23.99
		c-6.67,8.07-13.34,16.14-20.01,24.22c-6.22,7.53-12.44,15.05-18.66,22.58c-5.23,6.33-10.47,12.67-15.7,19
		c-3.78,4.58-7.57,9.16-11.35,13.74c-1.79,2.17-3.59,4.34-5.38,6.51c-0.08,0.09-0.15,0.19-0.23,0.28c-1.63,1.97-2.75,3.99-2.75,6.64
		c0,2.3,1.02,5.05,2.75,6.64c1.79,1.64,4.14,2.86,6.64,2.75c2.35-0.11,5.08-0.86,6.64-2.75c1.23-1.49,2.46-2.97,3.69-4.46
		c3.34-4.05,6.69-8.09,10.03-12.14c4.92-5.96,9.84-11.91,14.77-17.87c6.03-7.3,12.06-14.6,18.09-21.89
		c6.61-8,13.21-15.99,19.82-23.99c6.67-8.07,13.34-16.14,20.01-24.22c6.22-7.53,12.44-15.05,18.66-22.58
		c5.23-6.33,10.47-12.67,15.7-19c3.78-4.58,7.57-9.16,11.35-13.74c1.79-2.17,3.59-4.34,5.38-6.51c0.08-0.09,0.15-0.19,0.23-0.28
		c1.63-1.97,2.75-3.99,2.75-6.64c0-2.3-1.02-5.05-2.75-6.64c-1.79-1.64-4.14-2.86-6.64-2.75C265.28,226.96,262.56,227.72,261,229.61
		L261,229.61z"/>
	<path class="st0" d="M279.75,82.88c-6.09-4.83-12.53-9.24-19.16-13.3c-5.57-3.41-11.31-6.57-17.25-9.3
		c-6.72-3.09-13.67-5.89-20.92-7.44c-7.32-1.56-14.89-2.11-22.22-0.32c-6.3,1.53-11.58,5.29-16.48,9.36
		c-10.32,8.59-18.72,19.6-26.67,30.34c-4.99,6.74-9.93,13.62-14.3,20.79c-0.07,0.12-0.14,0.23-0.22,0.34
		c-2.61,4.17-1.02,10.53,3.37,12.85c4.61,2.44,10.06,1.08,12.85-3.37c3.75-5.99,7.78-11.82,11.91-17.56
		c2.13-2.95,4.3-5.87,6.52-8.75c-0.49,0.63-0.98,1.27-1.47,1.9c6.82-8.81,14.1-17.7,22.93-24.58c-0.63,0.49-1.27,0.98-1.9,1.47
		c2.31-1.78,4.75-3.42,7.44-4.57c-0.75,0.32-1.5,0.63-2.24,0.95c1.97-0.82,4.07-1.31,6.18-1.6c-0.83,0.11-1.66,0.22-2.5,0.34
		c3.32-0.42,6.66-0.32,9.97,0.11c-0.83-0.11-1.66-0.22-2.5-0.34c6.71,0.91,13.19,3.05,19.41,5.66c-0.75-0.32-1.5-0.63-2.24-0.95
		c12.08,5.11,23.44,12.02,34.06,19.69c1.24,0.89,2.46,1.8,3.67,2.73c-0.63-0.49-1.27-0.98-1.9-1.47c0.13,0.1,0.25,0.19,0.38,0.29
		c2.03,1.61,3.94,2.75,6.64,2.75c2.3,0,5.05-1.02,6.64-2.75c1.64-1.79,2.86-4.14,2.75-6.64C282.4,87.2,281.66,84.39,279.75,82.88
		L279.75,82.88z"/>
	<path class="st0" d="M206.89,70.28c2.45-0.22,4.91-0.16,7.36,0.09c5.94,0.93,11.7,2.79,17.26,5.07
		c11.62,5.05,22.57,11.74,32.82,19.16c1.24,0.89,2.46,1.8,3.67,2.73c-0.4-0.31-0.8-0.62-1.2-0.93c1.91,1.47,3.76,2.5,6.32,2.5
		c2.3,0,5.05-1.02,6.64-2.75c1.64-1.79,2.86-4.14,2.75-6.64c-0.1-2.32-0.84-5.13-2.75-6.64c-6.09-4.83-12.53-9.24-19.16-13.3
		c-5.57-3.41-11.31-6.57-17.25-9.3c-6.72-3.09-13.67-5.89-20.92-7.44c-7.32-1.56-14.89-2.11-22.22-0.32
		c-6.3,1.53-11.58,5.29-16.48,9.36c-10.32,8.59-18.72,19.6-26.67,30.34c-4.99,6.74-9.93,13.62-14.3,20.79
		c-0.07,0.12-0.14,0.23-0.22,0.34c-2.61,4.17-1.02,10.53,3.37,12.85c4.61,2.44,10.06,1.08,12.85-3.37
		c3.75-5.99,7.78-11.83,11.91-17.56c2.01-2.78,4.06-5.53,6.15-8.25c6.3-8.07,13.03-16.12,21.04-22.54c1.62-1.19,3.31-2.29,5.11-3.18
		C204.24,70.85,205.55,70.52,206.89,70.28z"/>
	<path class="st0" d="M440.03,83.57c-0.15-0.6-0.36-1.19-0.63-1.75c-0.78-1.68-2.04-3.11-3.68-3.99c-1.44-0.76-2.96-1.15-4.46-1.2
		c-0.6-0.02-1.19,0.02-1.78,0.12c-2.05,0.33-3.96,1.32-5.44,2.93c-0.42,0.46-0.81,0.97-1.16,1.52c-0.94,1.5-1.89,2.99-2.86,4.47
		c-1.94,2.96-3.94,5.88-5.97,8.77c-1.02,1.45-2.04,2.89-3.08,4.32c-0.66,0.91-1.33,1.82-2,2.73c-0.35,0.47-0.69,0.95-1.04,1.42
		c-1.02,1.37-2.05,2.73-3.1,4.09c0,0-0.01,0.01-0.01,0.01c0,0,0,0,0,0c-0.3,0.39-0.61,0.78-0.92,1.17
		c-0.11,0.14-0.22,0.27-0.32,0.41c-0.29,0.37-0.58,0.73-0.87,1.1c-0.12,0.15-0.24,0.3-0.36,0.45c-0.29,0.37-0.59,0.74-0.89,1.1
		c-0.12,0.14-0.23,0.29-0.35,0.43c-0.31,0.38-0.62,0.76-0.93,1.14c-0.1,0.12-0.2,0.24-0.3,0.36c-0.33,0.4-0.67,0.8-1,1.2
		c-0.07,0.09-0.15,0.18-0.22,0.27c-0.36,0.43-0.73,0.86-1.09,1.29c-0.04,0.04-0.08,0.09-0.11,0.13c-4.19,4.86-8.68,9.48-13.65,13.47
		c-0.39,0.29-0.79,0.57-1.19,0.84c-0.02,0.02-0.05,0.03-0.07,0.05c-0.81,0.55-1.64,1.08-2.49,1.56c-0.03,0.02-0.06,0.03-0.09,0.05
		c-0.42,0.24-0.85,0.46-1.29,0.68c-0.25,0.09-0.51,0.17-0.77,0.25c-0.09,0.03-0.19,0.06-0.28,0.08c-0.41,0.12-0.83,0.23-1.25,0.33
		c-0.13,0.03-0.27,0.06-0.4,0.09c-0.24,0.05-0.48,0.1-0.71,0.14l0,0h0c-0.56,0.05-1.12,0.08-1.68,0.1c-0.08,0-0.15,0.01-0.23,0.01
		c-1.12,0.03-2.24,0-3.37-0.07c-0.1-0.01-0.2-0.01-0.29-0.02c-0.56-0.04-1.11-0.09-1.67-0.15c-0.72-0.12-1.45-0.25-2.16-0.39
		c-0.11-0.02-0.21-0.04-0.32-0.06c-0.69-0.14-1.37-0.29-2.05-0.45c-0.12-0.03-0.24-0.06-0.36-0.09c-0.69-0.17-1.38-0.34-2.06-0.53
		c-0.07-0.02-0.15-0.04-0.22-0.06c-0.71-0.2-1.41-0.4-2.11-0.61c-0.02-0.01-0.04-0.01-0.06-0.02c-0.71-0.22-1.42-0.45-2.13-0.68
		c-0.08-0.03-0.17-0.06-0.25-0.08c-0.69-0.23-1.38-0.48-2.07-0.72c-0.08-0.03-0.15-0.06-0.23-0.08c-1.46-0.53-2.91-1.1-4.34-1.68
		c-8.95-3.86-17.58-8.52-25.9-13.68c0,0-0.01-0.01-0.01-0.01c-0.82-0.51-1.64-1.03-2.46-1.55c-0.05-0.03-0.11-0.07-0.16-0.11
		c-0.77-0.49-1.53-0.98-2.29-1.48c-0.13-0.08-0.25-0.17-0.37-0.25c-0.69-0.45-1.38-0.91-2.07-1.36c-0.23-0.15-0.46-0.31-0.69-0.46
		c-0.58-0.39-1.16-0.78-1.74-1.18c-0.37-0.25-0.73-0.51-1.1-0.76c-0.44-0.3-0.88-0.6-1.32-0.91c-0.8-0.56-1.61-1.13-2.41-1.69
		c-0.72-0.51-1.44-1.03-2.16-1.55c0,0,0,0,0,0c-1.23-1.26-2.87-2.04-4.62-2.36c-0.01,0-0.01,0-0.02,0c-0.24-0.04-0.49-0.08-0.73-0.1
		c-0.02,0-0.04,0-0.06,0c-0.23-0.02-0.46-0.04-0.69-0.05c-0.04,0-0.08,0-0.12,0c-0.21,0-0.43,0-0.64,0c-0.06,0-0.12,0.01-0.18,0.01
		c-0.19,0.01-0.38,0.02-0.58,0.05c-0.08,0.01-0.16,0.03-0.24,0.04c-0.17,0.02-0.34,0.05-0.51,0.08c-0.1,0.02-0.2,0.05-0.3,0.07
		c-0.14,0.03-0.29,0.06-0.43,0.1c-0.12,0.03-0.24,0.08-0.36,0.12c-0.12,0.04-0.24,0.07-0.36,0.12c-0.15,0.05-0.29,0.12-0.43,0.18
		c-0.09,0.04-0.18,0.07-0.26,0.11c-0.23,0.11-0.45,0.22-0.66,0.35c-0.68,0.41-1.32,0.94-1.92,1.55c-0.6,0.61-1.16,1.31-1.69,2.03
		c-0.13,0.18-0.26,0.36-0.39,0.55c-0.26,0.37-0.51,0.74-0.76,1.11c-0.12,0.19-0.24,0.37-0.36,0.56c-0.36,0.55-0.71,1.1-1.05,1.61
		c-0.11,0.17-0.23,0.34-0.34,0.5c-2.63,3.82-5.26,7.65-7.88,11.48c-5.97,8.7-11.94,17.41-17.9,26.11c-1.38,2.02-2.77,4.04-4.15,6.07
		c-0.49,0.72-0.84,1.61-1.04,2.56c-0.34,1.58-0.28,3.31,0.09,4.68c0.15,0.54,0.37,1.1,0.64,1.64c0.27,0.54,0.6,1.08,0.98,1.58
		c0.75,1,1.68,1.85,2.69,2.39c0.89,0.47,1.8,0.8,2.7,1c0.6,0.13,1.2,0.2,1.79,0.21c1.18,0.03,2.34-0.18,3.43-0.59
		c1.91-0.72,3.62-2.09,4.92-3.99c1.83-2.68,3.67-5.36,5.51-8.04c1.84-2.68,3.67-5.36,5.51-8.04c5.42-7.91,10.84-15.81,16.26-23.71
		c0,0,0,0,0,0c1.69,1.16,3.39,2.31,5.1,3.43c0.16,0.1,0.32,0.21,0.48,0.31c1.68,1.1,3.37,2.18,5.07,3.24c0,0,0,0,0,0
		c5.4,3.36,10.94,6.59,16.64,9.54c4.07,2.1,8.21,4.06,12.43,5.81c3.38,1.4,6.8,2.67,10.27,3.77c4.93,1.57,10.16,2.81,15.38,3.25
		c1.31,0.11,2.61,0.17,3.92,0.17c0.43,0,0.87-0.01,1.3-0.02c0.42-0.01,0.84-0.03,1.26-0.06c2.51-0.15,4.95-0.54,7.32-1.19
		c0.79-0.21,1.57-0.46,2.34-0.73c0.39-0.14,0.77-0.28,1.15-0.43c1.14-0.45,2.26-0.96,3.36-1.54c1.1-0.58,2.17-1.23,3.21-1.94
		c0.77-0.52,1.52-1.06,2.27-1.62c3.73-2.76,7.2-5.87,10.47-9.18c0.66-0.66,1.3-1.34,1.94-2.01c5.76-6.11,10.94-12.84,15.93-19.44
		c5.69-7.52,11.22-15.26,16.18-23.29c0.08-0.14,0.17-0.27,0.26-0.41c0.82-1.3,1.22-2.82,1.26-4.36
		C440.37,85.4,440.26,84.47,440.03,83.57z"/>
	<path class="st0" d="M382.75,9.4c0.04,13.63-0.41,27.3-2.2,40.82c0.11-0.83,0.22-1.66,0.34-2.5c-1.22,9.11-3.01,18.32-6.6,26.83
		c0.32-0.75,0.63-1.5,0.95-2.24c-1.42,3.34-3.14,6.56-5.36,9.45c0.49-0.63,0.98-1.27,1.47-1.9c-1.36,1.74-2.89,3.34-4.63,4.7
		c0.63-0.49,1.27-0.98,1.9-1.47c-1.46,1.13-3.05,2.07-4.75,2.79c0.75-0.32,1.5-0.63,2.24-0.95c-1.71,0.71-3.49,1.18-5.32,1.44
		c0.83-0.11,1.66-0.22,2.5-0.34c-2.44,0.33-4.91,0.26-7.35-0.07c0.83,0.11,1.66,0.22,2.5,0.34c-4.15-0.58-8.15-1.88-12-3.5
		c0.75,0.32,1.5,0.63,2.24,0.95c-6.87-2.91-13.29-6.8-19.48-10.95c-4.09-2.74-10.58-0.93-12.85,3.37c-2.5,4.73-1,9.92,3.37,12.85
		c7.4,4.96,15.1,9.34,23.42,12.58c7.46,2.91,15.32,4.09,23.24,2.79c8.42-1.38,15.11-6.94,20.06-13.59
		c2.81-3.78,4.73-8.09,6.47-12.45c1.92-4.82,3.27-9.86,4.31-14.93c3.18-15.4,4.1-31.28,4.29-46.97c0.03-2.35,0.04-4.71,0.03-7.06
		c-0.01-4.91-4.31-9.62-9.39-9.39C387.07,0.24,382.74,4.13,382.75,9.4L382.75,9.4z"/>
</g>
<g>
	<path class="st1" d="M529.78,223.53c1.99,2.08,4.25,3.51,6.76,4.29c2.51,0.78,6.2,1.17,11.05,1.17c0.52,0,0.87,0.15,1.04,0.46
		c0.17,0.3,0.26,0.58,0.26,0.84v13c0,0.26-0.09,0.54-0.26,0.85c-0.17,0.3-0.52,0.46-1.04,0.46c-5.55-0.09-9.99-0.87-13.33-2.34
		c-3.34-1.47-6.52-4.12-9.55-7.93c-2.43,3.21-5.53,5.72-9.29,7.54c-3.77,1.82-7.91,2.73-12.42,2.73c-5.89,0-10.59-0.74-14.1-2.21
		c-3.51-1.47-6.48-3.64-8.91-6.5c-4.85,5.81-11.18,8.71-18.98,8.71h-13.65v18.14c0,2.76-2.24,5-5,5h-33.87
		c-11.01,0-19.07-2.86-24.18-8.58c-5.11-5.72-7.67-12.91-7.67-21.58v-16.25c0-5.03,4.07-9.1,9.1-9.1l0,0c5.03,0,9.1,4.07,9.1,9.1
		v13.39c0,11.7,6.37,17.55,19.11,17.55h15.21v-63.05c0-5.03,4.07-9.1,9.1-9.1l0,0c5.03,0,9.1,4.07,9.1,9.1v39.78h8.19
		c3.47,0,6.44-1.36,8.9-4.09c2.47-2.73,3.71-6.35,3.71-10.86v-24.83c0-5.03,4.07-9.1,9.1-9.1l0,0c5.03,0,9.1,4.07,9.1,9.1v27.82
		c0,3.9,1.45,6.87,4.35,8.9c2.9,2.04,6.13,3.06,9.68,3.06c3.46,0,6.33-1.24,8.58-3.71c2.25-2.47,3.38-6.22,3.38-11.25v-30.29
		c0-5.03,4.07-9.1,9.1-9.1l0,0c5.03,0,9.1,4.07,9.1,9.1v33.15C530.55,218.55,530.3,220.76,529.78,223.53z"/>
	<path class="st1" d="M547.59,244.59c-0.52,0-0.87-0.15-1.04-0.46c-0.17-0.3-0.26-0.59-0.26-0.85v-13c0-0.26,0.09-0.54,0.26-0.84
		c0.17-0.3,0.52-0.46,1.04-0.46h22.1v-39.84c0-4.99,4.05-9.04,9.04-9.04l0,0c4.99,0,9.04,4.05,9.04,9.04v50.45c0,2.76-2.24,5-5,5
		H547.59z M556.04,160.87L556.04,160.87c0-4.52,3.67-8.19,8.19-8.19h2.34c4.52,0,8.19,3.67,8.19,8.19v0c0,4.52-3.67,8.19-8.19,8.19
		h-2.34C559.7,169.06,556.04,165.4,556.04,160.87z M582.04,160.87L582.04,160.87c0-4.52,3.67-8.19,8.19-8.19h2.34
		c4.52,0,8.19,3.67,8.19,8.19v0c0,4.52-3.67,8.19-8.19,8.19h-2.34C585.7,169.06,582.04,165.4,582.04,160.87z"/>
	<path class="st1" d="M618.63,265.59c-3.51,3.57-7.71,6.16-12.61,7.76c-4.19,1.38-8.75-0.59-10.55-4.61l-0.25-0.56
		c-2.04-4.56,0.27-9.79,4.95-11.55c0.29-0.11,0.57-0.22,0.84-0.34c2.42-1.04,4.25-2.75,5.46-5.13c1.21-2.38,1.82-5.7,1.82-9.95
		v-52.06c0-4.99,4.05-9.04,9.04-9.04h0.13c4.99,0,9.04,4.05,9.04,9.04v51.54C626.5,251.96,623.87,260.26,618.63,265.59z"/>
	<path class="st1" d="M710.34,229.51c0.17,0.35,0.26,0.61,0.26,0.78v13c0,0.26-0.09,0.54-0.26,0.85c-0.17,0.3-0.52,0.46-1.04,0.46
		h-8.19c-0.78,9.79-3.96,16.9-9.55,21.32c-4.2,3.32-9.69,5.86-16.47,7.62c-4.05,1.05-8.26-1.05-9.97-4.87v0
		c-2.14-4.77,0.4-10.38,5.42-11.83c1.07-0.31,2.06-0.64,2.95-1c3.16-1.26,5.57-3.12,7.21-5.59c1.65-2.47,2.47-5.83,2.47-10.07
		v-44.85c-3.04-0.61-5.81-0.91-8.32-0.91c-10.58,0-15.86,5.94-15.86,17.81c0,5.2,1.37,9.29,4.09,12.29
		c2.73,2.99,6.65,4.49,11.77,4.49h5.72l-7.02,15.6h-1.82c-5.98,0-11.38-1.35-16.18-4.03c-4.81-2.68-8.58-6.5-11.31-11.44
		c-2.73-4.94-4.09-10.66-4.09-17.16c0-6.24,1.47-11.89,4.42-16.96c2.95-5.07,7.08-9.03,12.42-11.9c5.33-2.86,11.5-4.29,18.52-4.29
		c5.98,0,14.6,0.87,25.87,2.6v47.58h7.93C709.82,228.99,710.17,229.17,710.34,229.51z"/>
	<path class="st1" d="M741.93,224.18c2.6,3.21,6.8,4.81,12.61,4.81c0.52,0,0.87,0.15,1.04,0.46c0.17,0.3,0.26,0.58,0.26,0.84v13
		c0,0.26-0.09,0.54-0.26,0.85c-0.17,0.3-0.52,0.46-1.04,0.46c-2.86,0-5.98-0.7-9.36-2.08c-3.38-1.39-6.42-3.47-9.1-6.24
		c-4.68,5.55-10.92,8.32-18.72,8.32h-8.06c-0.52,0-0.87-0.15-1.04-0.46c-0.17-0.3-0.26-0.59-0.26-0.85v-13
		c0-0.26,0.09-0.54,0.26-0.84c0.17-0.3,0.52-0.46,1.04-0.46h2.6c3.47,0,6.44-1.36,8.91-4.09s3.71-6.35,3.71-10.86v-24.83
		c0-5.03,4.07-9.1,9.1-9.1l0,0c5.03,0,9.1,4.07,9.1,9.1v27.69C742.71,219.42,742.45,221.84,741.93,224.18z M723.47,264.22
		L723.47,264.22c0-4.52,3.67-8.19,8.19-8.19H734c4.52,0,8.19,3.67,8.19,8.19l0,0c0,4.52-3.67,8.19-8.19,8.19h-2.34
		C727.14,272.41,723.47,268.75,723.47,264.22z"/>
	<path class="st1" d="M839.3,244.59c-9.27,0-16.34-2.86-21.19-8.58c-4.77,5.72-11.05,8.58-18.85,8.58h-44.72
		c-0.52,0-0.87-0.15-1.04-0.46c-0.17-0.3-0.26-0.59-0.26-0.85v-13c0-0.26,0.09-0.54,0.26-0.84c0.17-0.3,0.52-0.46,1.04-0.46h13
		v-39.78c0-5.03,4.07-9.1,9.1-9.1l0,0c5.03,0,9.1,4.07,9.1,9.1v39.78h8.06c3.47,0,6.44-1.36,8.91-4.09s3.71-6.35,3.71-10.86v-24.83
		c0-5.03,4.07-9.1,9.1-9.1l0,0c5.03,0,9.1,4.07,9.1,9.1v28.47c0.26,3.73,2.21,6.54,5.85,8.45c3.64,1.91,7.67,2.86,12.09,2.86h8.06
		v-45.24c0-5.03,4.07-9.1,9.1-9.1l0,0c5.03,0,9.1,4.07,9.1,9.1v55.84c0,2.76-2.24,5-5,5H839.3z"/>
	<path class="st1" d="M380.77,371.7L380.77,371.7c1.86-4.12,6.71-5.84,10.81-3.96c6.18,2.84,13.49,4.62,20.56,4.62
		c11.52,0,16.2-3.84,16.2-9c0-15.72-48.84-4.92-48.84-36.12c0-14.28,11.52-26.16,35.4-26.16c7.5,0,15.12,1.27,21.7,3.77
		c4.24,1.61,6.36,6.36,4.66,10.56l0,0c-1.64,4.04-6.22,6.07-10.29,4.48c-5.5-2.15-10.99-3.21-16.19-3.21
		c-11.52,0-15.96,4.32-15.96,9.6c0,15.48,48.84,4.8,48.84,35.64c0,14.04-11.64,26.04-35.64,26.04c-9.82,0-19.71-2.15-27.21-5.59
		C380.77,380.5,378.94,375.76,380.77,371.7z"/>
	<path class="st1" d="M533.82,333c0,18.72-14.04,30.36-36.48,30.36h-16.92v13.44c0,5.37-4.35,9.72-9.72,9.72l0,0
		c-5.37,0-9.72-4.35-9.72-9.72v-69.28c0-2.76,2.24-5,5-5h31.36C519.78,302.52,533.82,314.16,533.82,333z M514.14,333
		c0-9.24-6-14.64-17.88-14.64h-15.84v29.16h15.84C508.14,347.52,514.14,342.12,514.14,333z"/>
	<path class="st1" d="M543.54,344.52c0-24.96,19.44-43.44,45.96-43.44c26.4,0,45.96,18.36,45.96,43.44s-19.56,43.44-45.96,43.44
		C562.98,387.95,543.54,369.47,543.54,344.52z M615.78,344.52c0-15.96-11.28-26.88-26.28-26.88c-15,0-26.28,10.92-26.28,26.88
		c0,15.96,11.28,26.88,26.28,26.88C604.5,371.39,615.78,360.47,615.78,344.52z"/>
	<path class="st1" d="M708.1,386.51c-2.81,0-5.43-1.38-7.03-3.68l-13.65-19.71h-0.96h-16.92v13.68c0,5.37-4.35,9.72-9.72,9.72l0,0
		c-5.37,0-9.72-4.35-9.72-9.72v-69.28c0-2.76,2.24-5,5-5h31.36c22.44,0,36.48,11.64,36.48,30.48c0,12.6-6.36,21.84-17.28,26.52
		l9.46,13.55C719.07,378.74,715.02,386.51,708.1,386.51L708.1,386.51z M685.38,318.36h-15.84v29.28h15.84
		c11.88,0,17.88-5.52,17.88-14.64C703.26,323.76,697.26,318.36,685.38,318.36z"/>
	<path class="st1" d="M754.5,318.36h-18.96c-4.37,0-7.92-3.55-7.92-7.92l0,0c0-4.37,3.55-7.92,7.92-7.92h57.36
		c4.37,0,7.92,3.55,7.92,7.92l0,0c0,4.37-3.55,7.92-7.92,7.92h-18.96v58.44c0,5.37-4.35,9.72-9.72,9.72l0,0
		c-5.37,0-9.72-4.35-9.72-9.72V318.36z"/>
	<path class="st1" d="M807.01,371.7L807.01,371.7c1.86-4.12,6.71-5.84,10.81-3.96c6.18,2.84,13.49,4.61,20.56,4.61
		c11.52,0,16.2-3.84,16.2-9c0-15.72-48.84-4.92-48.84-36.12c0-14.28,11.52-26.16,35.4-26.16c7.5,0,15.12,1.27,21.7,3.77
		c4.24,1.61,6.36,6.36,4.66,10.56l0,0c-1.64,4.04-6.22,6.07-10.29,4.48c-5.5-2.15-10.99-3.21-16.19-3.21
		c-11.52,0-15.96,4.32-15.96,9.6c0,15.48,48.84,4.8,48.84,35.64c0,14.04-11.64,26.04-35.64,26.04c-9.82,0-19.71-2.15-27.21-5.59
		C807,380.5,805.18,375.76,807.01,371.7z"/>
</g>
</svg>
