<svg version="1.1" xmlns="http://www.w3.org/2000/svg" xmlns:xlink="http://www.w3.org/1999/xlink" width="38" height="38"><defs/><g><path fill="rgb(255,255,255)" stroke="none" paint-order="stroke fill markers" fill-rule="evenodd" d=" M 18.99997568130493 1.7197957038879395 C 9.456532955169678 1.7197957038879395 1.7199573516845703 9.456374168395996 1.7199573516845703 18.99976658821106 C 1.7199573516845703 28.543159008026123 9.456532955169678 36.27973747253418 18.99997568130493 36.27973747253418 C 28.5433349609375 36.27973747253418 36.27991056442261 28.543159008026123 36.27991056442261 18.99976658821106 C 36.26931285858154 9.461066722869873 28.538745403289795 1.7304441928863525 18.99997568130493 1.7197957038879395 C 18.99997568130493 1.7197957038879395 18.99997568130493 1.7197957038879395 18.99997568130493 1.7197957038879395 Z M 19.616645336151123 6.701664209365845 C 19.616645336151123 6.701664209365845 25.623959064483643 4.300339698791504 25.623959064483643 4.300339698791504 C 26.30571699142456 4.608784914016724 26.965194702148438 4.964336156845093 27.597719192504883 5.364286184310913 C 27.597719192504883 5.364286184310913 27.61349058151245 5.374212741851807 27.61349058151245 5.374212741851807 C 28.23508358001709 5.767845869064331 28.829055786132812 6.203531503677368 29.391568660736084 6.67802095413208 C 29.391568660736084 6.67802095413208 29.4399676322937 6.720073461532593 29.4399676322937 6.720073461532593 C 29.69222640991211 6.935209035873413 29.93747568130493 7.157383441925049 30.175965785980225 7.38695764541626 C 30.206089973449707 7.4165568351745605 30.237549304962158 7.444712162017822 30.26767349243164 7.474852800369263 C 30.51767921447754 7.718865633010864 30.759840965270996 7.970458745956421 30.99415874481201 8.229632139205933 C 31.01351833343506 8.251470565795898 31.03204345703125 8.274752855300903 31.051486492156982 8.29659128189087 C 31.25709867477417 8.5268874168396 31.45478343963623 8.765485763549805 31.646626949310303 9.007874250411987 C 31.69277286529541 9.06544828414917 31.738918781280518 9.123202800750732 31.78364610671997 9.180776834487915 C 31.99167823791504 9.45041823387146 32.193034648895264 9.724391222000122 32.383209228515625 10.007388353347778 C 32.383209228515625 10.007388353347778 31.185668468475342 15.098088026046753 31.185668468475342 15.098088026046753 C 31.185668468475342 15.098088026046753 25.293761253356934 17.062463521957397 25.293761253356934 17.062463521957397 C 25.293761253356934 17.062463521957397 19.618147373199463 12.520973205566406 19.618147373199463 12.520973205566406 C 19.618147373199463 12.520973205566406 19.616645336151123 6.701664209365845 19.616645336151123 6.701664209365845 Z M 6.215721130371094 9.184206008911133 C 6.260365009307861 9.12645149230957 6.3060102462768555 9.068877458572388 6.352156162261963 9.011483907699585 C 6.54166316986084 8.771080732345581 6.7376790046691895 8.536633491516113 6.940203666687012 8.307600736618042 C 6.9621500968933105 8.283416032791138 6.982427597045898 8.258689880371094 7.004123687744141 8.23450517654419 C 7.236939430236816 7.974790334701538 7.478016376495361 7.723377704620361 7.727688312530518 7.4797258377075195 C 7.756393909454346 7.451570510864258 7.785099506378174 7.422151803970337 7.815140247344971 7.396342754364014 C 8.051711082458496 7.168212413787842 8.294957637786865 6.947301387786865 8.54504680633545 6.733429193496704 C 8.54504680633545 6.733429193496704 8.602708339691162 6.6850597858428955 8.602708339691162 6.6850597858428955 C 9.160130977630615 6.213999509811401 9.748512268066406 5.7810211181640625 10.363930225372314 5.389012336730957 C 10.363930225372314 5.389012336730957 10.386377334594727 5.374754190444946 10.386377334594727 5.374754190444946 C 11.015313625335693 4.975706577301025 11.670535564422607 4.620696783065796 12.348371505737305 4.311890602111816 C 12.348371505737305 4.311890602111816 18.383222579956055 6.701664209365845 18.383222579956055 6.701664209365845 C 18.383222579956055 6.701664209365845 18.383222579956055 12.519348859786987 18.383222579956055 12.519348859786987 C 18.383222579956055 12.519348859786987 12.707274913787842 17.0597562789917 12.707274913787842 17.0597562789917 C 12.707274913787842 17.0597562789917 6.815367698669434 15.099170923233032 6.815367698669434 15.099170923233032 C 6.815367698669434 15.099170923233032 5.61782693862915 10.008651733398438 5.61782693862915 10.008651733398438 C 5.809587001800537 9.726196050643921 6.008690357208252 9.452403545379639 6.215721130371094 9.184206008911133 C 6.215721130371094 9.184206008911133 6.215721130371094 9.184206008911133 6.215721130371094 9.184206008911133 Z M 5.521613121032715 27.83873438835144 C 5.35230016708374 27.580463409423828 5.190247058868408 27.31749987602234 5.0358710289001465 27.049482822418213 C 5.0358710289001465 27.049482822418213 4.9984869956970215 26.984689474105835 4.9984869956970215 26.984689474105835 C 4.84486198425293 26.718296766281128 4.699498176574707 26.447031021118164 4.562479019165039 26.171614170074463 C 4.562479019165039 26.171614170074463 4.557722568511963 26.16295099258423 4.557722568511963 26.16295099258423 C 4.269164562225342 25.583600997924805 4.0158209800720215 24.987285614013672 3.799193859100342 24.377253532409668 C 3.799193859100342 24.377253532409668 3.799193859100342 24.37165856361389 3.799193859100342 24.37165856361389 C 3.696805000305176 24.0836079120636 3.603428363800049 23.78869891166687 3.5171446800231934 23.491985082626343 C 3.5171446800231934 23.491985082626343 3.4858522415161133 23.382612466812134 3.4858522415161133 23.382612466812134 C 3.406911849975586 23.103766441345215 3.3351478576660156 22.822032690048218 3.2710609436035156 22.537230730056763 C 3.2653865814208984 22.50925588607788 3.2583770751953125 22.482724905014038 3.2527027130126953 22.455291509628296 C 3.1112608909606934 21.811689615249634 3.009706497192383 21.160326957702637 2.948373317718506 20.504271745681763 C 2.948373317718506 20.504271745681763 6.464892387390137 16.284582376480103 6.464892387390137 16.284582376480103 C 6.464892387390137 16.284582376480103 12.315994262695312 18.234880208969116 12.315994262695312 18.234880208969116 C 12.315994262695312 18.234880208969116 14.014214038848877 25.026991844177246 14.014214038848877 25.026991844177246 C 14.014214038848877 25.026991844177246 11.22392988204956 28.739524364471436 11.22392988204956 28.739524364471436 C 11.22392988204956 28.739524364471436 5.521613121032715 27.83873438835144 5.521613121032715 27.83873438835144 Z M 22.835594177246094 34.66297197341919 C 22.54762029647827 34.73426270484924 22.252052783966064 34.79598784446716 21.956401824951172 34.85139608383179 C 21.915095806121826 34.85951781272888 21.87287187576294 34.86619567871094 21.831565856933594 34.87395644187927 C 21.5798077583313 34.91889667510986 21.32529592514038 34.95752000808716 21.070199966430664 34.98892402648926 C 21.002191066741943 34.99758720397949 20.934682846069336 35.006791830062866 20.866924285888672 35.01491355895996 C 20.63010311126709 35.04270792007446 20.390945434570312 35.06328296661377 20.151370525360107 35.08060932159424 C 20.075934886932373 35.085662841796875 20.00141716003418 35.09324312210083 19.92606496810913 35.09811615943909 C 19.619816303253174 35.116886377334595 19.310980796813965 35.12771534919739 18.99997568130493 35.12771534919739 C 18.71500587463379 35.12771534919739 18.431788444519043 35.12013506889343 18.150239944458008 35.10533547401428 C 18.11627721786499 35.10533547401428 18.083566188812256 35.099560022354126 18.04960346221924 35.09721374511719 C 17.79901361465454 35.08295559883118 17.549508571624756 35.06382441520691 17.30058765411377 35.039639711380005 C 17.30058765411377 35.039639711380005 17.271965503692627 35.03458619117737 17.271965503692627 35.03458619117737 C 16.726642608642578 34.97538781166077 16.184407234191895 34.88875603675842 15.647679328918457 34.775412797927856 C 15.647679328918457 34.775412797927856 12.240642070770264 29.44106125831604 12.240642070770264 29.44106125831604 C 12.240642070770264 29.44106125831604 14.987116813659668 25.778702974319458 14.987116813659668 25.778702974319458 C 14.987116813659668 25.778702974319458 23.01275110244751 25.778702974319458 23.01275110244751 25.778702974319458 C 23.01275110244751 25.778702974319458 25.804203510284424 29.465245962142944 25.804203510284424 29.465245962142944 C 25.804203510284424 29.465245962142944 22.835594177246094 34.66297197341919 22.835594177246094 34.66297197341919 Z M 34.75133752822876 22.455832958221436 C 34.74549627304077 22.483446836471558 34.73873710632324 22.51015830039978 34.73281240463257 22.537772178649902 C 34.668391704559326 22.822393655776978 34.596627712249756 23.104127407073975 34.5178542137146 23.383153915405273 C 34.5178542137146 23.383153915405273 34.48697900772095 23.492346048355103 34.48697900772095 23.492346048355103 C 34.40036153793335 23.78942084312439 34.307318687438965 24.08324694633484 34.20459604263306 24.37238049507141 C 34.20459604263306 24.37238049507141 34.20459604263306 24.377794981002808 34.20459604263306 24.377794981002808 C 33.98805236816406 24.98800754547119 33.73487567901611 25.584142446517944 33.446067333221436 26.163492441177368 C 33.446067333221436 26.163492441177368 33.441227436065674 26.172155618667603 33.441227436065674 26.172155618667603 C 33.303457260131836 26.447933435440063 33.15834379196167 26.719018697738647 33.00538635253906 26.985230922698975 C 33.00538635253906 26.985230922698975 32.96791887283325 27.050024271011353 32.96791887283325 27.050024271011353 C 32.814377307891846 27.318943738937378 32.652657985687256 27.581365823745728 32.483094692230225 27.83801245689392 C 32.483094692230225 27.83801245689392 26.800137519836426 28.73429036140442 26.800137519836426 28.73429036140442 C 26.800137519836426 28.73429036140442 23.990410327911377 25.024826049804688 23.990410327911377 25.024826049804688 C 23.990410327911377 25.024826049804688 25.687795639038086 18.234158277511597 25.687795639038086 18.234158277511597 C 25.687795639038086 18.234158277511597 31.53889751434326 16.284040927886963 31.53889751434326 16.284040927886963 C 31.53889751434326 16.284040927886963 35.05533313751221 20.503730297088623 35.05533313751221 20.503730297088623 C 34.99433374404907 21.160146474838257 34.89277935028076 21.812050580978394 34.75133752822876 22.455832958221436 C 34.75133752822876 22.455832958221436 34.75133752822876 22.455832958221436 34.75133752822876 22.455832958221436 Z M 34.75133752822876 22.455832958221436 C 34.75133752822876 22.455832958221436 34.75133752822876 22.455832958221436 34.75133752822876 22.455832958221436"/></g></svg>