<svg version="1.1" xmlns="http://www.w3.org/2000/svg" xmlns:xlink="http://www.w3.org/1999/xlink" width="43" height="42"><defs/><g><path fill="rgb(255,255,255)" stroke="none" paint-order="stroke fill markers" fill-rule="evenodd" d=" M 3.155217170715332 16.511157751083374 C 3.155217170715332 16.511157751083374 40.43193817138672 16.511157751083374 40.43193817138672 16.511157751083374 C 41.07239007949829 16.511157751083374 41.591761112213135 15.99389386177063 41.591761112213135 15.355525970458984 C 41.591761112213135 15.355525970458984 41.591761112213135 10.732818365097046 41.591761112213135 10.732818365097046 C 41.591761112213135 10.0944504737854 41.07239007949829 9.577186584472656 40.43193817138672 9.577186584472656 C 40.43193817138672 9.577186584472656 3.155217170715332 9.577186584472656 3.155217170715332 9.577186584472656 C 2.5144314765930176 9.577186584472656 1.9951438903808594 10.0944504737854 1.9951438903808594 10.732818365097046 C 1.9951438903808594 10.732818365097046 1.9951438903808594 15.355525970458984 1.9951438903808594 15.355525970458984 C 1.9951438903808594 15.99389386177063 2.5144314765930176 16.511157751083374 3.155217170715332 16.511157751083374 C 3.155217170715332 16.511157751083374 3.155217170715332 16.511157751083374 3.155217170715332 16.511157751083374 Z M 3.155217170715332 16.511157751083374 C 3.155217170715332 16.511157751083374 3.155217170715332 16.511157751083374 3.155217170715332 16.511157751083374 M 32.69819974899292 4.954478979110718 C 32.69819974899292 4.954478979110718 30.966017246246338 4.954478979110718 30.966017246246338 4.954478979110718 C 28.744921684265137 2.5814902782440186 25.360164642333984 1.179318904876709 21.793577671051025 1.179318904876709 C 18.226656913757324 1.179318904876709 14.841899871826172 2.5814902782440186 12.620971202850342 4.954478979110718 C 12.620971202850342 4.954478979110718 10.88895559310913 4.954478979110718 10.88895559310913 4.954478979110718 C 8.995387554168701 4.954478979110718 7.311186790466309 5.863390684127808 6.2517499923706055 7.265742540359497 C 6.2517499923706055 7.265742540359497 37.33515501022339 7.265742540359497 37.33515501022339 7.265742540359497 C 36.27596855163574 5.863390684127808 34.59143400192261 4.954478979110718 32.69819974899292 4.954478979110718 C 32.69819974899292 4.954478979110718 32.69819974899292 4.954478979110718 32.69819974899292 4.954478979110718 Z M 21.793577671051025 5.378252744674683 C 21.154627799987793 5.378252744674683 20.633504390716553 4.85900354385376 20.633504390716553 4.222620964050293 C 20.633504390716553 3.5860579013824463 21.154627799987793 3.0668087005615234 21.793577671051025 3.0668087005615234 C 22.432527542114258 3.0668087005615234 22.953650951385498 3.5860579013824463 22.953650951385498 4.222620964050293 C 22.953650951385498 4.85900354385376 22.432527542114258 5.378252744674683 21.793577671051025 5.378252744674683 C 21.793577671051025 5.378252744674683 21.793577671051025 5.378252744674683 21.793577671051025 5.378252744674683 Z M 21.793577671051025 5.378252744674683 C 21.793577671051025 5.378252744674683 21.793577671051025 5.378252744674683 21.793577671051025 5.378252744674683 M 11.430356502532959 30.76443099975586 C 11.430356502532959 30.76443099975586 12.754735946655273 30.76443099975586 12.754735946655273 30.76443099975586 C 13.395438194274902 30.76443099975586 13.914809226989746 31.281875371932983 13.914809226989746 31.92006278038025 C 13.914809226989746 32.558069705963135 13.395438194274902 33.07587504386902 12.754735946655273 33.07587504386902 C 12.754735946655273 33.07587504386902 11.430356502532959 33.07587504386902 11.430356502532959 33.07587504386902 C 11.430356502532959 33.07587504386902 11.430356502532959 40.00948524475098 11.430356502532959 40.00948524475098 C 11.430356502532959 40.00948524475098 17.230639457702637 40.00948524475098 17.230639457702637 40.00948524475098 C 17.230639457702637 40.00948524475098 17.230639457702637 26.14172339439392 17.230639457702637 26.14172339439392 C 17.230639457702637 26.14172339439392 11.430356502532959 26.14172339439392 11.430356502532959 26.14172339439392 C 11.430356502532959 26.14172339439392 11.430356502532959 30.76443099975586 11.430356502532959 30.76443099975586 Z M 11.430356502532959 30.76443099975586 C 11.430356502532959 30.76443099975586 11.430356502532959 30.76443099975586 11.430356502532959 30.76443099975586 M 28.212616443634033 26.14172339439392 C 25.994858741760254 26.14172339439392 24.191079139709473 27.938791275024414 24.191079139709473 30.14808201789856 C 24.191079139709473 30.14808201789856 24.191079139709473 33.07587504386902 24.191079139709473 33.07587504386902 C 24.191079139709473 33.07587504386902 32.234153747558594 33.07587504386902 32.234153747558594 33.07587504386902 C 32.234153747558594 33.07587504386902 32.234153747558594 30.14808201789856 32.234153747558594 30.14808201789856 C 32.234153747558594 27.939152240753174 30.43004035949707 26.14172339439392 28.212616443634033 26.14172339439392 C 28.212616443634033 26.14172339439392 28.212616443634033 26.14172339439392 28.212616443634033 26.14172339439392 Z M 28.212616443634033 26.14172339439392 C 28.212616443634033 26.14172339439392 28.212616443634033 26.14172339439392 28.212616443634033 26.14172339439392 M 40.43193817138672 37.6982216835022 C 40.43193817138672 37.6982216835022 39.11723852157593 37.6982216835022 39.11723852157593 37.6982216835022 C 39.11723852157593 37.6982216835022 39.11723852157593 18.822601795196533 39.11723852157593 18.822601795196533 C 39.11723852157593 18.822601795196533 4.472336769104004 18.822601795196533 4.472336769104004 18.822601795196533 C 4.472336769104004 18.822601795196533 4.472336769104004 37.6982216835022 4.472336769104004 37.6982216835022 C 4.472336769104004 37.6982216835022 3.1573033332824707 37.6982216835022 3.1573033332824707 37.6982216835022 C 2.5165176391601562 37.6982216835022 1.997230052947998 38.2158465385437 1.997230052947998 38.85385346412659 C 1.997230052947998 39.49222135543823 2.5165176391601562 40.00948524475098 3.1573033332824707 40.00948524475098 C 3.1573033332824707 40.00948524475098 9.110209941864014 40.00948524475098 9.110209941864014 40.00948524475098 C 9.110209941864014 40.00948524475098 9.110209941864014 24.98609161376953 9.110209941864014 24.98609161376953 C 9.110209941864014 24.347723722457886 9.629497528076172 23.83045983314514 10.270283222198486 23.83045983314514 C 10.270283222198486 23.83045983314514 18.39071273803711 23.83045983314514 18.39071273803711 23.83045983314514 C 19.03116464614868 23.83045983314514 19.550786018371582 24.347723722457886 19.550786018371582 24.98609161376953 C 19.550786018371582 24.98609161376953 19.550786018371582 40.00948524475098 19.550786018371582 40.00948524475098 C 19.550786018371582 40.00948524475098 40.43193817138672 40.00948524475098 40.43193817138672 40.00948524475098 C 41.07272386550903 40.00948524475098 41.59201145172119 39.49222135543823 41.59201145172119 38.85385346412659 C 41.59201145172119 38.2158465385437 41.07272386550903 37.6982216835022 40.43193817138672 37.6982216835022 C 40.43193817138672 37.6982216835022 40.43193817138672 37.6982216835022 40.43193817138672 37.6982216835022 Z M 34.55430030822754 34.23150682449341 C 34.55430030822754 34.869513750076294 34.03467893600464 35.3871386051178 33.394227027893066 35.3871386051178 C 33.394227027893066 35.3871386051178 23.031005859375 35.3871386051178 23.031005859375 35.3871386051178 C 22.390220165252686 35.3871386051178 21.870932579040527 34.869513750076294 21.870932579040527 34.23150682449341 C 21.870932579040527 34.23150682449341 21.870932579040527 30.14808201789856 21.870932579040527 30.14808201789856 C 21.870932579040527 26.66458225250244 24.71579074859619 23.83045983314514 28.212616443634033 23.83045983314514 C 31.709442138671875 23.83045983314514 34.55430030822754 26.66458225250244 34.55430030822754 30.14808201789856 C 34.55430030822754 30.14808201789856 34.55430030822754 34.23150682449341 34.55430030822754 34.23150682449341 Z M 34.55430030822754 34.23150682449341 C 34.55430030822754 34.23150682449341 34.55430030822754 34.23150682449341 34.55430030822754 34.23150682449341"/></g></svg>