<svg version="1.1" xmlns="http://www.w3.org/2000/svg" xmlns:xlink="http://www.w3.org/1999/xlink" width="39" height="37"><defs/><g><path fill="rgb(255,255,255)" stroke="none" paint-order="stroke fill markers" fill-rule="evenodd" d=" M 28.600406169891357 6.987287521362305 C 28.600406169891357 6.166992902755737 28.280221939086914 5.394706726074219 27.69993495941162 4.8144543170928955 C 27.69993495941162 4.8144543170928955 24.802422046661377 1.9173433780670166 24.802422046661377 1.9173433780670166 C 24.230145931243896 1.345212697982788 23.417877674102783 1.0169143676757812 22.609447956085205 1.0169143676757812 C 22.609447956085205 1.0169143676757812 22.4333758354187 1.0169143676757812 22.4333758354187 1.0169143676757812 C 22.4333758354187 1.0169143676757812 22.4333758354187 7.16325831413269 22.4333758354187 7.16325831413269 C 22.4333758354187 7.16325831413269 28.600489616394043 7.16325831413269 28.600489616394043 7.16325831413269 C 28.600489616394043 7.16325831413269 28.600489616394043 6.987287521362305 28.600489616394043 6.987287521362305 C 28.600489616394043 6.987287521362305 28.600406169891357 6.987287521362305 28.600406169891357 6.987287521362305 Z M 25.909006118774414 27.345032691955566 C 25.909006118774414 27.345032691955566 22.651421546936035 28.43244194984436 22.651421546936035 28.43244194984436 C 22.651421546936035 28.43244194984436 22.155081748962402 28.459514379501343 22.155081748962402 28.459514379501343 C 21.334635734558105 28.459514379501343 20.558332920074463 28.060286283493042 20.076095581054688 27.392138719558716 C 19.59786367416382 26.726878881454468 19.46777057647705 25.864531755447388 19.7278733253479 25.085206747055054 C 19.7278733253479 25.085206747055054 20.706367015838623 22.156150341033936 20.706367015838623 22.156150341033936 C 20.902466297149658 21.560917854309082 21.244680404663086 21.006654977798462 21.690868854522705 20.557433128356934 C 21.690868854522705 20.557433128356934 28.62769317626953 13.649451494216919 28.62769317626953 13.649451494216919 C 28.62769317626953 13.649451494216919 28.62769317626953 9.21209979057312 28.62769317626953 9.21209979057312 C 28.62769317626953 9.21209979057312 21.428763389587402 9.21209979057312 21.428763389587402 9.21209979057312 C 20.862411975860596 9.21209979057312 20.43750238418579 8.753853797912598 20.43750238418579 8.187679052352905 C 20.43750238418579 8.187679052352905 20.43750238418579 1.0169143676757812 20.43750238418579 1.0169143676757812 C 20.43750238418579 1.0169143676757812 5.069660663604736 1.0169143676757812 5.069660663604736 1.0169143676757812 C 3.3747787475585938 1.0169143676757812 1.9960756301879883 2.395622968673706 1.9960756301879883 4.090176582336426 C 1.9960756301879883 4.090176582336426 1.9960756301879883 32.90968036651611 1.9960756301879883 32.90968036651611 C 1.9960756301879883 34.60423398017883 3.3747787475585938 35.98276209831238 5.069660663604736 35.98276209831238 C 5.069660663604736 35.98276209831238 25.52682113647461 35.98276209831238 25.52682113647461 35.98276209831238 C 27.221619606018066 35.98276209831238 28.62769317626953 34.60423398017883 28.62769317626953 32.90968036651611 C 28.62769317626953 32.90968036651611 28.62769317626953 25.264245748519897 28.62769317626953 25.264245748519897 C 28.62769317626953 25.264245748519897 27.501832962036133 26.362664461135864 27.501832962036133 26.362664461135864 C 27.045630931854248 26.81477403640747 26.511406421661377 27.143974781036377 25.909006118774414 27.345032691955566 Z M 7.11868953704834 11.26094126701355 C 7.11868953704834 11.26094126701355 21.428763389587402 11.26094126701355 21.428763389587402 11.26094126701355 C 21.995031356811523 11.26094126701355 22.45323610305786 11.719006776809692 22.45323610305786 12.285362005233765 C 22.45323610305786 12.851536750793457 21.995031356811523 13.3096022605896 21.428763389587402 13.3096022605896 C 21.428763389587402 13.3096022605896 7.11868953704834 13.3096022605896 7.11868953704834 13.3096022605896 C 6.552421569824219 13.3096022605896 6.094133377075195 12.851536750793457 6.094133377075195 12.285362005233765 C 6.094133377075195 11.719006776809692 6.552421569824219 11.26094126701355 7.11868953704834 11.26094126701355 Z M 7.11868953704834 15.35844373703003 C 7.11868953704834 15.35844373703003 17.33062219619751 15.35844373703003 17.33062219619751 15.35844373703003 C 17.89689016342163 15.35844373703003 18.355178356170654 15.816689729690552 18.355178356170654 16.382864475250244 C 18.355178356170654 16.949039220809937 17.89689016342163 17.40728521347046 17.33062219619751 17.40728521347046 C 17.33062219619751 17.40728521347046 7.11868953704834 17.40728521347046 7.11868953704834 17.40728521347046 C 6.552421569824219 17.40728521347046 6.094133377075195 16.949039220809937 6.094133377075195 16.382864475250244 C 6.094133377075195 15.816689729690552 6.552421569824219 15.35844373703003 7.11868953704834 15.35844373703003 Z M 7.11868953704834 19.45594620704651 C 7.11868953704834 19.45594620704651 17.33062219619751 19.45594620704651 17.33062219619751 19.45594620704651 C 17.89689016342163 19.45594620704651 18.355178356170654 19.91419219970703 18.355178356170654 20.480366945266724 C 18.355178356170654 21.046541690826416 17.89689016342163 21.50478768348694 17.33062219619751 21.50478768348694 C 17.33062219619751 21.50478768348694 7.11868953704834 21.50478768348694 7.11868953704834 21.50478768348694 C 6.552421569824219 21.50478768348694 6.094133377075195 21.046541690826416 6.094133377075195 20.480366945266724 C 6.094133377075195 19.91419219970703 6.552421569824219 19.45594620704651 7.11868953704834 19.45594620704651 Z M 6.094133377075195 24.577869415283203 C 6.094133377075195 24.01169466972351 6.552421569824219 23.553629159927368 7.11868953704834 23.553629159927368 C 7.11868953704834 23.553629159927368 17.33062219619751 23.553629159927368 17.33062219619751 23.553629159927368 C 17.89689016342163 23.553629159927368 18.355178356170654 24.01169466972351 18.355178356170654 24.577869415283203 C 18.355178356170654 25.144224643707275 17.89689016342163 25.602290153503418 17.33062219619751 25.602290153503418 C 17.33062219619751 25.602290153503418 7.11868953704834 25.602290153503418 7.11868953704834 25.602290153503418 C 6.552421569824219 25.602290153503418 6.094133377075195 25.144224643707275 6.094133377075195 24.577869415283203 Z M 21.428763389587402 31.748634099960327 C 21.428763389587402 31.748634099960327 15.281593322753906 31.748634099960327 15.281593322753906 31.748634099960327 C 14.715325355529785 31.748634099960327 14.257037162780762 31.290568590164185 14.257037162780762 30.724213361740112 C 14.257037162780762 30.15803861618042 14.715325355529785 29.699973106384277 15.281593322753906 29.699973106384277 C 15.281593322753906 29.699973106384277 21.428763389587402 29.699973106384277 21.428763389587402 29.699973106384277 C 21.995031356811523 29.699973106384277 22.45323610305786 30.15803861618042 22.45323610305786 30.724213361740112 C 22.45323610305786 31.290568590164185 21.99511480331421 31.748634099960327 21.428763389587402 31.748634099960327 Z M 22.319221019744873 26.38396143913269 C 22.319221019744873 26.38396143913269 24.991762161254883 25.49147367477417 24.991762161254883 25.49147367477417 C 24.991762161254883 25.49147367477417 22.562384128570557 23.062354803085327 22.562384128570557 23.062354803085327 C 22.562384128570557 23.062354803085327 21.67109203338623 25.73620843887329 21.67109203338623 25.73620843887329 C 21.53749418258667 26.13669991493225 21.918677806854248 26.517699241638184 22.319221019744873 26.38396143913269 Z M 23.77194118499756 21.374840021133423 C 23.77194118499756 21.374840021133423 26.681971073150635 24.284404277801514 26.681971073150635 24.284404277801514 C 28.206955909729004 22.759324073791504 31.17431354522705 19.79182481765747 33.42903804779053 17.537413358688354 C 33.42903804779053 17.537413358688354 30.51942539215088 14.628210067749023 30.51942539215088 14.628210067749023 C 30.51942539215088 14.628210067749023 23.77194118499756 21.374840021133423 23.77194118499756 21.374840021133423 Z M 36.364352226257324 11.689949035644531 C 36.004197120666504 11.327900409698486 35.47389459609985 11.12088656425476 34.91154861450195 11.12088656425476 C 34.34928607940674 11.12088656425476 33.81906700134277 11.327900409698486 33.456825733184814 11.69103193283081 C 33.456825733184814 11.69103193283081 31.968056678771973 13.179654598236084 31.968056678771973 13.179654598236084 C 31.968056678771973 13.179654598236084 34.877585887908936 16.088857889175415 34.877585887908936 16.088857889175415 C 35.69260787963867 15.273797273635864 36.2559552192688 14.71051025390625 36.36643838882446 14.600054740905762 C 37.16677379608154 13.798710823059082 37.16669034957886 12.49327826499939 36.364352226257324 11.689949035644531 Z M 36.36643838882446 14.600054740905762 C 36.39372539520264 14.5728018283844 36.392807483673096 14.573704242706299 36.36652183532715 14.600054740905762 C 36.36643838882446 14.600054740905762 36.36643838882446 14.600054740905762 36.36643838882446 14.600054740905762 Z"/></g></svg>