<svg version="1.1" xmlns="http://www.w3.org/2000/svg" xmlns:xlink="http://www.w3.org/1999/xlink" width="46" height="41"><defs/><g><path fill="rgb(255,255,255)" stroke="none" paint-order="stroke fill markers" fill-rule="evenodd" d=" M 34.88089323043823 10.601887226104736 C 34.88089323043823 12.532151460647583 36.44693374633789 14.102713346481323 38.37162733078003 14.102713346481323 C 40.296571254730225 14.102713346481323 41.86244487762451 12.532151460647583 41.86244487762451 10.601887226104736 C 41.86244487762451 8.67144250869751 40.296571254730225 7.1008806228637695 38.37162733078003 7.1008806228637695 C 36.44693374633789 7.1008806228637695 34.88089323043823 8.67144250869751 34.88089323043823 10.601887226104736 C 34.88089323043823 10.601887226104736 34.88089323043823 10.601887226104736 34.88089323043823 10.601887226104736 Z M 34.88089323043823 10.601887226104736 C 34.88089323043823 10.601887226104736 34.88089323043823 10.601887226104736 34.88089323043823 10.601887226104736 M 41.94422245025635 15.264301061630249 C 41.936211585998535 15.261413335800171 41.056602001190186 14.990869522094727 41.056602001190186 14.990869522094727 C 40.738587379455566 14.89358925819397 40.39203405380249 14.95350956916809 40.12592315673828 15.15384554862976 C 40.12592315673828 15.15384554862976 38.37162733078003 16.470648527145386 38.37162733078003 16.470648527145386 C 38.37162733078003 16.470648527145386 36.61816596984863 15.15384554862976 36.61816596984863 15.15384554862976 C 36.351304054260254 14.95350956916809 36.00475072860718 14.89358925819397 35.68673610687256 14.990869522094727 C 35.68673610687256 14.990869522094727 34.80712652206421 15.261413335800171 34.7991156578064 15.264301061630249 C 33.38411331176758 15.737527132034302 32.43290662765503 17.061007976531982 32.43290662765503 18.55684995651245 C 32.43290662765503 18.55684995651245 32.43290662765503 23.849148988723755 32.43290662765503 23.849148988723755 C 32.43290662765503 24.053275108337402 32.49282121658325 24.252889156341553 32.60430574417114 24.423445463180542 C 32.60430574417114 24.423445463180542 34.37462329864502 27.124732494354248 34.37462329864502 27.124732494354248 C 34.37462329864502 27.124732494354248 34.37462329864502 34.21879196166992 34.37462329864502 34.21879196166992 C 34.37462329864502 34.79669809341431 34.84142303466797 35.26487064361572 35.417704582214355 35.26487064361572 C 35.417704582214355 35.26487064361572 41.32563352584839 35.26487064361572 41.32563352584839 35.26487064361572 C 41.90183162689209 35.26487064361572 42.36938238143921 34.79669809341431 42.36938238143921 34.21879196166992 C 42.36938238143921 34.21879196166992 42.36938238143921 27.124732494354248 42.36938238143921 27.124732494354248 C 42.36938238143921 27.124732494354248 44.1390323638916 24.423445463180542 44.1390323638916 24.423445463180542 C 44.25068378448486 24.252889156341553 44.310431480407715 24.053275108337402 44.310431480407715 23.849148988723755 C 44.310431480407715 23.849148988723755 44.310431480407715 18.55684995651245 44.310431480407715 18.55684995651245 C 44.310431480407715 17.061007976531982 43.359224796295166 15.737527132034302 41.94422245025635 15.264301061630249 C 41.94422245025635 15.264301061630249 41.94422245025635 15.264301061630249 41.94422245025635 15.264301061630249 Z M 41.94422245025635 15.264301061630249 C 41.94422245025635 15.264301061630249 41.94422245025635 15.264301061630249 41.94422245025635 15.264301061630249 M 7.627933025360107 14.102713346481323 C 9.552710056304932 14.102713346481323 11.11875057220459 12.532151460647583 11.11875057220459 10.601887226104736 C 11.11875057220459 8.67144250869751 9.552710056304932 7.1008806228637695 7.627933025360107 7.1008806228637695 C 5.702989101409912 7.1008806228637695 4.136948585510254 8.67144250869751 4.136948585510254 10.601887226104736 C 4.136948585510254 12.532151460647583 5.702989101409912 14.102713346481323 7.627933025360107 14.102713346481323 C 7.627933025360107 14.102713346481323 7.627933025360107 14.102713346481323 7.627933025360107 14.102713346481323 Z M 7.627933025360107 14.102713346481323 C 7.627933025360107 14.102713346481323 7.627933025360107 14.102713346481323 7.627933025360107 14.102713346481323 M 11.200528144836426 15.264301061630249 C 11.192517280578613 15.261413335800171 10.312824249267578 14.990869522094727 10.312824249267578 14.990869522094727 C 9.994142055511475 14.89358925819397 9.648339748382568 14.95350956916809 9.381310939788818 15.15384554862976 C 9.381310939788818 15.15384554862976 7.627933025360107 16.470648527145386 7.627933025360107 16.470648527145386 C 7.627933025360107 16.470648527145386 5.873720645904541 15.15384554862976 5.873720645904541 15.15384554862976 C 5.607442855834961 14.95350956916809 5.261056423187256 14.89358925819397 4.943041801452637 14.990869522094727 C 4.943041801452637 14.990869522094727 4.063432216644287 15.261413335800171 4.055337905883789 15.264301061630249 C 2.6404190063476562 15.737527132034302 1.6892123222351074 17.061007976531982 1.6892123222351074 18.55684995651245 C 1.6892123222351074 18.55684995651245 1.6892123222351074 23.849148988723755 1.6892123222351074 23.849148988723755 C 1.6892123222351074 24.053275108337402 1.748960018157959 24.252889156341553 1.8606114387512207 24.423445463180542 C 1.8606114387512207 24.423445463180542 3.6307621002197266 27.124732494354248 3.6307621002197266 27.124732494354248 C 3.6307621002197266 27.124732494354248 3.6307621002197266 34.21879196166992 3.6307621002197266 34.21879196166992 C 3.6307621002197266 34.79669809341431 4.097561836242676 35.26487064361572 4.6738433837890625 35.26487064361572 C 4.6738433837890625 35.26487064361572 10.581939220428467 35.26487064361572 10.581939220428467 35.26487064361572 C 11.158137321472168 35.26487064361572 11.624937057495117 34.79669809341431 11.624937057495117 34.21879196166992 C 11.624937057495117 34.21879196166992 11.624937057495117 27.124732494354248 11.624937057495117 27.124732494354248 C 11.624937057495117 27.124732494354248 13.395087718963623 24.423445463180542 13.395087718963623 24.423445463180542 C 13.506739139556885 24.252889156341553 13.566486835479736 24.053275108337402 13.566486835479736 23.849148988723755 C 13.566486835479736 23.849148988723755 13.566486835479736 18.55684995651245 13.566486835479736 18.55684995651245 C 13.566486835479736 17.061007976531982 12.615530490875244 15.737527132034302 11.200528144836426 15.264301061630249 C 11.200528144836426 15.264301061630249 11.200528144836426 15.264301061630249 11.200528144836426 15.264301061630249 Z M 11.200528144836426 15.264301061630249 C 11.200528144836426 15.264301061630249 11.200528144836426 15.264301061630249 11.200528144836426 15.264301061630249 M 27.50230312347412 5.66802716255188 C 27.50230312347412 3.1779050827026367 25.48264741897583 1.1525263786315918 22.99978017807007 1.1525263786315918 C 20.516912937164307 1.1525263786315918 18.4973406791687 3.1779050827026367 18.4973406791687 5.66802716255188 C 18.4973406791687 8.157968759536743 20.516912937164307 10.183347463607788 22.99978017807007 10.183347463607788 C 25.48264741897583 10.183347463607788 27.50230312347412 8.157968759536743 27.50230312347412 5.66802716255188 C 27.50230312347412 5.66802716255188 27.50230312347412 5.66802716255188 27.50230312347412 5.66802716255188 Z M 27.50230312347412 5.66802716255188 C 27.50230312347412 5.66802716255188 27.50230312347412 5.66802716255188 27.50230312347412 5.66802716255188 M 27.944986820220947 12.371341228485107 C 27.944986820220947 12.371341228485107 27.937726974487305 12.369175434112549 27.937726974487305 12.369175434112549 C 27.937726974487305 12.369175434112549 26.65248394012451 11.974098443984985 26.65248394012451 11.974098443984985 C 26.449708938598633 11.911290407180786 26.233081817626953 12.018677711486816 26.160316467285156 12.219194173812866 C 26.160316467285156 12.219194173812866 23.458569049835205 19.655449151992798 23.458569049835205 19.655449151992798 C 23.302524089813232 20.08409595489502 22.69711971282959 20.08409595489502 22.5417423248291 19.655449151992798 C 22.5417423248291 19.655449151992798 19.839327335357666 12.219194173812866 19.839327335357666 12.219194173812866 C 19.780330657958984 12.057481527328491 19.627790451049805 11.955869674682617 19.464402198791504 11.955869674682617 C 19.425766468048096 11.955869674682617 18.0631685256958 12.36845350265503 18.0631685256958 12.36845350265503 C 16.421358585357666 12.917121410369873 15.325121879577637 14.443645477294922 15.325121879577637 16.16924214363098 C 15.325121879577637 16.16924214363098 15.325121879577637 24.035046339035034 15.325121879577637 24.035046339035034 C 15.325121879577637 24.113195419311523 15.347652435302734 24.190081119537354 15.390794277191162 24.25523543357849 C 15.390794277191162 24.25523543357849 18.209950923919678 28.558488368988037 18.209950923919678 28.558488368988037 C 18.209950923919678 28.558488368988037 18.209950923919678 39.44611716270447 18.209950923919678 39.44611716270447 C 18.209950923919678 39.667750120162964 18.38869333267212 39.84696960449219 18.60957622528076 39.84696960449219 C 18.60957622528076 39.84696960449219 27.39006757736206 39.84696960449219 27.39006757736206 39.84696960449219 C 27.610950469970703 39.84696960449219 27.78960943222046 39.667750120162964 27.78960943222046 39.44611716270447 C 27.78960943222046 39.44611716270447 27.78960943222046 28.558488368988037 27.78960943222046 28.558488368988037 C 27.78960943222046 28.558488368988037 30.608766078948975 24.25523543357849 30.608766078948975 24.25523543357849 C 30.65174102783203 24.190081119537354 30.674355030059814 24.113195419311523 30.674355030059814 24.035046339035034 C 30.674355030059814 24.035046339035034 30.674355030059814 16.148847579956055 30.674355030059814 16.148847579956055 C 30.674355030059814 14.43047022819519 29.573779106140137 12.90683388710022 27.944986820220947 12.371341228485107 C 27.944986820220947 12.371341228485107 27.944986820220947 12.371341228485107 27.944986820220947 12.371341228485107 Z M 27.944986820220947 12.371341228485107 C 27.944986820220947 12.371341228485107 27.944986820220947 12.371341228485107 27.944986820220947 12.371341228485107 M 24.055211544036865 12.214862585067749 C 23.944478034973145 12.093397617340088 23.780839443206787 12.031852960586548 23.615448474884033 12.031852960586548 C 23.615448474884033 12.031852960586548 22.38419532775879 12.031852960586548 22.38419532775879 12.031852960586548 C 22.21855401992798 12.031852960586548 22.055165767669678 12.093397617340088 21.943681240081787 12.214862585067749 C 21.770780086517334 12.404369592666626 21.745996475219727 12.677079200744629 21.868412494659424 12.88986849784851 C 21.868412494659424 12.88986849784851 22.527222633361816 13.885592460632324 22.527222633361816 13.885592460632324 C 22.527222633361816 13.885592460632324 22.21855401992798 16.49266743659973 22.21855401992798 16.49266743659973 C 22.21855401992798 16.49266743659973 22.825376987457275 18.11214017868042 22.825376987457275 18.11214017868042 C 22.884624004364014 18.274394273757935 23.11426877975464 18.274394273757935 23.17343235015869 18.11214017868042 C 23.17343235015869 18.11214017868042 23.780338764190674 16.49266743659973 23.780338764190674 16.49266743659973 C 23.780338764190674 16.49266743659973 23.472421169281006 13.885592460632324 23.472421169281006 13.885592460632324 C 23.472421169281006 13.885592460632324 24.131147861480713 12.88986849784851 24.131147861480713 12.88986849784851 C 24.253647327423096 12.677079200744629 24.22811269760132 12.404369592666626 24.055211544036865 12.214862585067749 C 24.055211544036865 12.214862585067749 24.055211544036865 12.214862585067749 24.055211544036865 12.214862585067749 Z M 24.055211544036865 12.214862585067749 C 24.055211544036865 12.214862585067749 24.055211544036865 12.214862585067749 24.055211544036865 12.214862585067749"/></g></svg>