<svg version="1.1" xmlns="http://www.w3.org/2000/svg" xmlns:xlink="http://www.w3.org/1999/xlink" width="42" height="42"><defs/><g><path fill="rgb(255,255,255)" stroke="none" paint-order="stroke fill markers" fill-rule="evenodd" d=" M 33.16342067718506 16.311948537826538 C 33.16342067718506 15.689102172851562 32.657901763916016 15.18356966972351 32.03480672836304 15.18356966972351 C 31.411377906799316 15.18356966972351 30.9062762260437 15.689102172851562 30.9062762260437 16.311948537826538 C 30.9062762260437 20.66700005531311 27.362637042999268 24.20969820022583 23.007063388824463 24.20969820022583 C 23.007063388824463 24.20969820022583 21.878532886505127 24.20969820022583 21.878532886505127 24.20969820022583 C 21.878532886505127 24.20969820022583 21.878532886505127 21.953120946884155 21.878532886505127 21.953120946884155 C 21.878532886505127 21.953120946884155 23.007063388824463 21.953120946884155 23.007063388824463 21.953120946884155 C 26.117698669433594 21.953120946884155 28.64954900741577 19.42220973968506 28.64954900741577 16.311948537826538 C 28.64954900741577 16.311948537826538 28.64954900741577 15.18356966972351 28.64954900741577 15.18356966972351 C 28.64954900741577 15.18356966972351 25.263790607452393 15.18356966972351 25.263790607452393 15.18356966972351 C 24.641112804412842 15.18356966972351 24.135260105133057 14.678217649459839 24.135260105133057 14.055732250213623 C 24.135260105133057 13.432705402374268 24.641112804412842 12.927353382110596 25.263790607452393 12.927353382110596 C 25.263790607452393 12.927353382110596 28.64954900741577 12.927353382110596 28.64954900741577 12.927353382110596 C 28.64954900741577 12.927353382110596 28.64954900741577 10.520433902740479 28.64954900741577 10.520433902740479 C 28.64954900741577 10.520433902740479 25.263790607452393 10.520433902740479 25.263790607452393 10.520433902740479 C 24.641112804412842 10.520433902740479 24.135260105133057 10.014901399612427 24.135260105133057 9.392416000366211 C 24.135260105133057 8.769569635391235 24.641112804412842 8.264217615127563 25.263790607452393 8.264217615127563 C 25.263790607452393 8.264217615127563 28.64954900741577 8.264217615127563 28.64954900741577 8.264217615127563 C 28.64954900741577 8.264217615127563 28.64954900741577 7.135838747024536 28.64954900741577 7.135838747024536 C 28.64954900741577 4.025577545166016 26.117698669433594 1.494666337966919 23.007063388824463 1.494666337966919 C 23.007063388824463 1.494666337966919 18.493191719055176 1.494666337966919 18.493191719055176 1.494666337966919 C 15.382222652435303 1.494666337966919 12.850789546966553 4.025577545166016 12.850789546966553 7.135838747024536 C 12.850789546966553 7.135838747024536 12.850789546966553 8.264217615127563 12.850789546966553 8.264217615127563 C 12.850789546966553 8.264217615127563 16.23604726791382 8.264217615127563 16.23604726791382 8.264217615127563 C 16.859142303466797 8.264217615127563 17.36466121673584 8.769569635391235 17.36466121673584 9.392416000366211 C 17.36466121673584 10.014901399612427 16.859142303466797 10.520433902740479 16.23604726791382 10.520433902740479 C 16.23604726791382 10.520433902740479 12.850789546966553 10.520433902740479 12.850789546966553 10.520433902740479 C 12.850789546966553 10.520433902740479 12.850789546966553 12.927353382110596 12.850789546966553 12.927353382110596 C 12.850789546966553 12.927353382110596 16.23604726791382 12.927353382110596 16.23604726791382 12.927353382110596 C 16.859142303466797 12.927353382110596 17.36466121673584 13.432705402374268 17.36466121673584 14.055732250213623 C 17.36466121673584 14.678217649459839 16.859142303466797 15.18356966972351 16.23604726791382 15.18356966972351 C 16.23604726791382 15.18356966972351 12.850789546966553 15.18356966972351 12.850789546966553 15.18356966972351 C 12.850789546966553 15.18356966972351 12.850789546966553 16.311948537826538 12.850789546966553 16.311948537826538 C 12.850789546966553 19.42220973968506 15.382222652435303 21.953120946884155 18.493191719055176 21.953120946884155 C 18.493191719055176 21.953120946884155 19.62138843536377 21.953120946884155 19.62138843536377 21.953120946884155 C 19.62138843536377 21.953120946884155 19.62138843536377 24.20969820022583 19.62138843536377 24.20969820022583 C 19.62138843536377 24.20969820022583 18.493191719055176 24.20969820022583 18.493191719055176 24.20969820022583 C 14.137284278869629 24.20969820022583 10.593645095825195 20.66700005531311 10.593645095825195 16.311948537826538 C 10.593645095825195 15.689102172851562 10.08854341506958 15.18356966972351 9.46511459350586 15.18356966972351 C 8.84201955795288 15.18356966972351 8.336917877197266 15.689102172851562 8.336917877197266 16.311948537826538 C 8.336917877197266 21.910707473754883 12.892679691314697 26.465914487838745 18.493191719055176 26.465914487838745 C 18.493191719055176 26.465914487838745 23.007063388824463 26.465914487838745 23.007063388824463 26.465914487838745 C 28.607158184051514 26.465914487838745 33.16342067718506 21.911248922348022 33.16342067718506 16.311948537826538 C 33.16342067718506 16.311948537826538 33.16342067718506 16.311948537826538 33.16342067718506 16.311948537826538 Z M 19.62138843536377 7.135838747024536 C 19.62138843536377 6.512811899185181 20.126907348632812 6.007459878921509 20.749918937683105 6.007459878921509 C 21.373013973236084 6.007459878921509 21.878532886505127 6.512811899185181 21.878532886505127 7.135838747024536 C 21.878532886505127 7.135838747024536 21.878532886505127 14.055732250213623 21.878532886505127 14.055732250213623 C 21.878532886505127 14.678217649459839 21.373013973236084 15.18356966972351 20.749918937683105 15.18356966972351 C 20.126907348632812 15.18356966972351 19.62138843536377 14.678217649459839 19.62138843536377 14.055732250213623 C 19.62138843536377 14.055732250213623 19.62138843536377 7.135838747024536 19.62138843536377 7.135838747024536 Z M 19.62138843536377 7.135838747024536 C 19.62138843536377 7.135838747024536 19.62138843536377 7.135838747024536 19.62138843536377 7.135838747024536 M 33.16342067718506 34.36366415023804 C 33.16342067718506 34.36366415023804 33.16342067718506 29.850870609283447 33.16342067718506 29.850870609283447 C 33.16342067718506 29.393707513809204 32.88754653930664 28.98184561729431 32.46505689620972 28.807679653167725 C 28.69736385345459 27.253902673721313 24.75601863861084 26.465914487838745 20.749918937683105 26.465914487838745 C 16.744319915771484 26.465914487838745 12.802557468414307 27.253902673721313 9.034780979156494 28.807679653167725 C 8.612374782562256 28.98184561729431 8.336917877197266 29.393707513809204 8.336917877197266 29.850870609283447 C 8.336917877197266 29.850870609283447 8.336917877197266 34.36366415023804 8.336917877197266 34.36366415023804 C 8.336917877197266 35.168798208236694 9.157113552093506 35.7133150100708 9.898452281951904 35.40541124343872 C 16.794888496398926 32.53970432281494 24.7054500579834 32.53970432281494 31.60188627243042 35.40541124343872 C 32.34280776977539 35.71385645866394 33.16342067718506 35.168798208236694 33.16342067718506 34.36366415023804 C 33.16342067718506 34.36366415023804 33.16342067718506 34.36366415023804 33.16342067718506 34.36366415023804 Z M 33.16342067718506 34.36366415023804 C 33.16342067718506 34.36366415023804 33.16342067718506 34.36366415023804 33.16342067718506 34.36366415023804 M 13.211612224578857 39.70324969291687 C 13.928751468658447 40.372119188308716 15.107516765594482 39.86117219924927 15.107516765594482 38.87663817405701 C 15.107516765594482 38.87663817405701 15.107516765594482 36.120484352111816 15.107516765594482 36.120484352111816 C 13.63994312286377 36.44336819648743 12.203077793121338 36.894575357437134 10.80643367767334 37.471759557724 C 10.80643367767334 37.471759557724 13.211612224578857 39.70324969291687 13.211612224578857 39.70324969291687 Z M 13.211612224578857 39.70324969291687 C 13.211612224578857 39.70324969291687 13.211612224578857 39.70324969291687 13.211612224578857 39.70324969291687 M 6.079773426055908 34.68781137466431 C 6.079773426055908 34.68781137466431 6.079773426055908 30.978708028793335 6.079773426055908 30.978708028793335 C 6.079773426055908 30.978708028793335 2.6192469596862793 30.978708028793335 2.6192469596862793 30.978708028793335 C 1.717106819152832 30.978708028793335 1.1814637184143066 31.9856219291687 1.6803069114685059 32.732820987701416 C 1.6803069114685059 32.732820987701416 3.5197181701660156 35.492043018341064 3.5197181701660156 35.492043018341064 C 3.5197181701660156 35.492043018341064 1.6803069114685059 38.25090408325195 1.6803069114685059 38.25090408325195 C 1.1818809509277344 38.99738121032715 1.71602201461792 40.004836559295654 2.6192469596862793 40.004836559295654 C 2.6192469596862793 40.004836559295654 10.218302726745605 40.004836559295654 10.218302726745605 40.004836559295654 C 10.218302726745605 40.004836559295654 7.172672271728516 37.17829442024231 7.172672271728516 37.17829442024231 C 6.441013336181641 36.49967885017395 6.079773426055908 35.59618163108826 6.079773426055908 34.68781137466431 C 6.079773426055908 34.68781137466431 6.079773426055908 34.68781137466431 6.079773426055908 34.68781137466431 Z M 6.079773426055908 34.68781137466431 C 6.079773426055908 34.68781137466431 6.079773426055908 34.68781137466431 6.079773426055908 34.68781137466431 M 26.392404556274414 38.87663817405701 C 26.392404556274414 39.85954785346985 27.57150363922119 40.3695924282074 28.288976669311523 39.70324969291687 C 28.288976669311523 39.70324969291687 30.46384286880493 37.6843683719635 30.46384286880493 37.6843683719635 C 30.197815418243408 37.54810380935669 28.67583465576172 36.56158447265625 26.392404556274414 35.64761924743652 C 26.392404556274414 35.64761924743652 26.392404556274414 38.87663817405701 26.392404556274414 38.87663817405701 Z M 26.392404556274414 38.87663817405701 C 26.392404556274414 38.87663817405701 26.392404556274414 38.87663817405701 26.392404556274414 38.87663817405701 M 39.82003164291382 38.25090408325195 C 39.82003164291382 38.25090408325195 37.98062038421631 35.492043018341064 37.98062038421631 35.492043018341064 C 37.98062038421631 35.492043018341064 39.82003164291382 32.732820987701416 39.82003164291382 32.732820987701416 C 40.31804037094116 31.98634386062622 39.78389930725098 30.978708028793335 38.881091594696045 30.978708028793335 C 38.881091594696045 30.978708028793335 35.42014789581299 30.978708028793335 35.42014789581299 30.978708028793335 C 35.42014789581299 30.978708028793335 35.42014789581299 34.68618702888489 35.42014789581299 34.68618702888489 C 35.42014789581299 35.600513219833374 35.04780960083008 36.49895691871643 34.33818054199219 37.16692399978638 C 34.33818054199219 37.16692399978638 31.280951023101807 40.004836559295654 31.280951023101807 40.004836559295654 C 31.280951023101807 40.004836559295654 38.881091594696045 40.004836559295654 38.881091594696045 40.004836559295654 C 39.782814502716064 40.004836559295654 40.318374156951904 38.99792265892029 39.82003164291382 38.25090408325195 C 39.82003164291382 38.25090408325195 39.82003164291382 38.25090408325195 39.82003164291382 38.25090408325195 Z M 39.82003164291382 38.25090408325195 C 39.82003164291382 38.25090408325195 39.82003164291382 38.25090408325195 39.82003164291382 38.25090408325195 M 4.951242923736572 10.520433902740479 C 4.951242923736572 10.520433902740479 9.46511459350586 10.520433902740479 9.46511459350586 10.520433902740479 C 10.08854341506958 10.520433902740479 10.593645095825195 10.015442848205566 10.593645095825195 9.392416000366211 C 10.593645095825195 8.769028186798096 10.08854341506958 8.264217615127563 9.46511459350586 8.264217615127563 C 9.46511459350586 8.264217615127563 4.951242923736572 8.264217615127563 4.951242923736572 8.264217615127563 C 4.328147888183594 8.264217615127563 3.822628974914551 8.769028186798096 3.822628974914551 9.392416000366211 C 3.822628974914551 10.015442848205566 4.328147888183594 10.520433902740479 4.951242923736572 10.520433902740479 C 4.951242923736572 10.520433902740479 4.951242923736572 10.520433902740479 4.951242923736572 10.520433902740479 Z M 4.951242923736572 10.520433902740479 C 4.951242923736572 10.520433902740479 4.951242923736572 10.520433902740479 4.951242923736572 10.520433902740479 M 8.667282581329346 5.677176237106323 C 9.108047008514404 6.117554426193237 9.822432518005371 6.117554426193237 10.262863159179688 5.677176237106323 C 10.703711032867432 5.236437082290649 10.703711032867432 4.522266387939453 10.262863159179688 4.081527233123779 C 10.262863159179688 4.081527233123779 8.006135940551758 1.8253109455108643 8.006135940551758 1.8253109455108643 C 7.565288066864014 1.3845717906951904 6.850902557373047 1.3845717906951904 6.410138130187988 1.8253109455108643 C 5.969624042510986 2.2656891345977783 5.969624042510986 2.9802207946777344 6.410138130187988 3.4205989837646484 C 6.410138130187988 3.4205989837646484 8.667282581329346 5.677176237106323 8.667282581329346 5.677176237106323 Z M 8.667282581329346 5.677176237106323 C 8.667282581329346 5.677176237106323 8.667282581329346 5.677176237106323 8.667282581329346 5.677176237106323 M 32.83263874053955 5.677176237106323 C 32.83263874053955 5.677176237106323 35.08978319168091 3.4205989837646484 35.08978319168091 3.4205989837646484 C 35.53029727935791 2.9802207946777344 35.53029727935791 2.2656891345977783 35.08978319168091 1.8253109455108643 C 34.64901876449585 1.3845717906951904 33.93463325500488 1.3845717906951904 33.49370193481445 1.8253109455108643 C 33.49370193481445 1.8253109455108643 31.236974716186523 4.081527233123779 31.236974716186523 4.081527233123779 C 30.796210289001465 4.522266387939453 30.796210289001465 5.236437082290649 31.236974716186523 5.677176237106323 C 31.677488803863525 6.117554426193237 32.39229154586792 6.117554426193237 32.83263874053955 5.677176237106323 C 32.83263874053955 5.677176237106323 32.83263874053955 5.677176237106323 32.83263874053955 5.677176237106323 Z M 32.83263874053955 5.677176237106323 C 32.83263874053955 5.677176237106323 32.83263874053955 5.677176237106323 32.83263874053955 5.677176237106323 M 32.03480672836304 10.520433902740479 C 32.03480672836304 10.520433902740479 36.548678398132324 10.520433902740479 36.548678398132324 10.520433902740479 C 37.1717734336853 10.520433902740479 37.677292346954346 10.015442848205566 37.677292346954346 9.392416000366211 C 37.677292346954346 8.769028186798096 37.1717734336853 8.264217615127563 36.548678398132324 8.264217615127563 C 36.548678398132324 8.264217615127563 32.03480672836304 8.264217615127563 32.03480672836304 8.264217615127563 C 31.411377906799316 8.264217615127563 30.9062762260437 8.769028186798096 30.9062762260437 9.392416000366211 C 30.9062762260437 10.015442848205566 31.411377906799316 10.520433902740479 32.03480672836304 10.520433902740479 C 32.03480672836304 10.520433902740479 32.03480672836304 10.520433902740479 32.03480672836304 10.520433902740479 Z M 32.03480672836304 10.520433902740479 C 32.03480672836304 10.520433902740479 32.03480672836304 10.520433902740479 32.03480672836304 10.520433902740479"/></g></svg>