<svg version="1.1" xmlns="http://www.w3.org/2000/svg" xmlns:xlink="http://www.w3.org/1999/xlink" width="50" height="42"><defs/><g><path fill="rgb(255,255,255)" stroke="none" paint-order="stroke fill markers" fill-rule="evenodd" d=" M 48.015031814575195 10.839819192886353 C 48.015031814575195 10.839819192886353 48.015031814575195 8.139976024627686 48.015031814575195 8.139976024627686 C 48.015031814575195 8.139976024627686 40.9267520904541 8.139976024627686 40.9267520904541 8.139976024627686 C 40.9267520904541 8.139976024627686 40.9267520904541 37.31521153450012 40.9267520904541 37.31521153450012 C 40.9267520904541 37.31521153450012 38.21791172027588 37.31521153450012 38.21791172027588 37.31521153450012 C 38.21791172027588 37.31521153450012 38.21791172027588 1.0780425071716309 38.21791172027588 1.0780425071716309 C 38.21791172027588 1.0780425071716309 11.580536365509033 1.0780425071716309 11.580536365509033 1.0780425071716309 C 11.580536365509033 1.0780425071716309 11.580536365509033 37.31521153450012 11.580536365509033 37.31521153450012 C 11.580536365509033 37.31521153450012 8.871612548828125 37.31521153450012 8.871612548828125 37.31521153450012 C 8.871612548828125 37.31521153450012 8.871612548828125 8.139976024627686 8.871612548828125 8.139976024627686 C 8.871612548828125 8.139976024627686 1.7834162712097168 8.139976024627686 1.7834162712097168 8.139976024627686 C 1.7834162712097168 8.139976024627686 1.7834162712097168 10.839819192886353 1.7834162712097168 10.839819192886353 C 1.7834162712097168 10.839819192886353 3.0024027824401855 10.839819192886353 3.0024027824401855 10.839819192886353 C 3.0024027824401855 10.839819192886353 3.0024027824401855 37.31521153450012 3.0024027824401855 37.31521153450012 C 3.0024027824401855 37.31521153450012 1.7834162712097168 37.31521153450012 1.7834162712097168 37.31521153450012 C 1.7834162712097168 37.31521153450012 1.7834162712097168 40.01505470275879 1.7834162712097168 40.01505470275879 C 1.7834162712097168 40.01505470275879 48.015031814575195 40.01505470275879 48.015031814575195 40.01505470275879 C 48.015031814575195 40.01505470275879 48.015031814575195 37.31521153450012 48.015031814575195 37.31521153450012 C 48.015031814575195 37.31521153450012 46.79604530334473 37.31521153450012 46.79604530334473 37.31521153450012 C 46.79604530334473 37.31521153450012 46.79604530334473 10.839819192886353 46.79604530334473 10.839819192886353 C 46.79604530334473 10.839819192886353 48.015031814575195 10.839819192886353 48.015031814575195 10.839819192886353 Z M 14.74090576171875 8.139976024627686 C 14.74090576171875 8.139976024627686 35.05754232406616 8.139976024627686 35.05754232406616 8.139976024627686 C 35.05754232406616 8.139976024627686 35.05754232406616 37.31521153450012 35.05754232406616 37.31521153450012 C 35.05754232406616 37.31521153450012 32.348618507385254 37.31521153450012 32.348618507385254 37.31521153450012 C 32.348618507385254 37.31521153450012 32.348618507385254 10.839819192886353 32.348618507385254 10.839819192886353 C 32.348618507385254 10.839819192886353 17.449746131896973 10.839819192886353 17.449746131896973 10.839819192886353 C 17.449746131896973 10.839819192886353 17.449746131896973 37.31521153450012 17.449746131896973 37.31521153450012 C 17.449746131896973 37.31521153450012 14.74090576171875 37.31521153450012 14.74090576171875 37.31521153450012 C 14.74090576171875 37.31521153450012 14.74090576171875 8.139976024627686 14.74090576171875 8.139976024627686 Z M 23.319039344787598 34.23888111114502 C 23.319039344787598 34.23888111114502 23.319039344787598 37.31521153450012 23.319039344787598 37.31521153450012 C 23.319039344787598 37.31521153450012 20.61011552810669 37.31521153450012 20.61011552810669 37.31521153450012 C 20.61011552810669 37.31521153450012 20.61011552810669 31.539037942886353 20.61011552810669 31.539037942886353 C 20.61011552810669 31.539037942886353 29.188249111175537 31.539037942886353 29.188249111175537 31.539037942886353 C 29.188249111175537 31.539037942886353 29.188249111175537 37.31521153450012 29.188249111175537 37.31521153450012 C 29.188249111175537 37.31521153450012 26.479408740997314 37.31521153450012 26.479408740997314 37.31521153450012 C 26.479408740997314 37.31521153450012 26.479408740997314 34.23888111114502 26.479408740997314 34.23888111114502 C 26.479408740997314 34.23888111114502 23.319039344787598 34.23888111114502 23.319039344787598 34.23888111114502 Z M 23.319039344787598 19.83941674232483 C 23.319039344787598 19.83941674232483 23.319039344787598 22.539259910583496 23.319039344787598 22.539259910583496 C 23.319039344787598 22.539259910583496 20.61011552810669 22.539259910583496 20.61011552810669 22.539259910583496 C 20.61011552810669 22.539259910583496 20.61011552810669 19.83941674232483 20.61011552810669 19.83941674232483 C 20.61011552810669 19.83941674232483 23.319039344787598 19.83941674232483 23.319039344787598 19.83941674232483 Z M 20.61011552810669 16.689629793167114 C 20.61011552810669 16.689629793167114 20.61011552810669 13.989606142044067 20.61011552810669 13.989606142044067 C 20.61011552810669 13.989606142044067 23.319039344787598 13.989606142044067 23.319039344787598 13.989606142044067 C 23.319039344787598 13.989606142044067 23.319039344787598 16.689629793167114 23.319039344787598 16.689629793167114 C 23.319039344787598 16.689629793167114 20.61011552810669 16.689629793167114 20.61011552810669 16.689629793167114 Z M 23.319039344787598 25.68922734260559 C 23.319039344787598 25.68922734260559 23.319039344787598 28.389070510864258 23.319039344787598 28.389070510864258 C 23.319039344787598 28.389070510864258 20.61011552810669 28.389070510864258 20.61011552810669 28.389070510864258 C 20.61011552810669 28.389070510864258 20.61011552810669 25.68922734260559 20.61011552810669 25.68922734260559 C 20.61011552810669 25.68922734260559 23.319039344787598 25.68922734260559 23.319039344787598 25.68922734260559 Z M 29.188249111175537 19.83941674232483 C 29.188249111175537 19.83941674232483 29.188249111175537 22.539259910583496 29.188249111175537 22.539259910583496 C 29.188249111175537 22.539259910583496 26.479408740997314 22.539259910583496 26.479408740997314 22.539259910583496 C 26.479408740997314 22.539259910583496 26.479408740997314 19.83941674232483 26.479408740997314 19.83941674232483 C 26.479408740997314 19.83941674232483 29.188249111175537 19.83941674232483 29.188249111175537 19.83941674232483 Z M 26.479408740997314 16.689629793167114 C 26.479408740997314 16.689629793167114 26.479408740997314 13.989606142044067 26.479408740997314 13.989606142044067 C 26.479408740997314 13.989606142044067 29.188249111175537 13.989606142044067 29.188249111175537 13.989606142044067 C 29.188249111175537 13.989606142044067 29.188249111175537 16.689629793167114 29.188249111175537 16.689629793167114 C 29.188249111175537 16.689629793167114 26.479408740997314 16.689629793167114 26.479408740997314 16.689629793167114 Z M 29.188249111175537 25.68922734260559 C 29.188249111175537 25.68922734260559 29.188249111175537 28.389070510864258 29.188249111175537 28.389070510864258 C 29.188249111175537 28.389070510864258 26.479408740997314 28.389070510864258 26.479408740997314 28.389070510864258 C 26.479408740997314 28.389070510864258 26.479408740997314 25.68922734260559 26.479408740997314 25.68922734260559 C 26.479408740997314 25.68922734260559 29.188249111175537 25.68922734260559 29.188249111175537 25.68922734260559 Z M 29.188249111175537 25.68922734260559 C 29.188249111175537 25.68922734260559 29.188249111175537 25.68922734260559 29.188249111175537 25.68922734260559"/></g></svg>