<svg version="1.1" xmlns="http://www.w3.org/2000/svg" xmlns:xlink="http://www.w3.org/1999/xlink" width="29" height="44"><defs/><g><path fill="rgb(255,255,255)" stroke="none" paint-order="stroke fill markers" fill-rule="evenodd" d=" M 14.780810356140137 10.76294732093811 C 17.384591579437256 10.76294732093811 19.501545906066895 8.627113103866577 19.501545906066895 6.000185012817383 C 19.501545906066895 3.3748812675476074 17.384591579437256 1.2374227046966553 14.780810356140137 1.2374227046966553 C 12.178614616394043 1.2374227046966553 10.060074806213379 3.3748812675476074 10.060074806213379 6.000185012817383 C 10.060074806213379 8.627113103866577 12.178614616394043 10.76294732093811 14.780810356140137 10.76294732093811 C 14.780810356140137 10.76294732093811 14.780810356140137 10.76294732093811 14.780810356140137 10.76294732093811 Z M 14.780810356140137 10.76294732093811 C 14.780810356140137 10.76294732093811 14.780810356140137 10.76294732093811 14.780810356140137 10.76294732093811 M 26.66642951965332 5.3046040534973145 C 26.66642951965332 5.3046040534973145 26.17301034927368 5.3046040534973145 26.17301034927368 5.3046040534973145 C 25.451448440551758 5.3046040534973145 24.866488456726074 5.894783020019531 24.866488456726074 6.622128963470459 C 24.866488456726074 6.622128963470459 24.866488456726074 11.44084095954895 24.866488456726074 11.44084095954895 C 24.866488456726074 11.683229446411133 24.670973300933838 11.881038665771484 24.43031358718872 11.881038665771484 C 24.43031358718872 11.881038665771484 18.546250343322754 11.881038665771484 18.546250343322754 11.881038665771484 C 18.528810024261475 11.881038665771484 18.51412343978882 11.885370254516602 18.497267246246338 11.885370254516602 C 18.480327606201172 11.885370254516602 18.465140342712402 11.881038665771484 18.446031093597412 11.881038665771484 C 18.446031093597412 11.881038665771484 11.115005493164062 11.881038665771484 11.115005493164062 11.881038665771484 C 11.098149299621582 11.881038665771484 11.081209659576416 11.885370254516602 11.063769340515137 11.885370254516602 C 11.046913146972656 11.885370254516602 11.0322265625 11.881038665771484 11.01537036895752 11.881038665771484 C 11.01537036895752 11.881038665771484 5.132976055145264 11.881038665771484 5.132976055145264 11.881038665771484 C 4.892232894897461 11.881038665771484 4.696717739105225 11.683229446411133 4.696717739105225 11.44084095954895 C 4.696717739105225 11.44084095954895 4.696717739105225 6.622128963470459 4.696717739105225 6.622128963470459 C 4.696717739105225 5.894783020019531 4.109588146209717 5.3046040534973145 3.3885269165039062 5.3046040534973145 C 3.3885269165039062 5.3046040534973145 2.8946070671081543 5.3046040534973145 2.8946070671081543 5.3046040534973145 C 2.175715446472168 5.3046040534973145 1.5885858535766602 5.894783020019531 1.5885858535766602 6.622128963470459 C 1.5885858535766602 6.622128963470459 1.5885858535766602 14.188151121139526 1.5885858535766602 14.188151121139526 C 1.5885858535766602 14.915677547454834 2.175715446472168 15.50802230834961 2.8946070671081543 15.50802230834961 C 2.8946070671081543 15.50802230834961 9.808984279632568 15.50802230834961 9.808984279632568 15.50802230834961 C 9.808984279632568 15.50802230834961 9.808984279632568 26.61078667640686 9.808984279632568 26.61078667640686 C 9.808984279632568 26.61078667640686 7.432344436645508 32.086095333099365 7.432344436645508 32.086095333099365 C 7.158389568328857 32.72139501571655 6.943264484405518 33.76025438308716 6.943264484405518 34.45366954803467 C 6.943264484405518 34.45366954803467 6.943264484405518 41.326276540756226 6.943264484405518 41.326276540756226 C 6.943264484405518 42.19728684425354 7.645299911499023 42.90766739845276 8.511224269866943 42.90766739845276 C 8.511224269866943 42.90766739845276 9.885254383087158 42.90766739845276 9.885254383087158 42.90766739845276 C 10.749009132385254 42.90766739845276 11.453214168548584 42.19728684425354 11.453214168548584 41.326276540756226 C 11.453214168548584 41.326276540756226 11.453214168548584 34.45366954803467 11.453214168548584 34.45366954803467 C 11.453214168548584 33.886772871017456 11.657407760620117 32.97677826881409 11.89815092086792 32.46637272834778 C 11.89815092086792 32.46637272834778 14.010682582855225 27.98011016845703 14.010682582855225 27.98011016845703 C 14.010682582855225 27.98011016845703 15.51004934310913 27.98011016845703 15.51004934310913 27.98011016845703 C 15.51004934310913 27.98011016845703 17.667224884033203 32.5585994720459 17.667224884033203 32.5585994720459 C 17.907968044281006 33.06918549537659 18.109992027282715 33.978999614715576 18.109992027282715 34.54391098022461 C 18.109992027282715 34.54391098022461 18.109992027282715 41.41651797294617 18.109992027282715 41.41651797294617 C 18.109992027282715 42.28951358795166 18.814197063446045 42.99989414215088 19.680121421813965 42.99989414215088 C 19.680121421813965 42.99989414215088 21.05206537246704 42.99989414215088 21.05206537246704 42.99989414215088 C 21.91798973083496 42.99989414215088 22.622111320495605 42.28951358795166 22.622111320495605 41.41651797294617 C 22.622111320495605 41.41651797294617 22.622111320495605 34.54391098022461 22.622111320495605 34.54391098022461 C 22.622111320495605 33.85266160964966 22.407570362091064 32.81362175941467 22.135284423828125 32.178502559661865 C 22.135284423828125 32.178502559661865 19.75422191619873 26.62847399711609 19.75422191619873 26.62847399711609 C 19.75422191619873 26.62847399711609 19.75422191619873 15.50802230834961 19.75422191619873 15.50802230834961 C 19.75422191619873 15.50802230834961 26.66642951965332 15.50802230834961 26.66642951965332 15.50802230834961 C 27.38749074935913 15.50802230834961 27.97462034225464 14.915677547454834 27.97462034225464 14.188151121139526 C 27.97462034225464 14.188151121139526 27.97462034225464 6.622128963470459 27.97462034225464 6.622128963470459 C 27.972450733184814 5.894783020019531 27.38749074935913 5.3046040534973145 26.66642951965332 5.3046040534973145 C 26.66642951965332 5.3046040534973145 26.66642951965332 5.3046040534973145 26.66642951965332 5.3046040534973145 Z M 26.66642951965332 5.3046040534973145 C 26.66642951965332 5.3046040534973145 26.66642951965332 5.3046040534973145 26.66642951965332 5.3046040534973145"/></g></svg>