<svg version="1.1" xmlns="http://www.w3.org/2000/svg" xmlns:xlink="http://www.w3.org/1999/xlink" width="45" height="45"><defs/><g><path fill="rgb(252,255,255)" stroke="none" paint-order="stroke fill markers" fill-rule="evenodd" d=" M 43.405627727508545 15.319859743118286 C 43.769704818725586 11.313862085342407 42.53845167160034 7.67550802230835 39.938175201416016 5.075471878051758 C 37.33773183822632 2.4750747680664062 33.69938087463379 1.2438206672668457 29.693781852722168 1.6080350875854492 C 25.771963119506836 1.964308261871338 21.956204891204834 3.817145347595215 18.948792934417725 6.824711799621582 C 15.941631317138672 9.83173680305481 14.088868618011475 13.647866487503052 13.732468605041504 17.569398164749146 C 13.622486114501953 18.77700901031494 13.658618450164795 19.95068907737732 13.832520961761475 21.07275104522705 C 13.832520961761475 21.07275104522705 11.07761812210083 28.858962297439575 11.07761812210083 28.858962297439575 C 10.918735980987549 29.308545112609863 11.032056331634521 29.809385061264038 11.36918020248413 30.1461660861969 C 11.36918020248413 30.1461660861969 14.86717414855957 33.64428496360779 14.86717414855957 33.64428496360779 C 15.103327751159668 33.880176067352295 15.41942310333252 34.00687503814697 15.741943836212158 34.00687503814697 C 15.880131244659424 34.00687503814697 16.01982069015503 33.98377323150635 16.154253005981445 33.93594527244568 C 16.154253005981445 33.93594527244568 23.939895153045654 31.181054830551147 23.939895153045654 31.181054830551147 C 24.633919715881348 31.288803100585938 25.347721099853516 31.343669891357422 26.07679319381714 31.343669891357422 C 26.52690362930298 31.343669891357422 26.983105659484863 31.323094844818115 27.44431447982788 31.281222820281982 C 31.3656325340271 30.924588680267334 35.181891441345215 29.071932077407837 38.1888861656189 26.06472659111023 C 41.19646501541138 23.057340621948242 43.04914426803589 19.2412109375 43.405627727508545 15.319859743118286 C 43.405627727508545 15.319859743118286 43.405627727508545 15.319859743118286 43.405627727508545 15.319859743118286 Z M 40.75795364379883 16.38994264602661 C 40.75795364379883 16.38994264602661 39.938175201416016 15.570189476013184 39.938175201416016 15.570189476013184 C 39.938175201416016 15.570189476013184 40.97992134094238 14.5284423828125 40.97992134094238 14.5284423828125 C 40.95205020904541 15.14424991607666 40.878116607666016 15.766554832458496 40.75795364379883 16.38994264602661 C 40.75795364379883 16.38994264602661 40.75795364379883 16.38994264602661 40.75795364379883 16.38994264602661 Z M 40.683269023895264 11.327037334442139 C 40.683269023895264 11.327037334442139 38.1888861656189 13.82094955444336 38.1888861656189 13.82094955444336 C 38.1888861656189 13.82094955444336 35.5653281211853 11.197270154953003 35.5653281211853 11.197270154953003 C 35.5653281211853 11.197270154953003 39.004075050354004 7.758710622787476 39.004075050354004 7.758710622787476 C 39.81050205230713 8.818686485290527 40.36800813674927 10.029726505279541 40.683269023895264 11.327037334442139 C 40.683269023895264 11.327037334442139 40.683269023895264 11.327037334442139 40.683269023895264 11.327037334442139 Z M 36.44009780883789 15.570189476013184 C 36.44009780883789 15.570189476013184 32.94177007675171 19.068488836288452 32.94177007675171 19.068488836288452 C 32.94177007675171 19.068488836288452 30.3182954788208 16.444628953933716 30.3182954788208 16.444628953933716 C 30.3182954788208 16.444628953933716 33.81612253189087 12.946149110794067 33.81612253189087 12.946149110794067 C 33.81612253189087 12.946149110794067 36.44009780883789 15.570189476013184 36.44009780883789 15.570189476013184 Z M 33.68686389923096 4.330258131027222 C 34.98429012298584 4.645561695098877 36.195849895477295 5.202531814575195 37.255703926086426 6.009109735488892 C 37.255703926086426 6.009109735488892 33.81612253189087 9.448210716247559 33.81612253189087 9.448210716247559 C 33.81612253189087 9.448210716247559 31.19264793395996 6.824711799621582 31.19264793395996 6.824711799621582 C 31.19264793395996 6.824711799621582 33.68686389923096 4.330258131027222 33.68686389923096 4.330258131027222 Z M 32.06741762161255 11.197270154953003 C 32.06741762161255 11.197270154953003 28.56900644302368 14.695389032363892 28.56900644302368 14.695389032363892 C 28.56900644302368 14.695389032363892 25.94503116607666 12.071709632873535 25.94503116607666 12.071709632873535 C 25.94503116607666 12.071709632873535 29.443442344665527 8.573410272598267 29.443442344665527 8.573410272598267 C 29.443442344665527 8.573410272598267 32.06741762161255 11.197270154953003 32.06741762161255 11.197270154953003 Z M 20.697915077209473 17.319429397583008 C 20.697915077209473 17.319429397583008 24.196242809295654 13.82094955444336 24.196242809295654 13.82094955444336 C 24.196242809295654 13.82094955444336 26.819800853729248 16.444628953933716 26.819800853729248 16.444628953933716 C 26.819800853729248 16.444628953933716 23.321473121643066 19.942928314208984 23.321473121643066 19.942928314208984 C 23.321473121643066 19.942928314208984 20.697915077209473 17.319429397583008 20.697915077209473 17.319429397583008 Z M 21.572768211364746 21.69216823577881 C 21.572768211364746 21.69216823577881 18.13393783569336 25.130727767944336 18.13393783569336 25.130727767944336 C 17.32742738723755 24.070932388305664 16.770004749298096 22.85989236831665 16.454827308654785 21.562401056289673 C 16.454827308654785 21.562401056289673 18.948792934417725 19.068488836288452 18.948792934417725 19.068488836288452 C 18.948792934417725 19.068488836288452 21.572768211364746 21.69216823577881 21.572768211364746 21.69216823577881 Z M 30.48527193069458 4.034085750579834 C 30.48527193069458 4.034085750579834 29.443442344665527 5.075471878051758 29.443442344665527 5.075471878051758 C 29.443442344665527 5.075471878051758 28.62391424179077 4.25607967376709 28.62391424179077 4.25607967376709 C 29.247509956359863 4.135878086090088 29.869436740875244 4.062060594558716 30.48527193069458 4.034085750579834 C 30.48527193069458 4.034085750579834 30.48527193069458 4.034085750579834 30.48527193069458 4.034085750579834 Z M 25.932597637176514 5.062477111816406 C 25.932597637176514 5.062477111816406 27.694153308868408 6.824711799621582 27.694153308868408 6.824711799621582 C 27.694153308868408 6.824711799621582 24.196242809295654 10.32265019416809 24.196242809295654 10.32265019416809 C 24.196242809295654 10.32265019416809 21.604978561401367 7.731818675994873 21.604978561401367 7.731818675994873 C 22.947465896606445 6.574382066726685 24.41837739944458 5.681713819503784 25.932597637176514 5.062477111816406 C 25.932597637176514 5.062477111816406 25.932597637176514 5.062477111816406 25.932597637176514 5.062477111816406 Z M 19.856106758117676 9.481419563293457 C 19.856106758117676 9.481419563293457 22.447120666503906 12.071709632873535 22.447120666503906 12.071709632873535 C 22.447120666503906 12.071709632873535 18.948792934417725 15.570189476013184 18.948792934417725 15.570189476013184 C 18.948792934417725 15.570189476013184 17.186152458190918 13.807774305343628 17.186152458190918 13.807774305343628 C 17.805909633636475 12.293342590332031 18.699204444885254 10.823309659957886 19.856106758117676 9.481419563293457 C 19.856106758117676 9.481419563293457 19.856106758117676 9.481419563293457 19.856106758117676 9.481419563293457 Z M 16.380059242248535 16.49967622756958 C 16.380059242248535 16.49967622756958 17.199921131134033 17.319429397583008 17.199921131134033 17.319429397583008 C 17.199921131134033 17.319429397583008 16.157674312591553 18.36117649078369 16.157674312591553 18.36117649078369 C 16.18604612350464 17.74536895751953 16.25947904586792 17.123064041137695 16.380059242248535 16.49967622756958 C 16.380059242248535 16.49967622756958 16.380059242248535 16.49967622756958 16.380059242248535 16.49967622756958 Z M 16.064881801605225 31.343669891357422 C 16.064881801605225 31.343669891357422 13.669800281524658 28.948662281036377 13.669800281524658 28.948662281036377 C 13.669800281524658 28.948662281036377 15.089141845703125 24.93743062019348 15.089141845703125 24.93743062019348 C 15.639721870422363 25.992172479629517 16.345345497131348 26.95938014984131 17.199503898620605 27.813966512680054 C 18.05374574661255 28.66819190979004 19.02047348022461 29.37442135810852 20.07473659515381 29.924894094467163 C 20.07473659515381 29.924894094467163 16.064881801605225 31.343669891357422 16.064881801605225 31.343669891357422 Z M 23.451232433319092 28.55863881111145 C 22.15380620956421 28.243515729904175 20.94266366958618 27.686004161834717 19.88322687149048 26.8796067237854 C 19.88322687149048 26.8796067237854 23.321473121643066 23.440686225891113 23.321473121643066 23.440686225891113 C 23.321473121643066 23.440686225891113 25.945448398590088 26.06472659111023 25.945448398590088 26.06472659111023 C 25.945448398590088 26.06472659111023 23.451232433319092 28.55863881111145 23.451232433319092 28.55863881111145 Z M 25.070595264434814 21.69216823577881 C 25.070595264434814 21.69216823577881 28.56900644302368 18.19386887550354 28.56900644302368 18.19386887550354 C 28.56900644302368 18.19386887550354 31.19264793395996 20.817187309265137 31.19264793395996 20.817187309265137 C 31.19264793395996 20.817187309265137 27.694153308868408 24.315667152404785 27.694153308868408 24.315667152404785 C 27.694153308868408 24.315667152404785 25.070595264434814 21.69216823577881 25.070595264434814 21.69216823577881 Z M 26.652323722839355 28.855894088745117 C 26.652323722839355 28.855894088745117 27.694153308868408 27.813786029815674 27.694153308868408 27.813786029815674 C 27.694153308868408 27.813786029815674 28.514015197753906 28.6335391998291 28.514015197753906 28.6335391998291 C 27.890836715698242 28.754101753234863 27.26815891265869 28.827558279037476 26.652323722839355 28.855894088745117 C 26.652323722839355 28.855894088745117 26.652323722839355 28.855894088745117 26.652323722839355 28.855894088745117 Z M 31.205915927886963 27.827322244644165 C 31.205915927886963 27.827322244644165 29.443442344665527 26.06472659111023 29.443442344665527 26.06472659111023 C 29.443442344665527 26.06472659111023 32.94177007675171 22.56660771369934 32.94177007675171 22.56660771369934 C 32.94177007675171 22.56660771369934 35.532700538635254 25.15743923187256 35.532700538635254 25.15743923187256 C 34.190213203430176 26.314334392547607 32.7201361656189 27.207544088363647 31.205915927886963 27.827322244644165 C 31.205915927886963 27.827322244644165 31.205915927886963 27.827322244644165 31.205915927886963 27.827322244644165 Z M 34.69097566604614 20.817187309265137 C 34.69097566604614 20.817187309265137 38.189303398132324 17.319429397583008 38.189303398132324 17.319429397583008 C 38.189303398132324 17.319429397583008 39.951860427856445 19.081844568252563 39.951860427856445 19.081844568252563 C 39.332186698913574 20.59573483467102 38.438891887664795 22.065587282180786 37.281822681427 23.408199310302734 C 37.281822681427 23.408199310302734 34.69097566604614 20.817187309265137 34.69097566604614 20.817187309265137 Z M 34.69097566604614 20.817187309265137 C 34.69097566604614 20.817187309265137 34.69097566604614 20.817187309265137 34.69097566604614 20.817187309265137 M 43.46696090698242 39.22788333892822 C 43.46696090698242 41.732444047927856 41.43687438964844 43.76287627220154 38.932311058044434 43.76287627220154 C 36.42774772644043 43.76287627220154 34.39724397659302 41.732444047927856 34.39724397659302 39.22788333892822 C 34.39724397659302 36.72314214706421 36.42774772644043 34.69325137138367 38.932311058044434 34.69325137138367 C 41.43687438964844 34.69325137138367 43.46696090698242 36.72314214706421 43.46696090698242 39.22788333892822 C 43.46696090698242 39.22788333892822 43.46696090698242 39.22788333892822 43.46696090698242 39.22788333892822 Z M 43.46696090698242 39.22788333892822 C 43.46696090698242 39.22788333892822 43.46696090698242 39.22788333892822 43.46696090698242 39.22788333892822 M 1.7338628768920898 39.78178524971008 C 1.0895724296569824 40.425567626953125 1.0895724296569824 41.47002196311951 1.7338628768920898 42.11380434036255 C 1.7338628768920898 42.11380434036255 2.899777412414551 43.27972364425659 2.899777412414551 43.27972364425659 C 3.5439844131469727 43.923866987228394 4.58798360824585 43.923866987228394 5.231773376464844 43.27972364425659 C 5.231773376464844 43.27972364425659 9.619974613189697 38.89200472831726 9.619974613189697 38.89200472831726 C 9.619974613189697 38.89200472831726 6.121646881103516 35.39370536804199 6.121646881103516 35.39370536804199 C 6.121646881103516 35.39370536804199 1.7338628768920898 39.78178524971008 1.7338628768920898 39.78178524971008 Z M 1.7338628768920898 39.78178524971008 C 1.7338628768920898 39.78178524971008 1.7338628768920898 39.78178524971008 1.7338628768920898 39.78178524971008 M 7.8669304847717285 33.64229965209961 C 7.8669304847717285 33.64229965209961 9.615718841552734 31.893601179122925 9.615718841552734 31.893601179122925 C 9.615718841552734 31.893601179122925 13.113128662109375 35.390998125076294 13.113128662109375 35.390998125076294 C 13.113128662109375 35.390998125076294 11.364423751831055 37.13987708091736 11.364423751831055 37.13987708091736 C 11.364423751831055 37.13987708091736 7.8669304847717285 33.64229965209961 7.8669304847717285 33.64229965209961 Z M 7.8669304847717285 33.64229965209961 C 7.8669304847717285 33.64229965209961 7.8669304847717285 33.64229965209961 7.8669304847717285 33.64229965209961"/></g></svg>