<svg version="1.1" xmlns="http://www.w3.org/2000/svg" xmlns:xlink="http://www.w3.org/1999/xlink" width="35" height="42"><defs/><g><path fill="rgb(255,255,255)" stroke="none" paint-order="stroke fill markers" fill-rule="evenodd" d=" M 24.61902952194214 21.449710369110107 C 19.453190326690674 21.449710369110107 15.250657558441162 25.655322074890137 15.250657558441162 30.82489275932312 C 15.250657558441162 35.994282960891724 19.453190326690674 40.19989466667175 24.61902952194214 40.19989466667175 C 29.784868717193604 40.19989466667175 33.987401485443115 35.994282960891724 33.987401485443115 30.82489275932312 C 33.987401485443115 25.655322074890137 29.784868717193604 21.449710369110107 24.61902952194214 21.449710369110107 C 24.61902952194214 21.449710369110107 24.61902952194214 21.449710369110107 24.61902952194214 21.449710369110107 Z M 24.99378776550293 31.574979543685913 C 24.372695446014404 31.574979543685913 23.869513034820557 31.07143235206604 23.869513034820557 30.449849367141724 C 23.869513034820557 29.828446865081787 24.372695446014404 29.324899673461914 24.99378776550293 29.324899673461914 C 25.61479663848877 29.324899673461914 26.117979049682617 29.828446865081787 26.117979049682617 30.449849367141724 C 26.117979049682617 31.07143235206604 25.61479663848877 31.574979543685913 24.99378776550293 31.574979543685913 C 24.99378776550293 31.574979543685913 24.99378776550293 31.574979543685913 24.99378776550293 31.574979543685913 Z M 26.492737293243408 26.69977641105652 C 26.492737293243408 26.078373908996582 26.99583625793457 25.57482671737671 27.616928577423096 25.57482671737671 C 28.237937450408936 25.57482671737671 28.741119861602783 26.078373908996582 28.741119861602783 26.69977641105652 C 28.741119861602783 27.321359395980835 28.237937450408936 27.824906587600708 27.616928577423096 27.824906587600708 C 26.99583625793457 27.824906587600708 26.492737293243408 27.321359395980835 26.492737293243408 26.69977641105652 C 26.492737293243408 26.69977641105652 26.492737293243408 26.69977641105652 26.492737293243408 26.69977641105652 Z M 29.49055290222168 31.574979543685913 C 28.86954402923584 31.574979543685913 28.366361618041992 31.07143235206604 28.366361618041992 30.449849367141724 C 28.366361618041992 29.828446865081787 28.86954402923584 29.324899673461914 29.49055290222168 29.324899673461914 C 30.111645221710205 29.324899673461914 30.614827632904053 29.828446865081787 30.614827632904053 30.449849367141724 C 30.614827632904053 31.07143235206604 30.111645221710205 31.574979543685913 29.49055290222168 31.574979543685913 C 29.49055290222168 31.574979543685913 29.49055290222168 31.574979543685913 29.49055290222168 31.574979543685913 Z M 29.49055290222168 31.574979543685913 C 29.49055290222168 31.574979543685913 29.49055290222168 31.574979543685913 29.49055290222168 31.574979543685913 M 5.407141208648682 10.963475465774536 C 5.407141208648682 10.963475465774536 10.379050731658936 14.451126337051392 10.379050731658936 14.451126337051392 C 10.379050731658936 14.451126337051392 15.35096025466919 10.963475465774536 15.35096025466919 10.963475465774536 C 15.35096025466919 10.963475465774536 15.883015155792236 9.04891324043274 15.883015155792236 9.04891324043274 C 16.36583662033081 7.312307119369507 16.01769781112671 5.493220329284668 14.928136825561523 4.05802059173584 C 13.838325500488281 2.6228208541870117 12.180076599121094 1.799818992614746 10.379050731658936 1.799818992614746 C 8.578024864196777 1.799818992614746 6.91977596282959 2.6228208541870117 5.83029842376709 4.05802059173584 C 4.740487098693848 5.493220329284668 4.3922648429870605 7.312307119369507 4.87516975402832 9.04891324043274 C 4.87516975402832 9.04891324043274 5.407141208648682 10.963475465774536 5.407141208648682 10.963475465774536 Z M 5.407141208648682 10.963475465774536 C 5.407141208648682 10.963475465774536 5.407141208648682 10.963475465774536 5.407141208648682 10.963475465774536 M 10.379050731658936 19.021313428878784 C 10.379050731658936 19.021313428878784 14.845441341400146 16.404492378234863 14.845441341400146 16.404492378234863 C 14.67804765701294 15.68653154373169 14.611958026885986 14.94510793685913 14.650259971618652 14.202420949935913 C 14.650259971618652 14.202420949935913 11.02434253692627 16.74578547477722 11.02434253692627 16.74578547477722 C 10.8307466506958 16.881869554519653 10.604690074920654 16.94991159439087 10.379050731658936 16.94991159439087 C 10.153411388397217 16.94991159439087 9.92735481262207 16.881869554519653 9.733842372894287 16.74578547477722 C 9.733842372894287 16.74578547477722 6.107924938201904 14.202420949935913 6.107924938201904 14.202420949935913 C 6.146143436431885 14.94510793685913 6.080471038818359 15.68653154373169 5.913160800933838 16.404492378234863 C 5.913160800933838 16.404492378234863 10.379050731658936 19.021313428878784 10.379050731658936 19.021313428878784 Z M 10.379050731658936 19.021313428878784 C 10.379050731658936 19.021313428878784 10.379050731658936 19.021313428878784 10.379050731658936 19.021313428878784 M 17.416678428649902 21.710327625274658 C 16.988097190856934 20.72362780570984 16.47865629196167 19.772483110427856 15.89119291305542 18.867000579833984 C 15.817843437194824 18.753657341003418 15.747581481933594 18.638870239257812 15.680824279785156 18.522639274597168 C 15.680824279785156 18.522639274597168 10.947071075439453 21.295578002929688 10.947071075439453 21.295578002929688 C 10.771833419799805 21.39827275276184 10.575400352478027 21.449710369110107 10.379050731658936 21.449710369110107 C 10.182701110839844 21.449710369110107 9.986351490020752 21.39827275276184 9.811030387878418 21.295578002929688 C 9.811030387878418 21.295578002929688 5.077277183532715 18.522639274597168 5.077277183532715 18.522639274597168 C 5.010186195373535 18.638870239257812 4.940341472625732 18.753657341003418 4.866991996765137 18.867000579833984 C 2.9604897499084473 21.807246923446655 1.8901214599609375 25.150150537490845 1.7714605331420898 28.535287141799927 C 1.587294101715088 33.792031049728394 3.6849722862243652 37.78467297554016 4.951690196990967 39.69634747505188 C 5.160056114196777 40.010748624801636 5.511783123016357 40.19989466667175 5.888877868652344 40.19989466667175 C 5.888877868652344 40.19989466667175 14.869307041168213 40.19989466667175 14.869307041168213 40.19989466667175 C 15.246318340301514 40.19989466667175 15.59812879562378 40.010748624801636 15.806411266326904 39.69634747505188 C 15.974305629730225 39.443310499191284 16.13519048690796 39.18377614021301 16.291318893432617 38.9209930896759 C 14.257226943969727 36.825947999954224 13.002191543579102 33.9696261882782 13.002191543579102 30.82489275932312 C 13.002191543579102 27.134920597076416 14.729116916656494 23.841288805007935 17.416678428649902 21.710327625274658 C 17.416678428649902 21.710327625274658 17.416678428649902 21.710327625274658 17.416678428649902 21.710327625274658 Z M 17.416678428649902 21.710327625274658 C 17.416678428649902 21.710327625274658 17.416678428649902 21.710327625274658 17.416678428649902 21.710327625274658"/></g></svg>