<svg version="1.1" xmlns="http://www.w3.org/2000/svg" xmlns:xlink="http://www.w3.org/1999/xlink" width="48" height="44"><defs/><g><path fill="rgb(255,255,255)" stroke="none" paint-order="stroke fill markers" fill-rule="evenodd" d=" M 46.19677782058716 24.543797492980957 C 46.06635093688965 23.916800022125244 46.014864444732666 23.254969358444214 45.512099266052246 22.744383335113525 C 44.978792667388916 22.203837156295776 44.294114112854004 22.07316756248474 43.60876798629761 22.000974416732788 C 42.77204990386963 21.910372018814087 41.92331552505493 21.90549898147583 41.015918254852295 21.868499994277954 C 40.91778516769409 21.863626956939697 40.85670232772827 21.78186821937561 40.88065147399902 21.68891954421997 C 40.929718017578125 21.502119779586792 40.97402811050415 21.315861463546753 41.02309465408325 21.131588459014893 C 41.37148380279541 19.79402995109558 41.20083570480347 18.528303623199463 40.57657241821289 17.290913105010986 C 40.0037956237793 16.157841682434082 39.84457969665527 14.978747129440308 40.33123970031738 13.752727031707764 C 40.47601938247681 13.384722471237183 40.541274547576904 12.986035823822021 40.62563896179199 12.608465671539307 C 40.64666748046875 12.512809753417969 40.74480056762695 12.41751480102539 40.842933654785156 12.410295486450195 C 41.43665552139282 12.366257667541504 41.52585983276367 12.86493182182312 41.694087982177734 13.38923454284668 C 41.90896272659302 14.055938243865967 42.11958169937134 14.778411149978638 42.71338701248169 15.230701208114624 C 42.93059825897217 15.398369789123535 43.28132390975952 15.493664741516113 43.55252504348755 15.465689897537231 C 44.417948722839355 15.377433776855469 45.123655796051025 14.864320993423462 45.78563690185547 14.377558708190918 C 46.03822946548462 14.18895411491394 46.098644733428955 13.575492858886719 46.04715824127197 13.181679248809814 C 45.96997022628784 12.605938911437988 45.68984031677246 12.058173418045044 45.542640686035156 11.487306118011475 C 45.33911466598511 10.715741872787476 45.154197216033936 9.9376802444458 44.97161626815796 9.161423444747925 C 44.899184703826904 8.848827123641968 44.76391792297363 8.501578092575073 44.78970289230347 8.177611351013184 C 44.815404415130615 7.842274188995361 45.035035610198975 7.553501605987549 45.05364418029785 7.215276718139648 C 45.074589252471924 6.821463108062744 44.96978044509888 6.464648485183716 44.871063232421875 6.08924412727356 C 44.670541286468506 5.322552919387817 44.45032596588135 4.611991882324219 43.97150993347168 3.971097230911255 C 43.91284704208374 3.8918652534484863 43.840415477752686 3.8685829639434814 43.884642124176025 3.779604911804199 C 44.1815447807312 3.1782360076904297 43.96667003631592 2.6120612621307373 43.77457618713379 2.050579071044922 C 43.75363111495972 1.9848833084106445 43.55010509490967 1.9639472961425781 43.42860698699951 1.9597961902618408 C 43.37954044342041 1.9597961902618408 43.32563400268555 2.057798385620117 43.276567459106445 2.113206624984741 C 43.082637786865234 2.3303275108337402 42.92584180831909 2.6351630687713623 42.68284559249878 2.7427308559417725 C 42.493672370910645 2.826835870742798 42.1896767616272 2.681908130645752 41.9465970993042 2.609714984893799 C 41.315157413482666 2.4211103916168213 40.707082748413086 2.5420339107513428 40.09475231170654 2.703205108642578 C 39.97091770172119 2.735511541366577 39.790756702423096 2.6961662769317627 39.68361139297485 2.621626853942871 C 39.47048902511597 2.477240562438965 39.26220655441284 2.3254544734954834 39.04733180999756 2.1669905185699463 C 38.699026107788086 1.908539056777954 38.366825580596924 1.6495461463928223 38.30641031265259 1.6751747131347656 C 38.27586889266968 1.6865451335906982 38.250083923339844 1.719393014907837 38.24057102203369 1.7657771110534668 C 38.219542503356934 1.8524088859558105 38.205857276916504 1.9294750690460205 38.23815107345581 1.9736933708190918 C 38.50025653839111 2.336824893951416 38.54456663131714 2.735511541366577 38.53739023208618 3.1017112731933594 C 38.535637855529785 3.1997134685516357 38.46495866775513 3.3231637477874756 38.38117837905884 3.3769476413726807 C 38.079519271850586 3.5678985118865967 37.78920888900757 3.721669912338257 37.56298542022705 3.943122386932373 C 35.149712562561035 6.301672458648682 33.475608825683594 9.189398288726807 31.1730694770813 11.625014543533325 C 29.054863452911377 13.862641096115112 26.209421157836914 14.613088846206665 23.198254108428955 14.580240964889526 C 20.19359588623047 14.549919843673706 17.394883632659912 13.568995475769043 14.669187068939209 15.351805210113525 C 14.615280628204346 15.386457920074463 14.570386409759521 15.428871393203735 14.519567489624023 15.46821665763855 C 14.29926872253418 15.601232528686523 14.07963752746582 15.738579988479614 13.859922885894775 15.880980968475342 C 12.415130138397217 16.812994480133057 10.603339672088623 17.83867859840393 9.169895648956299 17.36310625076294 C 8.793385028839111 17.234963417053223 8.49414587020874 16.966946363449097 8.337349891662598 16.554001569747925 C 8.21101188659668 16.218664407730103 8.34928274154663 15.629207372665405 8.087093830108643 15.407935380935669 C 7.441885471343994 16.076624393463135 7.668776512145996 17.62191867828369 7.923705577850342 18.21155619621277 C 8.148176670074463 18.724127531051636 8.480377197265625 19.202046155929565 8.898694515228271 19.50507688522339 C 9.01301622390747 19.586294174194336 10.35733938217163 19.924519062042236 10.350747108459473 19.952674388885498 C 10.336394309997559 20.017648220062256 10.320205688476562 20.080817222595215 10.305852890014648 20.145971536636353 C 10.287327766418457 20.222857236862183 8.650941848754883 20.388179540634155 8.506078720092773 20.393052577972412 C 7.869882583618164 20.418500661849976 7.278497219085693 20.278987407684326 6.848163604736328 19.833916664123535 C 6.4998579025268555 19.47475576400757 6.296331882476807 18.96453070640564 6.223900318145752 18.391136646270752 C 6.177170276641846 18.03919506072998 6.219143867492676 17.663790702819824 6.244845390319824 17.293259382247925 C 6.256778240203857 17.108986377716064 6.357331275939941 16.19068956375122 5.95278263092041 16.705607175827026 C 5.094451904296875 17.79464077949524 4.3558669090271 19.00874900817871 3.7268471717834473 20.253178358078003 C 3.273148536682129 21.14837336540222 2.7662110328674316 22.264659881591797 2.8595876693725586 23.203712224960327 C 2.894885540008545 23.548614978790283 3.0606937408447266 23.81663203239441 3.282744884490967 23.993866205215454 C 3.4700822830200195 24.142945051193237 3.7693214416503906 24.173266172409058 3.705902099609375 24.5111300945282 C 3.619701862335205 24.963420152664185 3.0469250679016113 25.43411946296692 2.9648971557617188 25.91203808784485 C 2.8481554985046387 26.58578062057495 3.4838509559631348 27.00269603729248 3.7525486946105957 27.426830768585205 C 3.9656710624694824 27.762889862060547 4.428298473358154 28.43825674057007 4.045279026031494 28.969959259033203 C 3.689713478088379 29.459067821502686 3.0606937408447266 29.34283685684204 2.7123045921325684 29.200796842575073 C 2.366335391998291 29.058215379714966 2.0461511611938477 28.83459711074829 1.8097472190856934 28.524888515472412 C 1.6905856132507324 28.37310242652893 1.5996289253234863 28.20308756828308 1.5248608589172363 28.012317180633545 C 1.5271973609924316 28.01881456375122 1.3536286354064941 27.51346254348755 1.3117384910583496 27.669219255447388 C 1.2183618545532227 28.00257110595703 1.2907934188842773 28.377975463867188 1.3141584396362305 28.692376613616943 C 1.3375234603881836 29.030781984329224 1.3985228538513184 29.354748725891113 1.5271973609924316 29.633955717086792 C 1.8120837211608887 30.263299465179443 2.382524013519287 30.58979296684265 3.0043673515319824 30.71577000617981 C 4.456419944763184 31.004362106323242 6.153888702392578 30.2986741065979 7.432956695556641 28.925740957260132 C 8.732969760894775 27.52717924118042 9.693605899810791 25.67686891555786 10.661418437957764 24.012275457382202 C 11.213250160217285 23.06167221069336 11.753149032592773 22.087606191635132 12.32175350189209 21.13411521911621 C 12.295968532562256 21.712201833724976 12.279195785522461 22.29028844833374 12.218780517578125 22.863682508468628 C 12.085349559783936 24.15251064300537 11.942822933197021 25.441338777542114 11.751313209533691 26.722767114639282 C 11.697490215301514 27.07976222038269 11.484367847442627 27.424484491348267 11.300034523010254 27.748451232910156 C 10.874457359313965 28.489513874053955 10.406405925750732 29.20729422569275 9.988088607788086 29.953229904174805 C 9.847981929779053 30.20734977722168 9.758861064910889 30.51525354385376 9.73783254623413 30.80637240409851 C 9.677417278289795 31.568912506103516 9.667820930480957 32.33325743675232 9.637279510498047 33.09760236740112 C 9.634943008422852 33.171961307525635 9.646875858306885 33.25642728805542 9.616334438323975 33.31652808189392 C 9.237487316131592 34.07672190666199 9.228558540344238 34.913259983062744 9.097464084625244 35.726515769958496 C 8.978302478790283 36.46992468833923 8.788628578186035 37.19943642616272 8.646185398101807 37.93833327293396 C 8.613224029541016 38.11304068565369 8.606631755828857 38.315903425216675 8.667130470275879 38.47707462310791 C 8.901114463806152 39.10353064537048 8.828682899475098 39.68179774284363 8.515090942382812 40.26926946640015 C 8.360631465911865 40.562915086746216 8.543212413787842 40.735456705093384 8.863396644592285 40.748992919921875 C 9.205193519592285 40.76090478897095 9.5463228225708 40.763431549072266 9.887535572052002 40.781840801239014 C 10.123939514160156 40.795737981796265 10.359759330749512 40.81883978843689 10.624284744262695 40.84464883804321 C 10.673351287841797 40.84699511528015 10.715241432189941 40.8330979347229 10.748202800750732 40.80277681350708 C 10.804445743560791 40.75151968002319 10.794849395751953 40.52050161361694 10.794849395751953 40.32485818862915 C 10.792512893676758 40.20122742652893 10.794849395751953 40.084996461868286 10.804445743560791 39.96623873710632 C 10.91634750366211 38.376726150512695 10.853512287139893 36.742453813552856 11.206073760986328 35.206725120544434 C 11.5688157081604 33.617212533950806 12.195415496826172 32.06542086601257 13.158471584320068 30.68526840209961 C 13.593645095825195 30.058090448379517 13.895304203033447 29.337963819503784 14.280743598937988 28.676313638687134 C 14.409418106079102 28.459734201431274 14.58240270614624 28.231242895126343 14.794857501983643 28.11248517036438 C 15.763254165649414 27.568870782852173 16.17447853088379 26.552932739257812 16.85264825820923 25.765125036239624 C 16.91781997680664 25.688419818878174 16.964550018310547 25.597636938095093 17.027969360351562 25.518224477767944 C 17.041738033294678 25.503785848617554 17.056090831756592 25.487722873687744 17.069859504699707 25.474186658859253 C 17.09322452545166 25.453250646591187 17.165656089782715 25.499634742736816 17.242844104766846 25.559916019439697 C 17.378695011138916 25.669830083847046 17.502613067626953 25.760612964630127 17.591233253479004 25.88171696662903 C 17.785747051239014 26.147568225860596 18.000621795654297 26.426955699920654 18.10117483139038 26.734678983688354 C 18.400413990020752 27.660195112228394 18.32322597503662 28.615490913391113 18.23460578918457 29.566635608673096 C 18.208904266357422 29.827974796295166 18.138225078582764 30.0815532207489 18.11728000640869 30.34289240837097 C 18.075389862060547 30.88325810432434 18.05210828781128 31.426331043243408 18.023903369903564 31.969223499298096 C 17.974836826324463 32.96224021911621 18.194551467895508 33.878551721572876 18.622465133666992 34.7943217754364 C 19.158191680908203 35.945441484451294 19.538791179656982 37.1691153049469 19.982893466949463 38.360121726989746 C 20.228893756866455 39.022313356399536 20.577282905578613 39.61195087432861 21.129114627838135 40.07543087005615 C 21.264381408691406 40.19003748893738 21.372110843658447 40.38586139678955 21.404404640197754 40.562915086746216 C 21.535499095916748 41.25037431716919 21.937711238861084 41.534815311431885 22.627229690551758 41.38808274269104 C 23.09528112411499 41.289719581604004 23.57651710510254 41.23647713661194 24.0230393409729 41.0825252532959 C 24.315686225891113 40.98235726356506 24.512035846710205 40.812342405319214 24.13076877593994 40.44415736198425 C 23.55081558227539 39.8821337223053 23.027021884918213 39.24358534812927 22.582919597625732 38.57002329826355 C 22.12688446044922 37.882744550704956 21.769566535949707 37.12273120880127 21.418840885162354 36.37192249298096 C 21.021385192871094 35.528345584869385 21.105165481567383 34.64776968955994 21.33681297302246 33.76647186279297 C 21.3954758644104 33.54501938819885 21.455891132354736 33.28855323791504 21.400232315063477 33.07666635513306 C 21.21055841445923 32.34228157997131 21.416420936584473 31.666914701461792 21.628875732421875 30.983606576919556 C 21.986777782440186 29.825448036193848 22.34476327896118 28.66440176963806 22.699661254882812 27.506423711776733 C 22.71167755126953 27.475741624832153 22.71885395050049 27.442893743515015 22.72536277770996 27.413294553756714 C 22.73737907409668 27.362037420272827 22.751147747039795 27.24959659576416 22.81456708908081 27.215124368667603 C 22.849280834197998 27.193646907806396 22.896595001220703 27.18931531906128 22.94090509414673 27.207905054092407 C 23.555572032928467 27.442893743515015 24.154133796691895 27.720476388931274 24.783153533935547 27.872081995010376 C 26.0807466506958 28.182332038879395 27.39694833755493 28.380321741104126 28.734679222106934 28.042096853256226 C 29.22309160232544 27.918466091156006 29.737205505371094 27.872081995010376 30.21902561187744 27.72516894340515 C 30.595452785491943 27.608937978744507 30.675060749053955 27.781299114227295 30.686492919921875 28.070252180099487 C 30.70326566696167 28.408296585083008 30.658371448516846 28.753379821777344 30.698425769805908 29.091063261032104 C 30.843288898468018 30.39180326461792 31.032378673553467 31.690016508102417 31.165893077850342 32.99256134033203 C 31.31075620651245 34.39346933364868 31.95354461669922 35.714964866638184 31.773967742919922 37.1691153049469 C 31.69435977935791 37.81470251083374 31.738669872283936 38.47924041748047 31.776387691497803 39.131505489349365 C 31.787736415863037 39.32065153121948 31.979329586029053 39.499690532684326 32.087059020996094 39.68396353721619 C 32.15465068817139 39.80037498474121 32.27614879608154 39.917327880859375 32.278568744659424 40.03590512275696 C 32.28574514389038 40.49072194099426 32.26722002029419 40.94481682777405 32.22950220108032 41.39945316314697 C 32.20855712890625 41.68407464027405 32.12235689163208 41.96310114860535 32.54309415817261 42.026631116867065 C 33.20207118988037 42.1267991065979 33.85687589645386 42.28075098991394 34.52069282531738 42.336159229278564 C 35.1383638381958 42.38976263999939 35.369343757629395 42.04504036903381 35.09822607040405 41.46695375442505 C 34.764273166656494 40.748992919921875 34.35964107513428 40.06171417236328 33.98555040359497 39.362523555755615 C 33.9646053314209 39.32534408569336 33.91795873641968 39.2926766872406 33.9155387878418 39.255136251449585 C 33.7844443321228 37.98471736907959 33.37505578994751 36.74967312812805 33.6863112449646 35.42817759513855 C 33.87122869491577 34.649935483932495 33.81256580352783 33.81050968170166 33.805389404296875 32.99960017204285 C 33.79162073135376 31.587321758270264 33.897013664245605 30.19363307952881 34.147186279296875 28.799763917922974 C 34.27527666091919 28.091007709503174 34.25666809082031 27.354637622833252 34.280033111572266 26.706704139709473 C 34.28245306015015 26.657973766326904 34.30339813232422 26.608882427215576 34.336276054382324 26.567190885543823 C 34.38776254653931 26.499148845672607 34.839041233062744 26.352416276931763 35.30650854110718 26.199005842208862 C 35.63628911972046 26.091618537902832 35.95413684844971 25.98910427093506 36.25337600708008 25.891102075576782 C 36.346752643585205 25.860780954360962 36.49879217147827 25.867819786071777 36.58799648284912 25.904818773269653 C 37.043447494506836 26.102988958358765 37.466604709625244 26.33869957923889 37.91788339614868 26.406019687652588 C 38.427908420562744 26.483085870742798 39.00068521499634 26.45023798942566 39.489097595214844 26.29448127746582 C 40.618462562561035 25.935320377349854 41.71503305435181 25.474186658859253 42.823452949523926 25.052217721939087 C 43.026394844055176 24.975332021713257 43.223328590393066 24.881661415100098 43.42618703842163 24.80044412612915 C 43.89190196990967 24.608951807022095 44.04385805130005 24.651184797286987 44.05045032501221 25.117191553115845 C 44.06964302062988 26.03548836708069 44.057626724243164 26.963350772857666 43.96425008773804 27.876955032348633 C 43.91284704208374 28.394038438796997 43.751211166381836 28.93061399459839 43.20413589477539 29.224079132080078 C 43.10124635696411 29.277682542800903 43.03357124328613 29.45257043838501 43.00302982330322 29.585044860839844 C 42.85816669464111 30.219261646270752 42.7294921875 30.857810020446777 42.60565757751465 31.49834370613098 C 42.533226013183594 31.860211849212646 42.79057502746582 32.58033847808838 43.024559020996094 32.71732497215271 C 43.42860698699951 32.95321607589722 43.973262310028076 32.68519902229309 44.2467999458313 32.13508725166321 C 44.32640790939331 31.971750259399414 44.426960945129395 31.79451608657837 44.56756830215454 31.6829776763916 C 45.4719614982605 30.972236156463623 45.94660520553589 29.951425075531006 46.45179033279419 28.97699809074402 C 46.75586938858032 28.38699960708618 46.776814460754395 27.699720859527588 46.59006118774414 26.993671894073486 C 46.376938819885254 26.199005842208862 46.36559009552002 25.35290217399597 46.19677782058716 24.543797492980957 C 46.19677782058716 24.543797492980957 46.19677782058716 24.543797492980957 46.19677782058716 24.543797492980957 Z M 46.19677782058716 24.543797492980957 C 46.19677782058716 24.543797492980957 46.19677782058716 24.543797492980957 46.19677782058716 24.543797492980957"/></g></svg>