<svg version="1.1" xmlns="http://www.w3.org/2000/svg" xmlns:xlink="http://www.w3.org/1999/xlink" width="57" height="42"><defs/><g><path fill="rgb(255,255,255)" stroke="none" paint-order="stroke fill markers" fill-rule="evenodd" d=" M 47.82036590576172 6.857490301132202 C 46.76251459121704 6.867236375808716 45.3534369468689 8.134045600891113 44.87603950500488 8.674772262573242 C 44.398725509643555 9.215679407119751 44.631624698638916 9.714353561401367 44.992530822753906 10.089035987854004 C 44.992530822753906 10.089035987854004 45.12237358093262 10.782631635665894 45.77158737182617 10.69672179222107 C 45.8574538230896 11.289066553115845 46.47804546356201 11.216512441635132 46.47804546356201 11.216512441635132 C 46.52001905441284 12.269449472427368 48.729265213012695 11.95992136001587 49.35936975479126 11.910108089447021 C 50.87734508514404 14.012192010879517 48.34165620803833 16.19260549545288 49.35936975479126 19.748839855194092 C 46.35012197494507 17.123355627059937 43.415308475494385 19.748839855194092 43.415308475494385 19.748839855194092 C 38.991225242614746 16.991242170333862 35.218191623687744 19.748839855194092 35.218191623687744 19.748839855194092 C 34.2634801864624 18.929086685180664 33.171332359313965 18.376809120178223 32.18607950210571 18.006097316741943 C 32.18607950210571 18.006097316741943 32.01042461395264 15.560013055801392 32.01042461395264 15.560013055801392 C 32.01042461395264 15.560013055801392 32.55074071884155 14.42315149307251 33.04532814025879 12.833097457885742 C 33.62962055206299 12.443254470825195 33.99812030792236 12.257898569107056 34.27875089645386 11.241238594055176 C 34.68738842010498 9.743050336837769 34.29786014556885 9.208099126815796 33.79000473022461 9.208099126815796 C 33.916008949279785 7.9180076122283936 34.1451530456543 6.355026006698608 33.83197832107544 5.451167821884155 C 32.9765682220459 2.9401097297668457 29.745853424072266 1.889158010482788 28.500915050506592 1.889158010482788 C 27.521336555480957 1.889158010482788 25.99384832382202 2.112595796585083 25.640535831451416 3.2687690258026123 C 24.42430305480957 3.467661142349243 23.463833808898926 4.094297647476196 23.104846954345703 5.449182510375977 C 22.82605218887329 6.492553949356079 23.120117664337158 8.162742376327515 23.213661193847656 9.208099126815796 C 22.70388650894165 9.208099126815796 22.314358234405518 9.743050336837769 22.724915027618408 11.241238594055176 C 23.00370979309082 12.257898569107056 23.251879692077637 12.401201963424683 23.956501960754395 12.833097457885742 C 24.449086666107178 14.42315149307251 24.991405487060547 15.560013055801392 24.991405487060547 15.560013055801392 C 24.991405487060547 15.560013055801392 24.817586421966553 18.006097316741943 24.817586421966553 18.006097316741943 C 23.830414295196533 18.374823808670044 22.740185737609863 18.927101373672485 21.783555030822754 19.748839855194092 C 21.783555030822754 19.748839855194092 18.01244068145752 16.991242170333862 13.58835744857788 19.748839855194092 C 13.58835744857788 19.748839855194092 10.653543949127197 17.123355627059937 7.642376899719238 19.748839855194092 C 8.660090446472168 16.19260549545288 6.124401569366455 14.013996839523315 7.642376899719238 11.910108089447021 C 8.272564888000488 11.95974087715149 10.479808330535889 12.269449472427368 10.523701190948486 11.216512441635132 C 10.523701190948486 11.216512441635132 11.144292831420898 11.289066553115845 11.230159282684326 10.69672179222107 C 11.87937307357788 10.782631635665894 12.009215831756592 10.089035987854004 12.009215831756592 10.089035987854004 C 12.370121955871582 9.714353561401367 12.603104591369629 9.213694095611572 12.125707149505615 8.674772262573242 C 11.648393154144287 8.135850429534912 10.23731279373169 6.867236375808716 9.18138074874878 6.857490301132202 C 8.127367973327637 6.847924709320068 5.975449562072754 8.498981952667236 5.158257961273193 9.68006181716919 C 4.383039951324463 10.80356764793396 1.3585214614868164 15.772080421447754 1.8168096542358398 23.10636258125305 C 1.8568639755249023 23.737150192260742 2.4144535064697266 24.37154746055603 2.998745918273926 24.610506772994995 C 5.440807819366455 25.60406494140625 6.471956253051758 27.293384552001953 8.51314115524292 27.80541443824768 C 8.51314115524292 27.80541443824768 13.88050365447998 29.185205936431885 15.910172939300537 27.51501750946045 C 16.607118129730225 32.324885845184326 19.641149520874023 35.02707529067993 20.137656211853027 39.53878593444824 C 20.171952724456787 39.8540894985199 20.443153858184814 40.11001420021057 20.758164405822754 40.11001420021057 C 20.758164405822754 40.11001420021057 36.23974370956421 40.11001420021057 36.23974370956421 40.11001420021057 C 36.554837703704834 40.11001420021057 36.825955390930176 39.8540894985199 36.86033535003662 39.53878593444824 C 37.35867786407471 35.02888011932373 40.392709255218506 32.324885845184326 41.08965444564819 27.51501750946045 C 43.119407176971436 29.185205936431885 48.486769676208496 27.80541443824768 48.486769676208496 27.80541443824768 C 50.52787113189697 27.293384552001953 51.559019565582275 25.60406494140625 54.00116491317749 24.610506772994995 C 54.58921241760254 24.37154746055603 55.14680194854736 23.737150192260742 55.183101177215576 23.10636258125305 C 55.641305923461914 15.772080421447754 52.61678743362427 10.80356764793396 51.84156942367554 9.68006181716919 C 51.026297092437744 8.498981952667236 48.87437868118286 6.847924709320068 47.82036590576172 6.857490301132202 Z"/></g></svg>