<svg version="1.1" xmlns="http://www.w3.org/2000/svg" xmlns:xlink="http://www.w3.org/1999/xlink" width="45" height="46"><defs/><g><path fill="rgb(255,255,255)" stroke="none" paint-order="stroke fill markers" fill-rule="evenodd" d=" M 25.567301273345947 43.15314960479736 C 25.567301273345947 43.15314960479736 38.455947399139404 43.15314960479736 38.455947399139404 43.15314960479736 C 38.455947399139404 43.15314960479736 38.455947399139404 44.57264733314514 38.455947399139404 44.57264733314514 C 38.455947399139404 44.57264733314514 25.567301273345947 44.57264733314514 25.567301273345947 44.57264733314514 C 25.567301273345947 44.57264733314514 25.567301273345947 43.15314960479736 25.567301273345947 43.15314960479736 Z M 40.53243017196655 28.69791603088379 C 40.53243017196655 28.69791603088379 39.887972831726074 28.484946250915527 39.887972831726074 28.484946250915527 C 39.887972831726074 28.484946250915527 39.887972831726074 34.13496232032776 39.887972831726074 34.13496232032776 C 41.778870582580566 36.510658264160156 41.778870582580566 39.8620445728302 39.887972831726074 42.23756003379822 C 39.887972831726074 42.23756003379822 39.887972831726074 44.57264733314514 39.887972831726074 44.57264733314514 C 39.887972831726074 44.57264733314514 43.46816158294678 44.57264733314514 43.46816158294678 44.57264733314514 C 43.46816158294678 44.57264733314514 43.46816158294678 32.738205432891846 43.46816158294678 32.738205432891846 C 43.468745708465576 30.905762910842896 42.28622531890869 29.278348922729492 40.53243017196655 28.69791603088379 Z M 38.455947399139404 28.013164043426514 C 38.455947399139404 28.013164043426514 36.834081172943115 27.47731041908264 36.834081172943115 27.47731041908264 C 36.35309553146362 27.315958738327026 35.92418050765991 27.030254364013672 35.59181308746338 26.6496160030365 C 35.59181308746338 26.6496160030365 35.59181308746338 33.217387437820435 35.59181308746338 33.217387437820435 C 35.59181308746338 35.1770703792572 33.98888921737671 36.76586103439331 32.011624336242676 36.76586103439331 C 30.034359455108643 36.76586103439331 28.431435585021973 35.1770703792572 28.431435585021973 33.217387437820435 C 28.431435585021973 33.217387437820435 28.431435585021973 26.6496160030365 28.431435585021973 26.6496160030365 C 28.098984718322754 27.030254364013672 27.67015314102173 27.315958738327026 27.189167499542236 27.47731041908264 C 27.189167499542236 27.47731041908264 25.567301273345947 27.883216381072998 25.567301273345947 27.883216381072998 C 25.567301273345947 27.883216381072998 25.567301273345947 34.63670468330383 25.567301273345947 34.63670468330383 C 25.567301273345947 34.63670468330383 22.345181465148926 38.18517827987671 25.567301273345947 41.733651876449585 C 25.567301273345947 41.733651876449585 38.455947399139404 41.733651876449585 38.455947399139404 41.733651876449585 C 41.678067207336426 38.18517827987671 38.455947399139404 34.63670468330383 38.455947399139404 34.63670468330383 C 38.455947399139404 34.63670468330383 38.455947399139404 28.013164043426514 38.455947399139404 28.013164043426514 Z M 21.987112522125244 28.844107151031494 C 21.987112522125244 28.844107151031494 21.987112522125244 31.088231086730957 21.987112522125244 31.088231086730957 C 21.98477602005005 33.047011613845825 20.383270740509033 34.634358406066895 18.407007217407227 34.63670468330383 C 17.90324068069458 34.633816957473755 17.405982971191406 34.524083375930786 16.948445796966553 34.31526470184326 C 16.948445796966553 34.31526470184326 15.01015043258667 36.71604776382446 15.01015043258667 36.71604776382446 C 15.01015043258667 36.71604776382446 13.28731393814087 31.65603017807007 13.28731393814087 31.65603017807007 C 13.814862728118896 31.126854419708252 14.110764026641846 30.412864208221436 14.110764026641846 29.66891384124756 C 14.110764026641846 29.66891384124756 14.110764026641846 28.24941611289978 14.110764026641846 28.24941611289978 C 14.110764026641846 26.68156147003174 12.828441619873047 25.410601139068604 11.24662971496582 25.410601139068604 C 9.664817810058594 25.410601139068604 8.382495403289795 26.68156147003174 8.382495403289795 28.24941611289978 C 8.382495403289795 28.24941611289978 8.382495403289795 29.66891384124756 8.382495403289795 29.66891384124756 C 8.384331226348877 30.55995774269104 8.810325622558594 31.397939682006836 9.531720638275146 31.93000316619873 C 9.531720638275146 31.93000316619873 11.28242826461792 41.07434797286987 11.28242826461792 41.07434797286987 C 11.510237216949463 42.4234573841095 12.793227195739746 43.3376030921936 14.155908584594727 43.121926069259644 C 14.676865100860596 43.04016733169556 15.16043758392334 42.80355429649353 15.542872905731201 42.443490982055664 C 15.542872905731201 42.443490982055664 23.49941349029541 35.16335368156433 23.49941349029541 35.16335368156433 C 23.682995796203613 34.804373264312744 23.895617485046387 34.46055340766907 24.135275840759277 34.13568425178528 C 24.135275840759277 34.13568425178528 24.135275840759277 28.245265007019043 24.135275840759277 28.245265007019043 C 24.135275840759277 28.245265007019043 22.6709566116333 28.612186670303345 22.6709566116333 28.612186670303345 C 22.436805725097656 28.670121669769287 22.208078861236572 28.747729301452637 21.987112522125244 28.844107151031494 Z M 7.014890670776367 27.53975749015808 C 7.014890670776367 27.53975749015808 6.234415531158447 27.53975749015808 6.234415531158447 27.53975749015808 C 6.234415531158447 27.53975749015808 6.234415531158447 26.830098867416382 6.234415531158447 26.830098867416382 C 6.234415531158447 25.654253005981445 5.2726945877075195 24.700942516326904 4.0863356590271 24.700942516326904 C 2.8999767303466797 24.700942516326904 1.9381723403930664 25.654253005981445 1.9381723403930664 26.830098867416382 C 1.9381723403930664 26.830098867416382 1.9381723403930664 31.088231086730957 1.9381723403930664 31.088231086730957 C 1.9381723403930664 32.264076948165894 2.8999767303466797 33.217387437820435 4.0863356590271 33.217387437820435 C 5.2726945877075195 33.217387437820435 6.234415531158447 32.264076948165894 6.234415531158447 31.088231086730957 C 6.234415531158447 31.088231086730957 6.234415531158447 30.378572463989258 6.234415531158447 30.378572463989258 C 6.234415531158447 30.378572463989258 7.014890670776367 30.378572463989258 7.014890670776367 30.378572463989258 C 6.97341775894165 30.14412522315979 6.951888561248779 29.906790256500244 6.950469970703125 29.66891384124756 C 6.950469970703125 29.66891384124756 6.950469970703125 28.24941611289978 6.950469970703125 28.24941611289978 C 6.951888561248779 28.011539697647095 6.97341775894165 27.77402424812317 7.014890670776367 27.53975749015808 Z M 15.478368759155273 30.378572463989258 C 15.478368759155273 30.378572463989258 16.258843898773193 30.378572463989258 16.258843898773193 30.378572463989258 C 16.258843898773193 30.378572463989258 16.258843898773193 31.088231086730957 16.258843898773193 31.088231086730957 C 16.258843898773193 32.264076948165894 17.220648288726807 33.217387437820435 18.407007217407227 33.217387437820435 C 19.593366146087646 33.217387437820435 20.555087089538574 32.264076948165894 20.555087089538574 31.088231086730957 C 20.555087089538574 31.088231086730957 20.555087089538574 26.830098867416382 20.555087089538574 26.830098867416382 C 20.555087089538574 25.654253005981445 19.593366146087646 24.700942516326904 18.407007217407227 24.700942516326904 C 17.220648288726807 24.700942516326904 16.258843898773193 25.654253005981445 16.258843898773193 26.830098867416382 C 16.258843898773193 26.830098867416382 16.258843898773193 27.53975749015808 16.258843898773193 27.53975749015808 C 16.258843898773193 27.53975749015808 15.478368759155273 27.53975749015808 15.478368759155273 27.53975749015808 C 15.51984167098999 27.77402424812317 15.541370868682861 28.011539697647095 15.542872905731201 28.24941611289978 C 15.542872905731201 28.24941611289978 15.542872905731201 29.66891384124756 15.542872905731201 29.66891384124756 C 15.541370868682861 29.906790256500244 15.51984167098999 30.14412522315979 15.478368759155273 30.378572463989258 Z M 29.863544464111328 26.41913938522339 C 29.863544464111328 26.41913938522339 29.863544464111328 33.217387437820435 29.863544464111328 33.217387437820435 C 29.863544464111328 34.39323329925537 30.825265407562256 35.34654378890991 32.011624336242676 35.34654378890991 C 33.197983264923096 35.34654378890991 34.15970420837402 34.39323329925537 34.15970420837402 33.217387437820435 C 34.15970420837402 33.217387437820435 34.15970420837402 26.41913938522339 34.15970420837402 26.41913938522339 C 32.78100109100342 26.967085361480713 31.242247581481934 26.967085361480713 29.863544464111328 26.41913938522339 Z M 24.85124683380127 18.31347346305847 C 24.85124683380127 22.486598253250122 29.498382568359375 25.410601139068604 32.011624336242676 25.410601139068604 C 34.52486610412598 25.410601139068604 39.1719183921814 22.486598253250122 39.1719183921814 18.31347346305847 C 40.35552358627319 18.31726360321045 41.31807899475098 17.369367599487305 41.321834087371826 16.196228981018066 C 41.324838161468506 15.228118896484375 40.6672797203064 14.380571365356445 39.72258186340332 14.134934186935425 C 39.827223777770996 13.641674518585205 39.8826322555542 13.139751672744751 39.887972831726074 12.635843515396118 C 39.887972831726074 9.81453537940979 38.3508882522583 7.213055372238159 35.86818790435791 5.832722425460815 C 35.92217779159546 5.620655059814453 35.94954824447632 5.402812242507935 35.949798583984375 5.184067010879517 C 35.949798583984375 3.4205689430236816 34.18690776824951 1.9904227256774902 32.011624336242676 1.9904227256774902 C 29.83634090423584 1.9904227256774902 28.073450088500977 3.4205689430236816 28.073450088500977 5.184067010879517 C 28.073616981506348 5.402812242507935 28.101070880889893 5.620655059814453 28.15506076812744 5.832722425460815 C 25.185032844543457 7.4758384227752686 23.623164653778076 10.83011245727539 24.28848361968994 14.136378049850464 C 23.144432067871094 14.436882019042969 22.462841033935547 15.599913597106934 22.76616907119751 16.733887434005737 C 23.01650857925415 17.66987156867981 23.8741717338562 18.319790363311768 24.85124683380127 18.31347346305847 Z M 26.283355712890625 14.687031269073486 C 30.737062454223633 14.12627100944519 33.10719347000122 12.486945152282715 34.123905658721924 11.57135558128357 C 35.16056156158447 12.730957984924316 36.38205146789551 13.713867664337158 37.73989295959473 14.48128080368042 C 37.73989295959473 14.48128080368042 37.73989295959473 18.31347346305847 37.73989295959473 18.31347346305847 C 37.73989295959473 21.727306842803955 33.6656174659729 23.991103410720825 32.011624336242676 23.991103410720825 C 30.357547760009766 23.991103410720825 26.283355712890625 21.727306842803955 26.283355712890625 18.31347346305847 C 26.283355712890625 18.31347346305847 26.283355712890625 14.687031269073486 26.283355712890625 14.687031269073486 Z M 28.789504528045654 15.474838972091675 C 29.38264226913452 15.474838972091675 29.863544464111328 15.951313734054565 29.863544464111328 16.539326906204224 C 29.863544464111328 17.127159595489502 29.38264226913452 17.603995323181152 28.789504528045654 17.603995323181152 C 28.1962833404541 17.603995323181152 27.715381145477295 17.127159595489502 27.715381145477295 16.539326906204224 C 27.715381145477295 15.951313734054565 28.1962833404541 15.474838972091675 28.789504528045654 15.474838972091675 Z M 35.2337441444397 15.474838972091675 C 35.82696533203125 15.474838972091675 36.30778408050537 15.951313734054565 36.30778408050537 16.539326906204224 C 36.30778408050537 17.127159595489502 35.82696533203125 17.603995323181152 35.2337441444397 17.603995323181152 C 34.64060640335083 17.603995323181152 34.15970420837402 17.127159595489502 34.15970420837402 16.539326906204224 C 34.15970420837402 15.951313734054565 34.64060640335083 15.474838972091675 35.2337441444397 15.474838972091675 Z"/></g></svg>